# This file uses centimeters as units for non-parametric coordinates.

mtllib ElectricWire_Mound_LOD_1.mtl
g default
v 0.240245 -1.481472 0.242714
v 0.240245 0.054906 0.460386
v 0.240245 0.054906 0.025042
v 0.240245 -3.017851 0.025042
v 0.240245 -3.017851 0.460386
v 0.464227 0.054906 0.460386
v 0.464227 0.054906 0.025042
v 0.464227 -3.017851 0.025042
v 0.464227 -3.017851 0.460386
v 0.464227 -1.481472 0.242714
v -0.000000 -0.164375 0.050083
v 0.710913 -0.164375 0.050083
v -0.000000 -0.000000 0.050083
v 0.710913 -0.000000 0.050083
v -0.000000 -0.000000 0.000000
v 0.710913 -0.000000 0.000000
v -0.000000 -0.164375 0.000000
v 0.710913 -0.164375 0.000000
v -0.000000 -2.962758 0.050083
v 0.710913 -2.962758 0.050083
v -0.000000 -2.798382 0.050083
v 0.710913 -2.798382 0.050083
v -0.000000 -2.798382 0.000000
v 0.710913 -2.798382 0.000000
v -0.000000 -2.962758 0.000000
v 0.710913 -2.962758 0.000000
vt 0.233346 0.500000
vt 0.286504 0.875199
vt 0.180188 0.875199
vt 0.286504 0.124801
vt 0.180188 0.124801
vt 0.252883 0.379828
vt 0.180189 0.981514
vt 0.125492 0.981514
vt 0.125491 0.875199
vt 0.252883 0.565673
vt 0.252883 0.553442
vt 0.252883 0.367598
vt 0.125491 0.124801
vt 0.180188 0.018486
vt 0.212741 0.367598
vt 0.212741 0.379829
vt 0.125491 0.018486
vt 0.212741 0.553442
vt 0.213023 0.819315
vt 0.341200 0.124801
vt 0.341200 0.875199
vt 0.213023 0.621240
vt 0.019176 0.875199
vt 0.072334 0.500000
vt 0.019176 0.124801
vt 0.212741 0.565673
vt 0.265114 0.553442
vt 0.265114 0.379828
vt 0.200510 0.379828
vt 0.200510 0.553442
vt 0.213023 0.807084
vt 0.213023 0.633471
vt 0.253165 0.633471
vt 0.253165 0.807084
vt 0.253165 0.819315
vt 0.253165 0.621240
vt 0.265396 0.633471
vt 0.265396 0.807084
vt 0.200792 0.807084
vt 0.200792 0.633471
vn -1.000000 0.000000 0.000000
vn -1.000000 0.000000 0.000000
vn -1.000000 0.000000 0.000000
vn -1.000000 0.000000 0.000000
vn -1.000000 0.000000 0.000000
vn -1.000000 0.000000 0.000000
vn -1.000000 0.000000 0.000000
vn -1.000000 0.000000 0.000000
vn -1.000000 0.000000 0.000000
vn -1.000000 0.000000 0.000000
vn -1.000000 0.000000 0.000000
vn -1.000000 0.000000 0.000000
vn 0.000000 1.000000 0.000001
vn 0.000000 1.000000 0.000001
vn 0.000000 1.000000 0.000001
vn 0.000000 1.000000 0.000001
vn 0.000000 0.000000 -1.000000
vn 0.000000 0.000000 -1.000000
vn 0.000000 0.000000 -1.000000
vn 0.000000 0.000000 -1.000000
vn 0.000000 -1.000000 0.000000
vn 0.000000 -1.000000 0.000000
vn 0.000000 -1.000000 0.000000
vn 0.000000 -1.000000 0.000000
vn 0.000000 0.000000 1.000000
vn 0.000000 0.000000 1.000000
vn 0.000000 0.000000 1.000000
vn 0.000000 0.000000 1.000000
vn 1.000000 0.000000 0.000000
vn 1.000000 0.000000 0.000000
vn 1.000000 0.000000 0.000000
vn 1.000000 0.000000 0.000000
vn 1.000000 0.000000 0.000000
vn 1.000000 0.000000 0.000000
vn 1.000000 0.000000 0.000000
vn 1.000000 0.000000 0.000000
vn 1.000000 0.000000 0.000000
vn 1.000000 0.000000 0.000000
vn 1.000000 0.000000 0.000000
vn 1.000000 0.000000 0.000000
vn 0.000000 0.000000 1.000000
vn 0.000000 0.000000 1.000000
vn 0.000000 0.000000 1.000000
vn 0.000000 0.000000 1.000000
vn 0.000000 1.000000 0.000000
vn 0.000000 1.000000 0.000000
vn 0.000000 1.000000 0.000000
vn 0.000000 1.000000 0.000000
vn 0.000000 -1.000000 0.000000
vn 0.000000 -1.000000 0.000000
vn 0.000000 -1.000000 0.000000
vn 0.000000 -1.000000 0.000000
vn 1.000000 0.000000 0.000000
vn 1.000000 0.000000 0.000000
vn 1.000000 0.000000 0.000000
vn 1.000000 0.000000 0.000000
vn -1.000000 0.000000 0.000000
vn -1.000000 0.000000 0.000000
vn -1.000000 0.000000 0.000000
vn -1.000000 0.000000 0.000000
vn 0.000000 0.000000 1.000000
vn 0.000000 0.000000 1.000000
vn 0.000000 0.000000 1.000000
vn 0.000000 0.000000 1.000000
vn 0.000000 1.000000 0.000000
vn 0.000000 1.000000 0.000000
vn 0.000000 1.000000 0.000000
vn 0.000000 1.000000 0.000000
vn 0.000000 -1.000000 0.000000
vn 0.000000 -1.000000 0.000000
vn 0.000000 -1.000000 0.000000
vn 0.000000 -1.000000 0.000000
vn 1.000000 0.000000 0.000000
vn 1.000000 0.000000 0.000000
vn 1.000000 0.000000 0.000000
vn 1.000000 0.000000 0.000000
vn -1.000000 0.000000 0.000000
vn -1.000000 0.000000 0.000000
vn -1.000000 0.000000 0.000000
vn -1.000000 0.000000 0.000000
s off
g polySurface46 group2
usemtl lambert3SG
f 1/1/1 2/2/2 3/3/3
f 1/1/4 3/3/5 4/5/6
f 1/1/7 4/5/8 5/4/9
f 1/1/10 5/4/11 2/2/12
f 3/3/13 2/7/14 6/8/15 7/9/16
f 4/5/17 3/3/18 7/9/19 8/13/20
f 5/14/21 4/5/22 8/13/23 9/17/24
f 2/2/25 5/4/26 9/20/27 6/21/28
f 7/9/29 6/23/30 10/24/31
f 8/13/32 7/9/33 10/24/34
f 9/25/35 8/13/36 10/24/37
f 6/23/38 9/25/39 10/24/40
f 11/31/41 12/32/42 14/33/43 13/34/44
f 13/34/45 14/33/46 16/37/47 15/38/48
f 17/39/49 18/40/50 12/32/51 11/31/52
f 12/32/53 18/22/54 16/36/55 14/33/56
f 17/19/57 11/31/58 13/34/59 15/35/60
f 19/18/61 20/16/62 22/6/63 21/11/64
f 21/11/65 22/6/66 24/28/67 23/27/68
f 25/30/69 26/29/70 20/16/71 19/18/72
f 20/16/73 26/15/74 24/12/75 22/6/76
f 25/26/77 19/18/78 21/11/79 23/10/80
