# This file uses centimeters as units for non-parametric coordinates.

mtllib FuseMeter_A_LOD_0.mtl
g default
v -0.484971 -0.608143 -0.239849
v 0.315029 -0.608143 -0.239849
v -0.484971 -1.408142 -0.239849
v 0.315029 -1.408142 -0.239849
v -0.484971 -1.408142 0.114215
v -0.466249 -1.389420 0.156483
v -0.431829 -1.355001 0.167356
v 0.315029 -1.408142 0.114215
v 0.296307 -1.389420 0.156483
v 0.261887 -1.355001 0.167356
v -0.484971 -0.608143 0.114215
v -0.466249 -0.626865 0.156483
v -0.431829 -0.661284 0.167356
v 0.315029 -0.608143 0.114215
v 0.296307 -0.626865 0.156483
v 0.261887 -0.661284 0.167356
v -0.249869 -0.608142 -0.089495
v -0.278948 -0.608142 -0.110622
v -0.314891 -0.608142 -0.110622
v -0.343970 -0.608142 -0.089495
v -0.355077 -0.608142 -0.055311
v -0.343970 -0.608142 -0.021127
v -0.314891 -0.608142 -0.000000
v -0.278948 -0.608142 -0.000000
v -0.249869 -0.608142 -0.021127
v -0.238762 -0.608142 -0.055311
v -0.249869 0.000000 -0.089495
v -0.278948 0.000000 -0.110622
v -0.314891 0.000000 -0.110622
v -0.343970 0.000000 -0.089495
v -0.355077 0.000000 -0.055311
v -0.343970 0.000000 -0.021127
v -0.314891 0.000000 -0.000000
v -0.278948 0.000000 -0.000000
v -0.249869 0.000000 -0.021127
v -0.238762 0.000000 -0.055311
v 0.029079 -0.608142 -0.089495
v -0.000000 -0.608142 -0.110622
v -0.035944 -0.608142 -0.110622
v -0.065022 -0.608142 -0.089495
v -0.076130 -0.608142 -0.055311
v -0.065022 -0.608142 -0.021127
v -0.035944 -0.608142 -0.000000
v -0.000000 -0.608142 -0.000000
v 0.029079 -0.608142 -0.021127
v 0.040186 -0.608142 -0.055311
v 0.029079 0.000000 -0.089495
v -0.000000 0.000000 -0.110622
v -0.035944 0.000000 -0.110622
v -0.065022 0.000000 -0.089495
v -0.076130 0.000000 -0.055311
v -0.065022 0.000000 -0.021127
v -0.035944 0.000000 -0.000000
v -0.000000 0.000000 -0.000000
v 0.029079 0.000000 -0.021127
v 0.040186 0.000000 -0.055311
v -1.746270 -0.699223 -0.231067
v -1.745992 -1.498225 -0.271008
v -2.546269 -0.699437 -0.232364
v -2.545990 -1.498440 -0.272305
v -2.546838 -0.717114 0.121259
v -2.528177 -0.737919 0.162570
v -2.493763 -0.772829 0.171767
v -2.546559 -1.516117 0.081318
v -2.527911 -1.499523 0.124498
v -2.493521 -1.465680 0.137132
v -1.746839 -0.716900 0.122556
v -1.765622 -0.737714 0.163805
v -1.800047 -0.772643 0.172891
v -1.746560 -1.515902 0.082615
v -1.765356 -1.499319 0.125734
v -1.799805 -1.465494 0.138256
v -1.746430 -0.941538 -0.092638
v -1.746406 -0.911441 -0.112287
v -1.746418 -0.875542 -0.110493
v -1.746463 -0.847554 -0.087940
v -1.746522 -0.838168 -0.053244
v -1.746572 -0.850968 -0.019657
v -1.746596 -0.881065 -0.000008
v -1.746584 -0.916964 -0.001803
v -1.746540 -0.944951 -0.024355
v -1.746481 -0.954338 -0.059052
v -0.274708 -0.941375 -0.092312
v -0.273093 -0.911277 -0.111895
v -0.273251 -0.875379 -0.110107
v -0.275121 -0.847391 -0.087632
v -0.277990 -0.838004 -0.053055
v -0.280761 -0.850805 -0.019582
v -0.282376 -0.880902 -0.000000
v -0.282218 -0.916800 -0.001788
v -0.280347 -0.944788 -0.024262
v -0.277479 -0.954175 -0.058840
v -1.746333 -1.220138 -0.106565
v -1.746309 -1.190041 -0.126214
v -1.746321 -1.154142 -0.124420
v -1.746365 -1.126154 -0.101867
v -1.746424 -1.116768 -0.067171
v -1.746475 -1.129568 -0.033584
v -1.746499 -1.159665 -0.013935
v -1.746486 -1.195564 -0.015730
v -1.746442 -1.223552 -0.038282
v -1.746384 -1.232938 -0.072978
v -0.273483 -1.219975 -0.106186
v -0.271868 -1.189878 -0.125768
v -0.272026 -1.153979 -0.123980
v -0.273896 -1.125991 -0.101505
v -0.276765 -1.116605 -0.066928
v -0.279536 -1.129404 -0.033455
v -0.281151 -1.159502 -0.013873
v -0.280993 -1.195401 -0.015661
v -0.279123 -1.223388 -0.038136
v -0.276254 -1.232775 -0.072713
vt 0.955583 0.857071
vt 0.955583 0.766915
vt 0.995483 0.766915
vt 0.995483 0.857071
vt 0.950819 0.854961
vt 0.950819 0.769025
vt 0.820220 0.857071
vt 0.820220 0.766915
vt 0.860120 0.766915
vt 0.860120 0.857071
vt 0.864884 0.854961
vt 0.864884 0.769025
vt 0.952929 0.764262
vt 0.862774 0.764262
vt 0.862774 0.724361
vt 0.952929 0.724361
vt 0.946940 0.772904
vt 0.868763 0.772904
vt 0.862774 0.899625
vt 0.862774 0.859724
vt 0.952929 0.859724
vt 0.952929 0.899625
vt 0.868763 0.851082
vt 0.946940 0.851082
vt 0.667229 0.782860
vt 0.673450 0.782860
vt 0.673450 0.876404
vt 0.667229 0.876404
vt 0.679671 0.782860
vt 0.679671 0.876404
vt 0.685891 0.782860
vt 0.685891 0.876404
vt 0.692112 0.782860
vt 0.692112 0.876404
vt 0.698333 0.782860
vt 0.698333 0.876404
vt 0.704553 0.782860
vt 0.704553 0.876404
vt 0.710774 0.782860
vt 0.710774 0.876404
vt 0.716995 0.782860
vt 0.716995 0.876404
vt 0.723215 0.782860
vt 0.723215 0.876404
vt 0.729436 0.782860
vt 0.729436 0.876404
vt 0.743061 0.782860
vt 0.749281 0.782860
vt 0.749281 0.876404
vt 0.743061 0.876404
vt 0.755502 0.782860
vt 0.755502 0.876404
vt 0.761723 0.782860
vt 0.761723 0.876404
vt 0.767943 0.782860
vt 0.767943 0.876404
vt 0.774164 0.782860
vt 0.774164 0.876404
vt 0.780385 0.782860
vt 0.780385 0.876404
vt 0.786605 0.782860
vt 0.786605 0.876404
vt 0.792826 0.782860
vt 0.792826 0.876404
vt 0.799047 0.782860
vt 0.799047 0.876404
vt 0.805267 0.782860
vt 0.805267 0.876404
vt 0.955583 0.673711
vt 0.955583 0.583556
vt 0.995483 0.583556
vt 0.995483 0.673711
vt 0.820220 0.673711
vt 0.820220 0.583556
vt 0.860121 0.583556
vt 0.860120 0.673711
vt 0.952929 0.580902
vt 0.862774 0.580902
vt 0.862774 0.541001
vt 0.952929 0.541001
vt 0.862774 0.716265
vt 0.862774 0.676364
vt 0.952929 0.676365
vt 0.952929 0.716265
vt 0.868763 0.589544
vt 0.946940 0.589544
vt 0.946940 0.667722
vt 0.868763 0.667722
vt 0.864884 0.671601
vt 0.864884 0.585666
vt 0.950819 0.671601
vt 0.950819 0.585666
vt 0.667229 0.551874
vt 0.673450 0.551874
vt 0.673450 0.766864
vt 0.667229 0.766864
vt 0.679671 0.551874
vt 0.679671 0.766864
vt 0.685891 0.551874
vt 0.685891 0.766864
vt 0.692112 0.551874
vt 0.692112 0.766864
vt 0.698333 0.551874
vt 0.698333 0.766864
vt 0.704553 0.551874
vt 0.704553 0.766864
vt 0.710774 0.551874
vt 0.710774 0.766864
vt 0.716995 0.551874
vt 0.716995 0.766864
vt 0.723215 0.551874
vt 0.723215 0.766864
vt 0.729436 0.551874
vt 0.729436 0.766864
vt 0.743061 0.551874
vt 0.749281 0.551874
vt 0.749281 0.766864
vt 0.743061 0.766864
vt 0.755502 0.551874
vt 0.755502 0.766864
vt 0.761723 0.551874
vt 0.761723 0.766864
vt 0.767943 0.551874
vt 0.767943 0.766864
vt 0.774164 0.551874
vt 0.774164 0.766864
vt 0.780385 0.551874
vt 0.780385 0.766864
vt 0.786605 0.551874
vt 0.786605 0.766864
vt 0.792826 0.551874
vt 0.792826 0.766864
vt 0.799047 0.551874
vt 0.799047 0.766864
vt 0.805267 0.551874
vt 0.805267 0.766864
vn 0.000000 0.999359 0.035812
vn 0.000000 0.999359 0.035812
vn 0.000000 1.000000 0.000000
vn 0.000000 1.000000 0.000000
vn 0.000000 -1.000000 0.000000
vn 0.000000 -1.000000 0.000000
vn 0.000000 -0.999358 0.035813
vn 0.000000 -0.999358 0.035813
vn 0.999358 0.000000 0.035813
vn 0.999358 0.000000 0.035813
vn 1.000000 0.000000 0.000000
vn 1.000000 0.000000 0.000000
vn -1.000000 0.000000 0.000000
vn -0.999359 0.000000 0.035812
vn -0.999359 0.000000 0.035812
vn -1.000000 0.000000 0.000000
vn 0.021148 -0.021148 0.999553
vn 0.021148 0.021148 0.999553
vn -0.021148 0.021148 0.999553
vn -0.021148 -0.021148 0.999553
vn -0.506570 -0.506569 0.697692
vn 0.506567 -0.506570 0.697694
vn -0.506570 0.506570 0.697691
vn 0.506567 0.506571 0.697693
vn 0.809017 0.000000 -0.587785
vn 0.309016 0.000000 -0.951057
vn 0.309016 0.000000 -0.951057
vn 0.809017 0.000000 -0.587785
vn -0.309016 0.000000 -0.951057
vn -0.309016 0.000000 -0.951057
vn -0.809017 0.000000 -0.587785
vn -0.809017 0.000000 -0.587785
vn -1.000000 0.000000 0.000000
vn -1.000000 0.000000 0.000000
vn -0.809017 0.000000 0.587785
vn -0.809017 0.000000 0.587785
vn -0.309016 0.000000 0.951057
vn -0.309016 0.000000 0.951057
vn 0.309016 0.000000 0.951057
vn 0.309016 0.000000 0.951057
vn 0.809017 0.000000 0.587785
vn 0.809017 0.000000 0.587785
vn 1.000000 0.000000 0.000000
vn 1.000000 0.000000 0.000000
vn 0.809017 0.000000 -0.587785
vn 0.309016 0.000000 -0.951057
vn 0.309016 0.000000 -0.951057
vn 0.809017 0.000000 -0.587785
vn -0.309016 0.000000 -0.951057
vn -0.309016 0.000000 -0.951057
vn -0.809017 0.000000 -0.587785
vn -0.809017 0.000000 -0.587785
vn -1.000000 0.000000 0.000000
vn -1.000000 0.000000 0.000000
vn -0.809017 0.000000 0.587785
vn -0.809017 0.000000 0.587785
vn -0.309016 0.000000 0.951057
vn -0.309016 0.000000 0.951057
vn 0.309016 0.000000 0.951057
vn 0.309016 0.000000 0.951057
vn 0.809017 0.000000 0.587785
vn 0.809017 0.000000 0.587785
vn 1.000000 0.000000 0.000000
vn 1.000000 0.000000 0.000000
vn 0.999300 -0.001520 0.037388
vn 0.999300 -0.001520 0.037388
vn 0.999999 0.000268 0.001621
vn 0.999999 0.000268 0.001621
vn -0.999999 -0.000268 -0.001621
vn -0.999999 -0.000268 -0.001621
vn -0.999415 -0.002056 0.034148
vn -0.999415 -0.002056 0.034148
vn 0.000291 -0.999900 -0.014126
vn 0.000291 -0.999900 -0.014126
vn 0.000349 -0.998753 -0.049926
vn 0.000349 -0.998753 -0.049926
vn -0.000349 0.998753 0.049926
vn -0.000406 0.996324 0.085662
vn -0.000406 0.996324 0.085661
vn -0.000349 0.998753 0.049926
vn -0.022745 -0.071031 0.997215
vn 0.019550 -0.071020 0.997283
vn 0.019535 -0.028778 0.999395
vn -0.022760 -0.028789 0.999326
vn -0.507868 0.470967 0.721291
vn -0.507513 -0.540906 0.670709
vn 0.505274 0.471239 0.722934
vn 0.505627 -0.540633 0.672352
vn 0.000228 -0.778117 -0.628120
vn 0.000275 -0.260709 -0.965417
vn 0.000275 -0.256553 -0.966530
vn 0.000230 -0.769925 -0.638134
vn 0.000196 0.355593 -0.934641
vn 0.000197 0.349973 -0.936760
vn 0.000027 0.836920 -0.547325
vn 0.000031 0.829186 -0.558973
vn -0.000105 0.998750 0.049993
vn -0.000103 0.999439 0.033484
vn -0.000116 0.778155 0.628072
vn -0.000117 0.786087 0.618115
vn -0.000046 0.260770 0.965401
vn -0.000046 0.264820 0.964298
vn 0.000020 -0.355544 0.934660
vn 0.000021 -0.361018 0.932559
vn 0.000064 -0.836912 0.547337
vn 0.000065 -0.844379 0.535747
vn 0.000131 -0.998748 -0.050019
vn 0.000133 -0.997784 -0.066537
vn 0.000251 -0.778112 -0.628125
vn 0.000310 -0.260704 -0.965419
vn 0.000310 -0.256551 -0.966531
vn 0.000253 -0.769928 -0.638130
vn 0.000230 0.355592 -0.934641
vn 0.000231 0.349980 -0.936757
vn 0.000047 0.836920 -0.547326
vn 0.000051 0.829193 -0.558962
vn -0.000106 0.998750 0.049988
vn -0.000104 0.999439 0.033493
vn -0.000139 0.778159 0.628067
vn -0.000140 0.786086 0.618116
vn -0.000081 0.260769 0.965401
vn -0.000082 0.264816 0.964299
vn -0.000014 -0.355544 0.934660
vn -0.000014 -0.361014 0.932560
vn 0.000044 -0.836911 0.547338
vn 0.000045 -0.844371 0.535758
vn 0.000133 -0.998748 -0.050030
vn 0.000136 -0.997784 -0.066533
s 1
g PowerBox_A_S_LOD_0 group2
usemtl lambert3SG
f 11/1/1 14/2/2 2/3/3 1/4/4
f 3/7/5 4/8/6 8/9/7 5/10/8
f 14/13/9 8/14/10 4/15/11 2/16/12
f 3/19/13 5/20/14 11/21/15 1/22/16
f 10/18/17 16/17/18 13/24/19 7/23/20
f 7/23/20 6/11/21 9/12/22 10/18/17
f 6/11/21 5/10/8 8/9/7 9/12/22
f 5/20/14 6/11/21 12/5/23 11/21/15
f 6/11/21 7/23/20 13/24/19 12/5/23
f 10/18/17 9/12/22 15/6/24 16/17/18
f 9/12/22 8/14/10 14/13/9 15/6/24
f 11/1/1 12/5/23 15/6/24 14/2/2
f 12/5/23 13/24/19 16/17/18 15/6/24
s 6
f 17/25/25 18/26/26 28/27/27 27/28/28
f 18/26/26 19/29/29 29/30/30 28/27/27
f 19/29/29 20/31/31 30/32/32 29/30/30
f 20/31/31 21/33/33 31/34/34 30/32/32
f 21/33/33 22/35/35 32/36/36 31/34/34
f 22/35/35 23/37/37 33/38/38 32/36/36
f 23/37/37 24/39/39 34/40/40 33/38/38
f 24/39/39 25/41/41 35/42/42 34/40/40
f 25/41/41 26/43/43 36/44/44 35/42/42
f 26/43/43 17/45/25 27/46/28 36/44/44
s 7
f 37/47/45 38/48/46 48/49/47 47/50/48
f 38/48/46 39/51/49 49/52/50 48/49/47
f 39/51/49 40/53/51 50/54/52 49/52/50
f 40/53/51 41/55/53 51/56/54 50/54/52
f 41/55/53 42/57/55 52/58/56 51/56/54
f 42/57/55 43/59/57 53/60/58 52/58/56
f 43/59/57 44/61/59 54/62/60 53/60/58
f 44/61/59 45/63/61 55/64/62 54/62/60
f 45/63/61 46/65/63 56/66/64 55/64/62
f 46/65/63 37/67/45 47/68/48 56/66/64
s 8
f 67/69/65 70/70/66 58/71/67 57/72/68
f 59/73/69 60/74/70 64/75/71 61/76/72
f 70/77/73 64/78/74 60/79/75 58/80/76
f 59/81/77 61/82/78 67/83/79 57/84/80
f 66/85/81 72/86/82 69/87/83 63/88/84
f 63/88/84 62/89/85 65/90/86 66/85/81
f 62/89/85 61/76/72 64/75/71 65/90/86
f 61/82/78 62/89/85 68/91/87 67/83/79
f 62/89/85 63/88/84 69/87/83 68/91/87
f 66/85/81 65/90/86 71/92/88 72/86/82
f 65/90/86 64/78/74 70/77/73 71/92/88
f 67/69/65 68/91/87 71/92/88 70/70/66
f 68/91/87 69/87/83 72/86/82 71/92/88
s 13
f 73/93/89 74/94/90 84/95/91 83/96/92
f 74/94/90 75/97/93 85/98/94 84/95/91
f 75/97/93 76/99/95 86/100/96 85/98/94
f 76/99/95 77/101/97 87/102/98 86/100/96
f 77/101/97 78/103/99 88/104/100 87/102/98
f 78/103/99 79/105/101 89/106/102 88/104/100
f 79/105/101 80/107/103 90/108/104 89/106/102
f 80/107/103 81/109/105 91/110/106 90/108/104
f 81/109/105 82/111/107 92/112/108 91/110/106
f 82/111/107 73/113/89 83/114/92 92/112/108
s 14
f 93/115/109 94/116/110 104/117/111 103/118/112
f 94/116/110 95/119/113 105/120/114 104/117/111
f 95/119/113 96/121/115 106/122/116 105/120/114
f 96/121/115 97/123/117 107/124/118 106/122/116
f 97/123/117 98/125/119 108/126/120 107/124/118
f 98/125/119 99/127/121 109/128/122 108/126/120
f 99/127/121 100/129/123 110/130/124 109/128/122
f 100/129/123 101/131/125 111/132/126 110/130/124
f 101/131/125 102/133/127 112/134/128 111/132/126
f 102/133/127 93/135/109 103/136/112 112/134/128
