# This file uses centimeters as units for non-parametric coordinates.

mtllib FuseBox_A_LOD_1.mtl
g default
v -0.000000 6.158287 0.000000
v 4.134365 6.158287 0.000000
v -0.000000 -0.000000 0.000000
v 4.134365 -0.000000 0.000000
v 4.134365 6.158287 1.171410
v 0.000000 6.158287 1.171410
v -0.000000 -0.000000 1.171410
v 4.134365 -0.000000 1.171410
v -0.000000 0.186182 1.861289
v 0.186182 -0.000000 1.861289
v 0.186182 0.186182 2.047471
v 3.948183 -0.000000 1.861289
v 4.134365 0.186182 1.861289
v 3.948183 0.186182 2.047471
v 0.186182 6.158287 1.861289
v -0.000000 5.972105 1.861289
v 0.186182 5.972105 2.047471
v 4.134365 5.972105 1.861289
v 3.948183 6.158287 1.861289
v 3.948183 5.972105 2.047471
v -0.000000 5.963281 1.461428
v 0.195006 6.158287 1.461428
v 3.939359 6.158287 1.461428
v 4.134365 5.963281 1.461428
v 0.195006 -0.000000 1.461428
v -0.000000 0.195007 1.461428
v 4.134365 0.195007 1.461428
v 3.939359 -0.000000 1.461428
v 4.326487 6.137721 1.461427
v 4.113799 6.350409 1.461427
v -0.192122 6.137721 1.461427
v 0.020566 6.350409 1.461427
v 4.326487 6.164227 1.171410
v 4.140305 6.350409 1.171410
v -0.192121 6.164227 1.171410
v -0.005939 6.350409 1.171410
v 0.020566 -0.192121 1.461428
v -0.192122 0.020566 1.461428
v -0.005940 -0.192122 1.171410
v -0.192122 -0.005940 1.171410
v 4.326487 0.020566 1.461428
v 4.113799 -0.192121 1.461428
v 4.326487 -0.005940 1.171410
v 4.140305 -0.192122 1.171410
vt 0.010553 0.415495
vt 0.033040 0.417550
vt 0.033040 0.734924
vt 0.010553 0.736979
vt 0.010554 0.401060
vt 0.033040 0.401059
vt 0.033040 0.751415
vt 0.010553 0.751415
vt 0.525887 0.378572
vt 0.523832 0.401059
vt 0.049531 0.401059
vt 0.047476 0.378573
vt 0.540323 0.378572
vt 0.540323 0.401059
vt 0.540323 0.417550
vt 0.562810 0.415495
vt 0.562809 0.736979
vt 0.540323 0.734924
vt 0.562809 0.751415
vt 0.540323 0.751415
vt 0.047476 0.773902
vt 0.049531 0.751415
vt 0.523832 0.751415
vt 0.525887 0.773902
vt 0.365997 0.337054
vt 0.365997 0.016491
vt 0.275171 0.016491
vt 0.275171 0.337054
vt 0.275170 0.814543
vt 0.365997 0.814544
vt 0.630788 0.153381
vt 0.630788 0.601999
vt 0.175430 0.022755
vt 0.175429 0.343318
vt 0.266256 0.343318
vt 0.266257 0.022755
vt 0.266256 0.820808
vt 0.645224 0.616435
vt 0.936915 0.616435
vt 0.175429 0.820808
vt 0.951350 0.616435
vt 0.047936 0.431076
vt 0.047936 0.721399
vt 0.982354 0.601315
vt 0.599784 0.616435
vt 0.063056 0.415956
vt 0.063056 0.736519
vt 0.630788 0.616435
vt 0.599784 0.601315
vt 0.510306 0.415956
vt 0.510306 0.736518
vt 0.645908 0.647439
vt 0.936230 0.647439
vt 0.525426 0.431076
vt 0.525426 0.721398
vt 0.599784 0.154065
vt 0.525426 0.363676
vt 0.951351 0.601999
vt 0.951351 0.153381
vt 0.047937 0.363676
vt 0.033040 0.364137
vt 0.033040 0.042653
vt 0.047937 0.043114
vt 0.047476 0.028217
vt 0.525887 0.028217
vt 0.525426 0.043114
vt 0.540323 0.042653
vt 0.540323 0.364137
vt 0.525426 0.043113
vt 0.047936 0.043113
vt 0.047936 0.363676
vt 0.525426 0.363676
vt 0.936230 0.107941
vt 0.936915 0.138945
vt 0.645223 0.138945
vt 0.645908 0.107942
vt 0.951350 0.107941
vt 0.951350 0.138945
vt 0.936915 0.153381
vt 0.645224 0.153381
vt 0.630788 0.138945
vt 0.630788 0.107942
vt 0.982354 0.154065
vt 0.936915 0.601999
vt 0.645224 0.601999
vt 0.982354 0.616435
vn -0.050716 0.998702 0.004635
vn -0.041997 0.999110 0.003838
vn 0.041997 0.999110 0.003838
vn 0.050716 0.998702 0.004635
vn -0.999396 -0.034611 0.003163
vn -0.999588 -0.028571 0.002611
vn -0.999588 0.028571 0.002611
vn -0.999396 0.034611 0.003163
vn -0.041997 -0.999110 0.003839
vn -0.050716 -0.998702 0.004636
vn 0.050716 -0.998702 0.004636
vn 0.041997 -0.999110 0.003839
vn 0.999396 0.034611 0.003163
vn 0.999588 0.028571 0.002611
vn 0.999588 -0.028571 0.002611
vn 0.999396 -0.034611 0.003163
vn 0.000000 1.000000 0.000000
vn 0.000000 1.000000 0.000000
vn 0.000000 1.000000 0.000000
vn 0.000000 1.000000 0.000000
vn -1.000000 0.000000 0.000000
vn -1.000000 0.000000 0.000000
vn -1.000000 0.000000 0.000000
vn -1.000000 0.000000 0.000000
vn 0.000000 -1.000000 0.000000
vn 0.000000 -1.000000 0.000000
vn 0.000000 -1.000000 0.000000
vn 0.000000 -1.000000 0.000000
vn 1.000000 0.000000 0.000000
vn 1.000000 0.000000 0.000000
vn 1.000000 0.000000 0.000000
vn 1.000000 0.000000 0.000000
vn -0.000000 0.000004 1.000000
vn -0.000000 0.000004 1.000000
vn 0.000000 0.000004 1.000000
vn 0.000000 0.000004 1.000000
vn -0.000004 0.000000 1.000000
vn -0.000004 0.000000 1.000000
vn -0.000004 0.000000 1.000000
vn -0.000004 0.000000 1.000000
vn 0.000000 0.000000 1.000000
vn 0.000000 0.000000 1.000000
vn 0.000000 0.000000 1.000000
vn 0.000000 0.000000 1.000000
vn 0.000004 0.000000 1.000000
vn 0.000004 0.000000 1.000000
vn 0.000004 0.000000 1.000000
vn 0.000004 0.000000 1.000000
vn -0.000000 0.000000 -1.000000
vn -0.000000 0.000000 -1.000000
vn -0.000000 0.000000 -1.000000
vn -0.000000 0.000000 -1.000000
vn -0.000000 0.000000 -1.000000
vn -0.000000 0.000000 -1.000000
vn -0.000000 0.000000 -1.000000
vn -0.000000 0.000000 -1.000000
vn -0.000000 0.000000 -1.000000
vn -0.000000 0.000000 -1.000000
vn -0.000000 0.000000 -1.000000
vn -0.000000 0.000000 -1.000000
vn -0.000000 0.000000 -1.000000
vn -0.000000 0.000000 -1.000000
vn -0.000000 0.000000 -1.000000
vn -0.000000 0.000000 -1.000000
vn 0.047186 -0.998886 -0.001042
vn 0.037213 -0.953659 0.298579
vn -0.037213 -0.953659 0.298579
vn -0.047186 -0.998886 -0.001042
vn 0.046151 -0.030179 0.998479
vn 0.046151 0.030179 0.998479
vn -0.046151 0.030179 0.998479
vn -0.046151 -0.030179 0.998479
vn -0.999513 -0.031191 -0.000688
vn -0.953319 -0.024508 0.300971
vn -0.953319 0.024508 0.300970
vn -0.999513 0.031191 -0.000688
vn 0.999513 0.031191 -0.000688
vn 0.953318 0.024508 0.300971
vn 0.953318 -0.024508 0.300971
vn 0.999513 -0.031191 -0.000688
vn -0.047186 0.998886 -0.001041
vn -0.037213 0.953659 0.298579
vn 0.037213 0.953659 0.298579
vn 0.047186 0.998886 -0.001041
s 1
g PowerBox_A_LOD_1 group2
usemtl lambert3SG
f 36/1/1 32/2/2 30/3/3 34/4/4
f 40/9/5 38/10/6 31/11/7 35/12/8
f 37/15/9 39/16/10 44/17/11 42/18/12
f 33/21/13 29/22/14 41/23/15 43/24/16
s off
f 6/25/17 5/26/18 2/27/19 1/28/20
f 3/29/21 7/30/22 6/25/23 1/28/24
f 3/33/25 4/34/26 8/35/27 7/36/28
f 5/37/29 8/35/30 4/34/31 2/40/32
s 3
f 32/2/33 22/42/34 23/43/35 30/3/36
f 38/10/37 26/50/38 21/46/39 31/11/40
f 42/18/41 28/55/42 25/54/43 37/15/44
f 29/22/45 24/47/46 27/51/47 41/23/48
s 6
f 7/57/49 40/9/50 35/12/51 6/60/52 36/61/53 34/62/54 5/63/55 33/64/56 43/65/57 8/66/58 44/67/59 39/68/60 8/69/61 5/70/62 6/71/63 7/72/64
s 7
f 28/73/65 12/74/66 10/75/67 25/76/68
f 14/79/69 20/84/70 17/85/71 11/80/72
f 26/56/73 9/31/74 16/32/75 21/49/76
f 24/44/77 18/58/78 13/59/79 27/83/80
f 22/52/81 15/38/82 19/39/83 23/53/84
f 25/76/68 10/75/67 9/81/74 26/82/73
f 14/79/69 11/80/72 10/75/67 12/74/66
f 16/32/75 9/31/74 11/80/72 17/85/71
f 27/77/80 13/78/79 12/74/66 28/73/65
f 20/84/70 14/79/69 13/59/79 18/58/78
f 21/49/76 16/32/75 15/48/82 22/45/81
f 19/39/83 15/38/82 17/85/71 20/84/70
f 23/86/84 19/41/83 18/58/78 24/44/77
s 3
f 31/11/40 21/46/39 22/42/34 32/2/33
f 30/3/36 23/43/35 24/47/46 29/22/45
f 37/15/44 25/54/43 26/50/38 38/10/37
f 41/23/48 27/51/47 28/55/42 42/18/41
s 1
f 34/4/4 30/3/3 29/7/14 33/8/13
f 35/5/8 31/6/7 32/2/2 36/1/1
f 39/13/10 37/14/9 38/10/6 40/9/5
f 43/19/16 41/20/15 42/18/12 44/17/11
s 6
f 5/63/55 34/62/54 33/64/56
f 6/60/52 35/12/51 36/61/53
f 7/57/49 39/68/60 40/9/50
f 8/66/58 43/65/57 44/67/59
s 7
f 10/75/67 11/80/72 9/81/74
f 12/74/66 13/78/79 14/79/69
f 17/85/71 15/38/82 16/32/75
f 20/84/70 18/58/78 19/39/83
