# This file uses centimeters as units for non-parametric coordinates.

mtllib FuseMeter_B_LOD_01.mtl
g default
v 0.050071 -0.248795 0.565780
v 0.201247 -0.097619 0.565780
v 0.050071 -0.248795 0.366936
v 0.201247 -0.097619 0.366936
v 0.503658 -0.097619 0.565780
v 0.654833 -0.248795 0.565780
v 0.654833 -0.248795 0.366936
v 0.503658 -0.097619 0.366936
v 0.201247 -0.702381 0.565780
v 0.050071 -0.551205 0.565780
v 0.201247 -0.702381 0.366936
v 0.050071 -0.551205 0.366936
v 0.654833 -0.551205 0.565780
v 0.503658 -0.702381 0.565780
v 0.654833 -0.551205 0.366936
v 0.503658 -0.702381 0.366936
v -0.047548 -0.752452 0.000000
v -0.000000 -0.800000 0.000000
v -0.047548 -0.752452 0.366936
v -0.000000 -0.800000 0.366936
v 0.704905 -0.800000 0.000000
v 0.752452 -0.752452 0.000000
v 0.704905 -0.800000 0.366936
v 0.752452 -0.752452 0.366936
v -0.000000 -0.000000 0.000000
v -0.047548 -0.047548 0.000000
v -0.000000 -0.000000 0.366936
v -0.047548 -0.047548 0.366936
v 0.752452 -0.047548 0.000000
v 0.704905 -0.000000 0.000000
v 0.752452 -0.047548 0.366936
v 0.704905 -0.000000 0.366936
v 0.050071 -1.109583 0.565780
v 0.201247 -0.958407 0.565780
v 0.050071 -1.109583 0.366936
v 0.201247 -0.958407 0.366936
v 0.503658 -0.958407 0.565780
v 0.654833 -1.109583 0.565780
v 0.654833 -1.109583 0.366936
v 0.503658 -0.958407 0.366936
v 0.201247 -1.563169 0.565780
v 0.050071 -1.411994 0.565780
v 0.201247 -1.563169 0.366936
v 0.050071 -1.411994 0.366936
v 0.654833 -1.411994 0.565780
v 0.503658 -1.563169 0.565780
v 0.654833 -1.411994 0.366936
v 0.503658 -1.563169 0.366936
v -0.047548 -1.613240 0.000000
v -0.000000 -1.660788 0.000000
v -0.047548 -1.613240 0.366936
v -0.000000 -1.660788 0.366936
v 0.704905 -1.660788 0.000000
v 0.752452 -1.613240 0.000000
v 0.704905 -1.660788 0.366936
v 0.752452 -1.613240 0.366936
v -0.000000 -0.860788 0.000000
v -0.047548 -0.908336 0.000000
v -0.000000 -0.860788 0.366936
v -0.047548 -0.908336 0.366936
v 0.752452 -0.908336 0.000000
v 0.704905 -0.860788 0.000000
v 0.752452 -0.908336 0.366936
v 0.704905 -0.860788 0.366936
vt 0.125778 0.175539
vt 0.086716 0.175539
vt 0.086716 0.116132
vt 0.125778 0.116132
vt 0.086716 0.205237
vt 0.125778 0.205237
vt 0.086716 0.086434
vt 0.125778 0.086434
vt 0.086717 0.294342
vt 0.125779 0.294342
vt 0.125780 0.353749
vt 0.086718 0.353750
vt 0.086716 0.264644
vt 0.125778 0.264644
vt 0.086718 0.383447
vt 0.125780 0.383447
vt 0.086715 0.027027
vt 0.125777 0.027026
vt 0.285528 0.021587
vt 0.245994 0.040764
vt 0.186586 0.040764
vt 0.147052 0.021587
vt 0.294868 0.169403
vt 0.275692 0.129869
vt 0.187942 0.042583
vt 0.187942 0.156924
vt 0.159360 0.128341
vt 0.159360 0.071165
vt 0.245118 0.042583
vt 0.245118 0.156924
vt 0.273701 0.128341
vt 0.273701 0.071165
vt 0.078949 0.176388
vt 0.006866 0.176388
vt 0.006866 0.037912
vt 0.078949 0.037912
vt 0.078949 0.185728
vt 0.006866 0.185728
vt 0.078949 0.028572
vt 0.006866 0.028572
vt 0.078949 0.324204
vt 0.006866 0.324204
vt 0.294868 0.030927
vt 0.275692 0.070461
vt 0.078949 0.333544
vt 0.006866 0.333544
vt 0.078948 0.472020
vt 0.006864 0.472020
vt 0.156889 0.129869
vt 0.137712 0.169403
vt 0.078947 0.481361
vt 0.006864 0.481360
vt 0.137712 0.030927
vt 0.156889 0.070461
vt 0.078946 0.619836
vt 0.006863 0.619836
vt 0.186586 0.159566
vt 0.245994 0.159566
vt 0.285528 0.178743
vt 0.147052 0.178743
vt 0.422071 0.175539
vt 0.383009 0.175539
vt 0.383009 0.116132
vt 0.422071 0.116132
vt 0.383017 0.294344
vt 0.422079 0.294340
vt 0.422085 0.353747
vt 0.383023 0.353751
vt 0.383008 0.027027
vt 0.422070 0.027026
vt 0.422071 0.086434
vt 0.383009 0.086434
vt 0.422076 0.264642
vt 0.383014 0.264646
vt 0.383009 0.205238
vt 0.422071 0.205236
vt 0.484235 0.042583
vt 0.484235 0.156924
vt 0.455653 0.128341
vt 0.455653 0.071165
vt 0.383026 0.383449
vt 0.422088 0.383445
vt 0.375242 0.176388
vt 0.303159 0.176388
vt 0.303159 0.037912
vt 0.375242 0.037912
vt 0.375242 0.324204
vt 0.303159 0.324204
vt 0.303159 0.185728
vt 0.375242 0.185728
vt 0.375240 0.472020
vt 0.303157 0.472020
vt 0.303159 0.333544
vt 0.375242 0.333544
vt 0.303157 0.481360
vt 0.375240 0.481361
vt 0.375239 0.619836
vt 0.303156 0.619836
vt 0.375242 0.028572
vt 0.303159 0.028572
vt 0.482879 0.159566
vt 0.542287 0.159566
vt 0.581821 0.178743
vt 0.443345 0.178743
vt 0.453182 0.070461
vt 0.453182 0.129869
vt 0.434005 0.169403
vt 0.434005 0.030927
vt 0.542287 0.040764
vt 0.482879 0.040764
vt 0.443345 0.021587
vt 0.581821 0.021587
vt 0.571985 0.129869
vt 0.571985 0.070461
vt 0.591161 0.030927
vt 0.591161 0.169403
vt 0.569994 0.128341
vt 0.541411 0.156924
vt 0.541411 0.042583
vt 0.569994 0.071165
vn 0.000000 1.000000 0.000000
vn 0.000000 1.000000 0.000000
vn 0.000000 1.000000 0.000000
vn 0.000000 1.000000 0.000000
vn 0.000000 -1.000000 0.000000
vn 0.000000 -1.000000 0.000000
vn 0.000000 -1.000000 0.000000
vn 0.000000 -1.000000 0.000000
vn 1.000000 0.000000 0.000000
vn 1.000000 0.000000 0.000000
vn 1.000000 0.000000 0.000000
vn 1.000000 0.000000 0.000000
vn -1.000000 0.000000 0.000000
vn -1.000000 0.000000 0.000000
vn -1.000000 0.000000 0.000000
vn -1.000000 0.000000 0.000000
vn 0.000001 0.000000 1.000000
vn 0.000001 0.000000 1.000000
vn 0.000001 0.000000 1.000000
vn 0.000001 0.000000 1.000000
vn -0.707106 0.707107 0.000000
vn -0.707106 0.707107 0.000000
vn -0.707106 0.707107 0.000000
vn -0.707106 0.707107 0.000000
vn 0.707106 0.707107 0.000000
vn 0.707106 0.707107 0.000000
vn 0.707106 0.707107 0.000000
vn 0.707106 0.707107 0.000000
vn -0.707106 -0.707107 0.000000
vn -0.707106 -0.707107 0.000000
vn -0.707106 -0.707107 0.000000
vn -0.707106 -0.707107 0.000000
vn 0.707106 -0.707107 0.000000
vn 0.707106 -0.707107 0.000000
vn 0.707106 -0.707107 0.000000
vn 0.707106 -0.707107 0.000000
vn 0.923882 0.382678 0.000000
vn 0.923882 0.382678 0.000000
vn 0.923882 -0.382678 0.000000
vn 0.923882 -0.382678 0.000000
vn -0.382680 0.923881 0.000000
vn -0.382680 0.923881 0.000000
vn 0.382688 0.923877 0.000000
vn 0.382688 0.923877 0.000000
vn -0.923878 -0.382686 0.000000
vn -0.923878 -0.382686 0.000000
vn -0.923878 0.382686 0.000000
vn -0.923878 0.382686 0.000000
vn -0.382680 -0.923881 0.000000
vn -0.382680 -0.923881 0.000000
vn 0.382688 -0.923877 0.000000
vn 0.382688 -0.923877 0.000000
vn -0.000000 0.000000 1.000000
vn 0.000000 0.000000 1.000000
vn 0.000000 0.000000 1.000000
vn -0.000000 0.000000 1.000000
vn 0.000001 0.000000 1.000000
vn 0.000000 0.000000 1.000000
vn 0.000000 0.000000 1.000000
vn 0.000001 0.000000 1.000000
vn 0.000000 0.000000 1.000000
vn 0.000000 0.000000 1.000000
vn 0.000000 0.000000 1.000000
vn 0.000000 0.000000 1.000000
vn -0.000001 0.000000 1.000000
vn -0.000000 0.000000 1.000000
vn -0.000000 0.000000 1.000000
vn -0.000001 0.000000 1.000000
vn 0.000000 0.000000 1.000000
vn 0.000000 0.000000 1.000000
vn 0.000000 0.000000 1.000000
vn 0.000000 0.000000 1.000000
vn 0.000000 0.000000 1.000000
vn 0.000000 0.000000 1.000000
vn 0.000000 0.000000 1.000000
vn 0.000000 0.000000 1.000000
vn 0.000000 1.000000 0.000000
vn 0.000000 1.000000 0.000000
vn 0.000000 1.000000 0.000000
vn 0.000000 1.000000 0.000000
vn 0.000000 -1.000000 0.000000
vn 0.000000 -1.000000 0.000000
vn 0.000000 -1.000000 0.000000
vn 0.000000 -1.000000 0.000000
vn 1.000000 0.000000 0.000000
vn 1.000000 0.000000 0.000000
vn 1.000000 0.000000 0.000000
vn 1.000000 0.000000 0.000000
vn -1.000000 0.000000 0.000000
vn -1.000000 0.000000 0.000000
vn -1.000000 0.000000 0.000000
vn -1.000000 0.000000 0.000000
vn -0.000001 0.000000 1.000000
vn -0.000001 0.000000 1.000000
vn -0.000001 0.000000 1.000000
vn -0.000001 0.000000 1.000000
vn -0.707106 0.707107 0.000000
vn -0.707106 0.707107 0.000000
vn -0.707106 0.707107 0.000000
vn -0.707106 0.707107 0.000000
vn 0.707106 0.707107 0.000000
vn 0.707106 0.707107 0.000000
vn 0.707106 0.707107 0.000000
vn 0.707106 0.707107 0.000000
vn -0.707106 -0.707107 0.000000
vn -0.707106 -0.707107 0.000000
vn -0.707106 -0.707107 0.000000
vn -0.707106 -0.707107 0.000000
vn 0.707106 -0.707107 0.000000
vn 0.707106 -0.707107 0.000000
vn 0.707106 -0.707107 0.000000
vn 0.707106 -0.707107 0.000000
vn 0.923882 0.382679 0.000000
vn 0.923882 0.382679 0.000000
vn 0.923882 -0.382679 0.000000
vn 0.923882 -0.382679 0.000000
vn -0.382680 0.923881 0.000000
vn -0.382680 0.923881 0.000000
vn 0.382688 0.923878 0.000000
vn 0.382688 0.923878 0.000000
vn -0.923878 -0.382687 0.000000
vn -0.923878 -0.382687 0.000000
vn -0.923878 0.382687 0.000000
vn -0.923878 0.382687 0.000000
vn -0.382680 -0.923881 0.000000
vn -0.382680 -0.923881 0.000000
vn 0.382688 -0.923878 0.000000
vn 0.382688 -0.923878 0.000000
vn -0.000000 0.000000 1.000000
vn 0.000000 0.000000 1.000000
vn 0.000000 0.000000 1.000000
vn -0.000000 0.000000 1.000000
vn 0.000001 0.000000 1.000000
vn 0.000000 0.000000 1.000000
vn 0.000000 0.000000 1.000000
vn 0.000001 0.000000 1.000000
vn 0.000000 0.000000 1.000000
vn 0.000000 0.000000 1.000000
vn 0.000000 0.000000 1.000000
vn 0.000000 0.000000 1.000000
vn -0.000001 0.000000 1.000000
vn -0.000000 0.000000 1.000000
vn -0.000000 0.000000 1.000000
vn -0.000001 0.000000 1.000000
vn 0.000001 0.000000 1.000000
vn 0.000001 0.000000 1.000000
vn 0.000001 0.000000 1.000000
vn 0.000001 0.000000 1.000000
vn 0.000000 0.000000 1.000000
vn 0.000000 0.000000 1.000000
vn 0.000000 0.000000 1.000000
vn 0.000000 0.000000 1.000000
s off
g PowerMeter_A_LOD_1 group2
usemtl lambert3SG
f 4/1/1 2/2/2 5/3/3 8/4/4
f 9/9/5 11/10/6 16/11/7 14/12/8
f 13/17/9 15/18/10 7/8/11 6/7/12
f 12/14/13 10/13/14 1/5/15 3/6/16
f 5/25/17 14/26/18 13/27/19 6/28/20
f 1/5/21 2/2/22 4/1/23 3/6/24
f 5/3/25 6/7/26 7/8/27 8/4/28
f 9/9/29 10/13/30 12/14/31 11/10/32
f 13/15/33 14/12/34 16/11/35 15/16/36
s 1
f 29/33/37 31/34/38 24/35/39 22/36/40
f 25/41/41 27/42/42 32/38/43 30/37/44
f 17/47/45 19/48/46 28/46/47 26/45/48
f 20/52/49 18/51/50 21/55/51 23/56/52
f 17/47/45 18/51/50 20/52/49 19/48/46
f 21/39/51 22/36/40 24/35/39 23/40/52
f 25/41/41 26/45/48 28/46/47 27/42/42
f 29/33/37 30/37/44 32/38/43 31/34/38
s 4
f 4/57/53 8/58/54 32/59/55 27/60/56
f 12/54/57 3/49/58 28/50/59 19/53/60
f 16/20/61 11/21/62 20/22/63 23/19/64
f 7/24/65 15/44/66 24/43/67 31/23/68
f 32/59/55 8/58/54 7/24/65 31/23/68
f 24/43/67 15/44/66 16/20/61 23/19/64
f 12/54/57 19/53/60 20/22/63 11/21/62
f 28/50/59 3/49/58 4/57/53 27/60/56
s off
f 10/31/69 9/30/70 2/29/71 1/32/72
f 2/29/73 9/30/74 14/26/75 5/25/76
f 36/61/77 34/62/78 37/63/79 40/64/80
f 41/65/81 43/66/82 48/67/83 46/68/84
f 45/69/85 47/70/86 39/71/87 38/72/88
f 44/73/89 42/74/90 33/75/91 35/76/92
f 37/77/93 46/78/94 45/79/95 38/80/96
f 33/75/97 34/62/98 36/61/99 35/76/100
f 37/63/101 38/72/102 39/71/103 40/64/104
f 41/65/105 42/74/106 44/73/107 43/66/108
f 45/81/109 46/68/110 48/67/111 47/82/112
s 5
f 61/83/113 63/84/114 56/85/115 54/86/116
f 57/87/117 59/88/118 64/89/119 62/90/120
f 49/91/121 51/92/122 60/93/123 58/94/124
f 52/95/125 50/96/126 53/97/127 55/98/128
f 49/91/121 50/96/126 52/95/125 51/92/122
f 53/99/127 54/86/116 56/85/115 55/100/128
f 57/87/117 58/94/124 60/93/123 59/88/118
f 61/83/113 62/90/120 64/89/119 63/84/114
s 8
f 36/101/129 40/102/130 64/103/131 59/104/132
f 44/105/133 35/106/134 60/107/135 51/108/136
f 48/109/137 43/110/138 52/111/139 55/112/140
f 39/113/141 47/114/142 56/115/143 63/116/144
f 64/103/131 40/102/130 39/113/141 63/116/144
f 56/115/143 47/114/142 48/109/137 55/112/140
f 44/105/133 51/108/136 52/111/139 43/110/138
f 60/107/135 35/106/134 36/101/129 59/104/132
s off
f 42/117/145 41/118/146 34/119/147 33/120/148
f 34/119/149 41/118/150 46/78/151 37/77/152
