# This file uses centimeters as units for non-parametric coordinates.

mtllib FuseMeter_B_LOD_1.mtl
g default
v -0.170080 -0.608143 -0.239849
v 0.629921 -0.608143 -0.239849
v -0.170080 -1.408143 -0.239849
v 0.629921 -1.408143 -0.239849
v -0.170080 -1.408143 0.114215
v 0.629921 -1.408143 0.114215
v -0.170080 -0.608143 0.114215
v 0.629921 -0.608143 0.114215
v 0.065022 -0.608143 -0.089495
v -0.000000 -0.608143 -0.110622
v -0.040186 -0.608143 -0.055311
v -0.000000 -0.608143 0.000000
v 0.065022 -0.608143 -0.021127
v 0.065022 -0.000000 -0.089495
v -0.000000 -0.000000 -0.110622
v -0.040186 -0.000000 -0.055311
v -0.000000 -0.000000 0.000000
v 0.065022 -0.000000 -0.021127
v 0.314891 -0.608143 -0.110622
v 0.249869 -0.608143 -0.089495
v 0.249869 -0.608143 -0.021127
v 0.314891 -0.608143 0.000000
v 0.355077 -0.608143 -0.055311
v 0.314891 -0.000000 -0.110622
v 0.249869 -0.000000 -0.089495
v 0.249869 -0.000000 -0.021127
v 0.314891 -0.000000 0.000000
v 0.355077 -0.000000 -0.055311
vt 0.955583 0.418189
vt 0.955583 0.328034
vt 0.995483 0.328034
vt 0.995483 0.418189
vt 0.820220 0.418189
vt 0.820220 0.328034
vt 0.860120 0.328034
vt 0.860120 0.418189
vt 0.952929 0.325381
vt 0.862774 0.325381
vt 0.862774 0.285480
vt 0.952929 0.285480
vt 0.862774 0.460744
vt 0.862774 0.420843
vt 0.952929 0.420843
vt 0.952929 0.460744
vt 0.667229 0.343979
vt 0.667229 0.437522
vt 0.679671 0.343979
vt 0.679671 0.437522
vt 0.692112 0.343979
vt 0.692112 0.437522
vt 0.704553 0.343979
vt 0.704553 0.437522
vt 0.716995 0.343979
vt 0.716995 0.437522
vt 0.729436 0.343979
vt 0.729436 0.437522
vt 0.749281 0.343979
vt 0.749281 0.437522
vt 0.761723 0.343979
vt 0.761723 0.437522
vt 0.774164 0.343979
vt 0.774164 0.437522
vt 0.786605 0.343979
vt 0.786605 0.437522
vt 0.799047 0.343979
vt 0.799047 0.437522
vn 0.000000 1.000000 0.000000
vn 0.000000 1.000000 0.000000
vn 0.000000 1.000000 0.000000
vn 0.000000 1.000000 0.000000
vn 0.000000 -1.000000 0.000000
vn 0.000000 -1.000000 0.000000
vn 0.000000 -1.000000 0.000000
vn 0.000000 -1.000000 0.000000
vn 1.000000 0.000000 0.000000
vn 1.000000 0.000000 0.000000
vn 1.000000 0.000000 0.000000
vn 1.000000 0.000000 0.000000
vn -1.000000 0.000000 0.000000
vn -1.000000 0.000000 0.000000
vn -1.000000 0.000000 0.000000
vn -1.000000 0.000000 0.000000
vn 0.000000 0.000000 1.000000
vn 0.000000 0.000000 1.000000
vn 0.000000 0.000000 1.000000
vn 0.000000 0.000000 1.000000
vn -0.309017 0.000000 -0.951057
vn 0.809017 0.000000 -0.587785
vn 0.809017 0.000000 -0.587785
vn -0.309017 0.000000 -0.951057
vn -1.000000 0.000000 0.000000
vn -1.000000 0.000000 0.000000
vn -0.309017 0.000000 0.951057
vn -0.309017 0.000000 0.951057
vn 0.809017 0.000000 0.587785
vn 0.809017 0.000000 0.587785
vn -0.809017 0.000000 -0.587785
vn 0.309017 0.000000 -0.951056
vn 0.309017 0.000000 -0.951056
vn -0.809017 0.000000 -0.587785
vn -0.809017 0.000000 0.587785
vn -0.809017 0.000000 0.587785
vn 0.309017 0.000000 0.951057
vn 0.309017 0.000000 0.951057
vn 1.000000 0.000000 0.000000
vn 1.000000 0.000000 0.000000
s off
g PowerBox_B_S_LOD_1 group2
usemtl lambert3SG
f 7/1/1 8/2/2 2/3/3 1/4/4
f 3/5/5 4/6/6 6/7/7 5/8/8
f 8/9/9 6/10/10 4/11/11 2/12/12
f 3/13/13 5/14/14 7/15/15 1/16/16
f 7/15/17 5/8/18 6/10/19 8/2/20
s 1
f 15/20/21 14/18/22 9/17/23 10/19/24
f 16/22/25 15/20/21 10/19/24 11/21/26
f 17/24/27 16/22/25 11/21/26 12/23/28
f 18/26/29 17/24/27 12/23/28 13/25/30
f 14/28/22 18/26/29 13/25/30 9/27/23
s 2
f 25/32/31 24/30/32 19/29/33 20/31/34
f 26/34/35 25/32/31 20/31/34 21/33/36
f 27/36/37 26/34/35 21/33/36 22/35/38
f 28/38/39 27/36/37 22/35/38 23/37/40
f 24/30/32 28/38/39 23/37/40 19/29/33
