# This file uses centimeters as units for non-parametric coordinates.

mtllib FuseMeter_B1_LOD_1.mtl
g default
v 0.097619 -0.201247 0.565780
v 0.248795 -0.050072 0.565780
v 0.097619 -0.201247 0.366936
v 0.248795 -0.050072 0.366936
v 0.551205 -0.050072 0.565780
v 0.702381 -0.201247 0.565780
v 0.702381 -0.201247 0.366936
v 0.551205 -0.050072 0.366936
v 0.248795 -0.654833 0.565780
v 0.097619 -0.503658 0.565780
v 0.248795 -0.654833 0.366936
v 0.097619 -0.503658 0.366936
v 0.702381 -0.503658 0.565780
v 0.551205 -0.654833 0.565780
v 0.702381 -0.503658 0.366936
v 0.551205 -0.654833 0.366936
v -0.000000 -0.704905 -0.000000
v 0.047548 -0.752452 -0.000000
v -0.000000 -0.704905 0.366936
v 0.047548 -0.752452 0.366936
v 0.752452 -0.752452 -0.000000
v 0.800000 -0.704905 -0.000000
v 0.752452 -0.752452 0.366936
v 0.800000 -0.704905 0.366936
v 0.047548 0.047548 -0.000000
v -0.000000 -0.000000 -0.000000
v 0.047548 0.047548 0.366936
v -0.000000 -0.000000 0.366936
v 0.800000 -0.000000 -0.000000
v 0.752452 0.047548 -0.000000
v 0.800000 -0.000000 0.366936
v 0.752452 0.047548 0.366936
vt 0.184085 0.686428
vt 0.223147 0.686428
vt 0.223147 0.745835
vt 0.184085 0.745835
vt 0.223147 0.656730
vt 0.184085 0.656730
vt 0.223147 0.775533
vt 0.184085 0.775533
vt 0.223146 0.567625
vt 0.184084 0.567625
vt 0.184083 0.508218
vt 0.223145 0.508217
vt 0.223147 0.597322
vt 0.184085 0.597323
vt 0.223145 0.478519
vt 0.184083 0.478520
vt 0.223148 0.834940
vt 0.184086 0.834940
vt 0.162811 0.683224
vt 0.123277 0.702400
vt 0.063869 0.702400
vt 0.024335 0.683223
vt 0.172151 0.831040
vt 0.152974 0.791506
vt 0.065225 0.704220
vt 0.065225 0.818560
vt 0.036643 0.789978
vt 0.036643 0.732802
vt 0.122401 0.704220
vt 0.122401 0.818560
vt 0.150984 0.789978
vt 0.150984 0.732802
vt 0.230914 0.685579
vt 0.302997 0.685579
vt 0.302997 0.824055
vt 0.230914 0.824055
vt 0.230914 0.676239
vt 0.302997 0.676239
vt 0.230914 0.833395
vt 0.302997 0.833395
vt 0.230914 0.537763
vt 0.302997 0.537763
vt 0.172151 0.692564
vt 0.152974 0.732098
vt 0.230914 0.528422
vt 0.302997 0.528423
vt 0.230915 0.389947
vt 0.302998 0.389947
vt 0.034172 0.791505
vt 0.014995 0.831040
vt 0.230916 0.380606
vt 0.302999 0.380607
vt 0.014995 0.692564
vt 0.034172 0.732098
vt 0.230917 0.242131
vt 0.303000 0.242131
vt 0.063869 0.821203
vt 0.123277 0.821203
vt 0.162811 0.840380
vt 0.024335 0.840380
vn 0.000000 1.000000 0.000000
vn 0.000000 1.000000 0.000000
vn 0.000000 1.000000 0.000000
vn 0.000000 1.000000 0.000000
vn 0.000000 -1.000000 0.000000
vn 0.000000 -1.000000 0.000000
vn 0.000000 -1.000000 0.000000
vn 0.000000 -1.000000 0.000000
vn 1.000000 0.000000 0.000000
vn 1.000000 0.000000 0.000000
vn 1.000000 0.000000 0.000000
vn 1.000000 0.000000 0.000000
vn -1.000000 0.000000 0.000000
vn -1.000000 0.000000 0.000000
vn -1.000000 0.000000 0.000000
vn -1.000000 0.000000 0.000000
vn 0.000001 0.000000 1.000000
vn 0.000001 0.000000 1.000000
vn 0.000001 0.000000 1.000000
vn 0.000001 0.000000 1.000000
vn -0.707107 0.707107 0.000000
vn -0.707107 0.707107 0.000000
vn -0.707107 0.707107 0.000000
vn -0.707107 0.707107 0.000000
vn 0.707107 0.707107 0.000000
vn 0.707107 0.707107 0.000000
vn 0.707107 0.707107 0.000000
vn 0.707107 0.707107 0.000000
vn -0.707107 -0.707107 0.000000
vn -0.707107 -0.707107 0.000000
vn -0.707107 -0.707107 0.000000
vn -0.707107 -0.707107 0.000000
vn 0.707107 -0.707107 0.000000
vn 0.707107 -0.707107 0.000000
vn 0.707107 -0.707107 0.000000
vn 0.707107 -0.707107 0.000000
vn 0.923880 0.382683 0.000000
vn 0.923880 0.382683 0.000000
vn 0.923880 -0.382683 0.000000
vn 0.923880 -0.382683 0.000000
vn -0.382683 0.923880 0.000000
vn -0.382683 0.923880 0.000000
vn 0.382684 0.923879 0.000000
vn 0.382684 0.923879 0.000000
vn -0.923879 -0.382684 0.000000
vn -0.923879 -0.382684 0.000000
vn -0.923879 0.382684 0.000000
vn -0.923879 0.382684 0.000000
vn -0.382683 -0.923880 0.000000
vn -0.382683 -0.923880 0.000000
vn 0.382684 -0.923879 0.000000
vn 0.382684 -0.923879 0.000000
vn -0.000000 0.000000 1.000000
vn -0.000000 0.000000 1.000000
vn -0.000000 0.000000 1.000000
vn -0.000000 0.000000 1.000000
vn -0.000000 0.000000 1.000000
vn -0.000000 0.000000 1.000000
vn -0.000000 0.000000 1.000000
vn -0.000000 0.000000 1.000000
vn 0.000000 0.000000 1.000000
vn 0.000000 0.000000 1.000000
vn 0.000000 0.000000 1.000000
vn 0.000000 0.000000 1.000000
vn 0.000000 0.000000 1.000000
vn 0.000000 0.000000 1.000000
vn 0.000000 0.000000 1.000000
vn 0.000000 0.000000 1.000000
vn -0.000001 0.000000 1.000000
vn -0.000001 0.000000 1.000000
vn -0.000001 0.000000 1.000000
vn -0.000001 0.000000 1.000000
vn 0.000000 0.000000 1.000000
vn 0.000000 0.000000 1.000000
vn 0.000000 0.000000 1.000000
vn 0.000000 0.000000 1.000000
s off
g PowerMeter_B_LOD_1 group2
usemtl lambert3SG
f 4/1/1 2/2/2 5/3/3 8/4/4
f 9/9/5 11/10/6 16/11/7 14/12/8
f 13/17/9 15/18/10 7/8/11 6/7/12
f 12/14/13 10/13/14 1/5/15 3/6/16
f 5/25/17 14/26/18 13/27/19 6/28/20
f 1/5/21 2/2/22 4/1/23 3/6/24
f 5/3/25 6/7/26 7/8/27 8/4/28
f 9/9/29 10/13/30 12/14/31 11/10/32
f 13/15/33 14/12/34 16/11/35 15/16/36
s 1
f 29/33/37 31/34/38 24/35/39 22/36/40
f 25/41/41 27/42/42 32/38/43 30/37/44
f 17/47/45 19/48/46 28/46/47 26/45/48
f 20/52/49 18/51/50 21/55/51 23/56/52
f 17/47/45 18/51/50 20/52/49 19/48/46
f 21/39/51 22/36/40 24/35/39 23/40/52
f 25/41/41 26/45/48 28/46/47 27/42/42
f 29/33/37 30/37/44 32/38/43 31/34/38
s 4
f 4/57/53 8/58/54 32/59/55 27/60/56
f 12/54/57 3/49/58 28/50/59 19/53/60
f 16/20/61 11/21/62 20/22/63 23/19/64
f 7/24/65 15/44/66 24/43/67 31/23/68
f 32/59/55 8/58/54 7/24/65 31/23/68
f 24/43/67 15/44/66 16/20/61 23/19/64
f 12/54/57 19/53/60 20/22/63 11/21/62
f 28/50/59 3/49/58 4/57/53 27/60/56
s off
f 10/31/69 9/30/70 2/29/71 1/32/72
f 2/29/73 9/30/74 14/26/75 5/25/76
