# This file uses centimeters as units for non-parametric coordinates.

mtllib FuseBox_A_LOD_0.mtl
g default
v -0.000000 6.158287 0.000000
v 4.134365 6.158287 0.000000
v -0.000000 -0.000000 0.000000
v 4.134365 -0.000000 0.000000
v 4.134365 6.158287 1.171411
v 0.000000 6.158287 1.171411
v -0.000000 -0.000000 1.171411
v 4.134365 -0.000000 1.171411
v -0.000000 0.186182 1.861289
v 0.024944 0.093091 1.861289
v 0.093091 0.024944 1.861289
v 0.186182 -0.000000 1.861289
v 0.185179 0.024946 1.954375
v 0.185681 0.093093 2.022527
v 0.186182 0.186182 2.047471
v 0.093093 0.185681 2.022527
v 0.024946 0.185180 1.954375
v 3.948183 -0.000000 1.861289
v 4.041274 0.024944 1.861289
v 4.109422 0.093091 1.861289
v 4.134365 0.186182 1.861289
v 4.109420 0.185180 1.954375
v 4.041272 0.185681 2.022527
v 3.948183 0.186182 2.047471
v 3.948685 0.093093 2.022527
v 3.949186 0.024946 1.954375
v 0.186182 6.158287 1.861289
v 0.093091 6.133344 1.861289
v 0.024944 6.065196 1.861289
v -0.000000 5.972105 1.861289
v 0.024946 5.973108 1.954375
v 0.093093 5.972606 2.022527
v 0.186182 5.972105 2.047471
v 0.185681 6.065194 2.022527
v 0.185179 6.133342 1.954375
v 4.134365 5.972105 1.861289
v 4.109422 6.065196 1.861289
v 4.041274 6.133344 1.861289
v 3.948183 6.158287 1.861289
v 3.949186 6.133342 1.954375
v 3.948685 6.065194 2.022527
v 3.948183 5.972105 2.047471
v 4.041272 5.972606 2.022527
v 4.109420 5.973108 1.954375
v 0.097503 6.132161 1.461428
v 0.026126 6.060784 1.461428
v -0.000000 5.963281 1.461428
v 0.195006 6.158287 1.461428
v 4.108239 6.060784 1.461428
v 4.036862 6.132161 1.461428
v 3.939359 6.158287 1.461428
v 4.134365 5.963281 1.461428
v 0.026126 0.097503 1.461428
v 0.097503 0.026126 1.461428
v 0.195006 -0.000000 1.461428
v -0.000000 0.195007 1.461428
v 4.036862 0.026126 1.461428
v 4.108239 0.097503 1.461428
v 4.134365 0.195007 1.461428
v 3.939359 -0.000000 1.461428
v 4.326487 6.137721 1.461427
v 4.297992 6.244065 1.461427
v 4.220143 6.321914 1.461427
v 4.113799 6.350409 1.461427
v -0.192122 6.137721 1.461427
v -0.163627 6.244065 1.461427
v -0.085778 6.321914 1.461427
v 0.020566 6.350409 1.461427
v 4.326487 6.164227 1.171411
v 4.194836 6.218758 1.171411
v 4.140305 6.350409 1.171411
v 4.233396 6.325465 1.171411
v 4.301543 6.257318 1.171411
v -0.192121 6.164227 1.171411
v -0.167178 6.257318 1.171411
v -0.099030 6.325465 1.171411
v -0.005939 6.350409 1.171411
v -0.060471 6.218758 1.171411
v 0.020566 -0.192121 1.461428
v -0.085778 -0.163627 1.461428
v -0.163627 -0.085778 1.461428
v -0.192122 0.020566 1.461428
v -0.005940 -0.192122 1.171411
v -0.099030 -0.167178 1.171411
v -0.167178 -0.099030 1.171411
v -0.192122 -0.005940 1.171411
v -0.060471 -0.060471 1.171411
v 4.326487 0.020566 1.461428
v 4.297992 -0.085778 1.461428
v 4.220143 -0.163627 1.461428
v 4.113799 -0.192121 1.461428
v 4.326487 -0.005940 1.171411
v 4.301543 -0.099030 1.171411
v 4.233396 -0.167178 1.171411
v 4.140305 -0.192122 1.171411
v 4.194836 -0.060471 1.171411
v 0.046365 0.098860 1.948120
v 0.098860 0.046365 1.948120
v 0.099023 0.099023 2.000906
v 4.035505 0.046365 1.948120
v 4.088000 0.098860 1.948120
v 4.035342 0.099023 2.000906
v 0.098860 6.111922 1.948120
v 0.046365 6.059427 1.948120
v 0.099023 6.059264 2.000906
v 4.088000 6.059427 1.948120
v 4.035505 6.111922 1.948120
v 4.035342 6.059264 2.000906
vt 0.030837 0.727304
vt 0.009136 0.725321
vt 0.009136 0.419030
vt 0.030837 0.417046
vt 0.506475 0.741236
vt 0.504492 0.762938
vt 0.046753 0.762938
vt 0.044769 0.741236
vt 0.542108 0.725321
vt 0.520407 0.727304
vt 0.520407 0.417046
vt 0.542108 0.419030
vt 0.044769 0.403114
vt 0.046753 0.381413
vt 0.504492 0.381413
vt 0.506475 0.403114
vt 0.177881 0.336026
vt 0.177881 0.026657
vt 0.265537 0.026657
vt 0.265537 0.336027
vt 0.265529 0.796844
vt 0.177874 0.796842
vt 0.359060 0.026513
vt 0.359058 0.335882
vt 0.271403 0.335882
vt 0.271405 0.026513
vt 0.271403 0.796699
vt 0.359058 0.796699
vt 0.030837 0.059206
vt 0.045214 0.072259
vt 0.045214 0.352444
vt 0.030837 0.365498
vt 0.045214 0.417491
vt 0.045214 0.726860
vt 0.040689 0.731385
vt 0.040689 0.412966
vt 0.504492 0.043291
vt 0.491438 0.057667
vt 0.059806 0.057667
vt 0.046753 0.043291
vt 0.506031 0.726860
vt 0.510556 0.731385
vt 0.506031 0.417491
vt 0.510556 0.412966
vt 0.520407 0.365498
vt 0.506031 0.352444
vt 0.506031 0.072259
vt 0.520407 0.059206
vt 0.059806 0.367037
vt 0.491438 0.367037
vt 0.928580 0.110160
vt 0.929240 0.140081
vt 0.647735 0.140081
vt 0.648395 0.110160
vt 0.929240 0.159112
vt 0.929240 0.592065
vt 0.647735 0.592065
vt 0.647735 0.159112
vt 0.598783 0.159772
vt 0.628704 0.159112
vt 0.628704 0.592065
vt 0.598783 0.591405
vt 0.978192 0.591405
vt 0.948271 0.592065
vt 0.948271 0.159112
vt 0.978192 0.159772
vt 0.648395 0.641017
vt 0.647735 0.611096
vt 0.929240 0.611096
vt 0.928580 0.641017
vt 0.640769 0.140081
vt 0.641099 0.110160
vt 0.635669 0.140081
vt 0.635758 0.110160
vt 0.628704 0.152146
vt 0.598783 0.152476
vt 0.647697 0.152146
vt 0.929278 0.152146
vt 0.647660 0.147047
vt 0.929316 0.147047
vt 0.635669 0.159037
vt 0.635669 0.592140
vt 0.640769 0.159074
vt 0.640769 0.592103
vt 0.948271 0.152146
vt 0.978192 0.152476
vt 0.941306 0.140081
vt 0.936206 0.140081
vt 0.935876 0.110160
vt 0.941217 0.110160
vt 0.936206 0.159074
vt 0.936206 0.592103
vt 0.941306 0.159037
vt 0.941306 0.592140
vt 0.628704 0.599031
vt 0.598783 0.598701
vt 0.628704 0.604131
vt 0.598783 0.604042
vt 0.640769 0.611096
vt 0.641099 0.641017
vt 0.647660 0.604131
vt 0.929316 0.604130
vt 0.647697 0.599031
vt 0.929278 0.599031
vt 0.936206 0.611096
vt 0.935876 0.641017
vt 0.948271 0.604131
vt 0.948271 0.599031
vt 0.978192 0.598701
vt 0.978192 0.604042
vt 0.052510 0.059622
vt 0.038795 0.045423
vt 0.047169 0.064963
vt 0.032970 0.051248
vt 0.047169 0.359740
vt 0.032970 0.373455
vt 0.052510 0.365082
vt 0.038795 0.379280
vt 0.504076 0.064963
vt 0.518274 0.051249
vt 0.498734 0.059622
vt 0.512449 0.045423
vt 0.498734 0.365082
vt 0.512449 0.379281
vt 0.504076 0.359741
vt 0.518274 0.373455
vt 0.009136 0.411072
vt 0.030837 0.410080
vt 0.009136 0.405247
vt 0.030837 0.404981
vt 0.038795 0.381413
vt 0.037803 0.403114
vt 0.038795 0.762938
vt 0.037803 0.741236
vt 0.009136 0.739104
vt 0.009136 0.733279
vt 0.030837 0.734270
vt 0.030837 0.739370
vt 0.542108 0.733279
vt 0.520407 0.734270
vt 0.518274 0.762938
vt 0.512449 0.762938
vt 0.513441 0.741236
vt 0.518540 0.741236
vt 0.512449 0.381413
vt 0.513441 0.403114
vt 0.542108 0.405247
vt 0.542108 0.411072
vt 0.520407 0.410080
vt 0.520407 0.404981
vt 0.032704 0.410080
vt 0.037803 0.404981
vt 0.037803 0.739370
vt 0.032704 0.734270
vt 0.518540 0.734270
vt 0.513441 0.739370
vt 0.513441 0.404981
vt 0.518540 0.410080
vt 0.635201 0.152578
vt 0.637272 0.146578
vt 0.641200 0.146578
vt 0.641213 0.150528
vt 0.641213 0.152590
vt 0.637272 0.152578
vt 0.935775 0.146578
vt 0.939703 0.146578
vt 0.941774 0.152578
vt 0.939703 0.152578
vt 0.935763 0.152590
vt 0.935763 0.150528
vt 0.641201 0.604599
vt 0.635202 0.602528
vt 0.635202 0.598599
vt 0.637272 0.598599
vt 0.641213 0.598587
vt 0.641200 0.602528
vt 0.941774 0.598599
vt 0.941774 0.602528
vt 0.935775 0.604598
vt 0.935775 0.602528
vt 0.935763 0.598587
vt 0.939703 0.598599
vn -0.007079 0.999975 0.000647
vn -0.005664 0.999984 0.000518
vn 0.005664 0.999984 0.000518
vn 0.007079 0.999975 0.000647
vn -0.999988 -0.004788 0.000437
vn -0.999993 -0.003825 0.000349
vn -0.999993 0.003825 0.000349
vn -0.999988 0.004789 0.000437
vn -0.005664 -0.999984 0.000518
vn -0.007079 -0.999975 0.000647
vn 0.007079 -0.999975 0.000647
vn 0.005664 -0.999984 0.000518
vn 0.999988 0.004789 0.000437
vn 0.999993 0.003825 0.000349
vn 0.999993 -0.003825 0.000349
vn 0.999988 -0.004789 0.000437
vn 0.000000 1.000000 0.000000
vn 0.000000 1.000000 0.000000
vn 0.000000 1.000000 0.000000
vn 0.000000 1.000000 0.000000
vn -1.000000 0.000000 0.000000
vn -1.000000 0.000000 0.000000
vn -1.000000 0.000000 0.000000
vn -1.000000 0.000000 0.000000
vn 0.000000 -1.000000 0.000000
vn 0.000000 -1.000000 0.000000
vn 0.000000 -1.000000 0.000000
vn 0.000000 -1.000000 0.000000
vn 1.000000 0.000000 0.000000
vn 1.000000 0.000000 0.000000
vn 1.000000 0.000000 0.000000
vn 1.000000 0.000000 0.000000
vn -0.000000 0.000001 1.000000
vn -0.000000 0.000001 1.000000
vn 0.000000 0.000001 1.000000
vn 0.000000 0.000001 1.000000
vn -0.000000 -0.000000 -1.000000
vn 0.000000 -0.000000 -1.000000
vn 0.000000 -0.000000 -1.000000
vn -0.000000 -0.000001 -1.000000
vn -0.000000 -0.000001 -1.000000
vn -0.000000 -0.000000 -1.000000
vn -0.000001 0.000000 1.000000
vn -0.000001 0.000000 1.000000
vn -0.000001 0.000000 1.000000
vn -0.000001 0.000000 1.000000
vn 0.000000 -0.000000 -1.000000
vn 0.000000 -0.000000 -1.000000
vn 0.000001 -0.000000 -1.000000
vn 0.000001 -0.000000 -1.000000
vn -0.000000 -0.000000 -1.000000
vn -0.000000 -0.000000 -1.000000
vn 0.000000 -0.000000 -1.000000
vn 0.000000 -0.000000 -1.000000
vn 0.000000 0.000000 1.000000
vn 0.000000 0.000000 1.000000
vn 0.000000 0.000000 1.000000
vn 0.000000 0.000000 1.000000
vn 0.000001 0.000000 1.000000
vn 0.000001 0.000000 1.000000
vn 0.000001 0.000000 1.000000
vn 0.000001 0.000000 1.000000
vn -0.000000 -0.000000 -1.000000
vn -0.000000 -0.000000 -1.000000
vn 0.006459 -0.999979 -0.000143
vn 0.006593 -0.998667 0.051191
vn -0.006593 -0.998667 0.051191
vn -0.006459 -0.999979 -0.000143
vn 0.006479 -0.004245 0.999970
vn 0.006479 0.004245 0.999970
vn -0.006479 0.004245 0.999970
vn -0.006479 -0.004245 0.999970
vn -0.999991 -0.004232 -0.000093
vn -0.998676 -0.004321 0.051261
vn -0.998676 0.004321 0.051261
vn -0.999991 0.004232 -0.000093
vn 0.999991 0.004232 -0.000093
vn 0.998676 0.004321 0.051262
vn 0.998676 -0.004321 0.051262
vn 0.999991 -0.004232 -0.000093
vn -0.006459 0.999979 -0.000143
vn -0.006592 0.998667 0.051191
vn 0.006592 0.998667 0.051191
vn 0.006459 0.999979 -0.000143
vn -0.496912 -0.867159 0.033363
vn -0.498833 -0.866660 -0.008066
vn -0.867160 -0.496911 0.033363
vn -0.866661 -0.498833 -0.008067
vn -0.005162 -0.500293 0.865841
vn 0.005162 -0.500293 0.865841
vn -0.005212 -0.866071 0.499895
vn 0.005212 -0.866071 0.499895
vn -0.865979 -0.003414 0.500070
vn -0.865978 0.003414 0.500070
vn -0.500466 -0.003381 0.865749
vn -0.500467 0.003381 0.865749
vn 0.867160 -0.496911 0.033363
vn 0.866661 -0.498832 -0.008067
vn 0.496912 -0.867159 0.033363
vn 0.498834 -0.866660 -0.008066
vn 0.500467 -0.003381 0.865749
vn 0.500467 0.003381 0.865749
vn 0.865978 -0.003414 0.500070
vn 0.865978 0.003414 0.500070
vn -0.867160 0.496911 0.033364
vn -0.866661 0.498832 -0.008066
vn -0.496911 0.867160 0.033364
vn -0.498832 0.866661 -0.008066
vn -0.005212 0.866070 0.499895
vn 0.005212 0.866070 0.499895
vn -0.005162 0.500291 0.865842
vn 0.005162 0.500291 0.865842
vn 0.496911 0.867160 0.033363
vn 0.498833 0.866661 -0.008067
vn 0.867160 0.496910 0.033363
vn 0.866661 0.498831 -0.008067
vn -0.000001 0.000000 1.000000
vn -0.000001 0.000000 1.000000
vn -0.000000 0.000001 1.000000
vn -0.000000 0.000001 1.000000
vn 0.000001 0.000001 1.000000
vn 0.000001 0.000001 1.000000
vn 0.000001 0.000000 1.000000
vn 0.000001 0.000000 1.000000
vn 0.000000 0.000000 1.000000
vn 0.000000 0.000000 1.000000
vn 0.000000 0.000000 1.000000
vn 0.000000 0.000000 1.000000
vn -0.000000 0.000000 1.000000
vn 0.000000 0.000000 1.000000
vn 0.000000 0.000000 1.000000
vn 0.000000 0.000000 1.000000
vn 0.494977 0.868270 0.033251
vn 0.504503 0.862755 0.033618
vn 0.868270 0.494977 0.033250
vn 0.862755 0.504504 0.033618
vn -0.868271 0.494975 0.033250
vn -0.862755 0.504502 0.033617
vn -0.494976 0.868270 0.033251
vn -0.504502 0.862756 0.033619
vn -0.494977 -0.868270 0.033250
vn -0.504503 -0.862755 0.033618
vn -0.868270 -0.494976 0.033250
vn -0.862755 -0.504503 0.033618
vn 0.868269 -0.494978 0.033250
vn 0.862754 -0.504504 0.033618
vn 0.494977 -0.868269 0.033250
vn 0.504504 -0.862755 0.033618
vn 0.000001 -0.000001 -1.000000
vn -0.000001 -0.000000 -1.000000
vn 0.000001 -0.000000 -1.000000
vn -0.000001 -0.000001 -1.000000
vn 0.000000 0.000000 -1.000000
vn 0.000000 0.000000 -1.000000
vn 0.000000 0.000000 -1.000000
vn 0.000000 0.000000 -1.000000
vn -0.809248 -0.416907 0.413892
vn -0.416907 -0.809248 0.413892
vn -0.415939 -0.415938 0.808697
vn 0.416907 -0.809248 0.413891
vn 0.809247 -0.416908 0.413892
vn 0.415940 -0.415937 0.808696
vn -0.416908 0.809247 0.413892
vn -0.809247 0.416906 0.413893
vn -0.415940 0.415938 0.808696
vn 0.809248 0.416907 0.413893
vn 0.416907 0.809247 0.413893
vn 0.415939 0.415938 0.808697
s 1
g PowerBox_A_LOD_0 group2
usemtl lambert3SG
f 77/1/1 68/2/2 64/3/3 71/4/4
f 86/5/5 82/6/6 65/7/7 74/8/8
f 79/9/9 83/10/10 95/11/11 91/12/12
f 69/13/13 61/14/14 88/15/15 92/16/16
s off
f 6/17/17 5/18/18 2/19/19 1/20/20
f 3/21/21 7/22/22 6/17/23 1/20/24
f 3/23/25 4/24/26 8/25/27 7/26/28
f 5/27/29 8/25/30 4/24/31 2/28/32
s 5
f 68/29/33 48/30/34 51/31/35 64/32/36
s 6
f 5/33/37 6/34/38 78/35/39 77/1/40 71/4/41 70/36/42
s 5
f 82/37/43 56/38/44 47/39/45 65/40/46
s 6
f 6/34/38 7/41/47 87/42/48 86/5/49 74/8/50 78/35/39
f 7/41/47 8/43/51 96/44/52 95/11/53 83/10/54 87/42/48
s 5
f 91/45/55 60/46/56 55/47/57 79/48/58
f 61/14/59 52/49/60 59/50/61 88/15/62
s 6
f 8/43/51 5/33/37 70/36/42 69/13/63 92/16/64 96/44/52
s 10
f 60/51/65 18/52/66 12/53/67 55/54/68
f 24/55/69 42/56/70 33/57/71 15/58/72
f 56/59/73 9/60/74 30/61/75 47/62/76
f 52/63/77 36/64/78 21/65/79 59/66/80
f 48/67/81 27/68/82 39/69/83 51/70/84
f 12/53/67 11/71/85 54/72/86 55/54/68
f 11/71/85 10/73/87 53/74/88 54/72/86
f 10/75/87 9/60/74 56/59/73 53/76/88
f 15/58/72 14/77/89 25/78/90 24/55/69
f 14/77/89 13/79/91 26/80/92 25/78/90
f 13/79/91 12/53/67 18/52/66 26/80/92
f 9/60/74 17/81/93 31/82/94 30/61/75
f 17/81/93 16/83/95 32/84/96 31/82/94
f 16/83/95 15/58/72 33/57/71 32/84/96
f 21/65/79 20/85/97 58/86/98 59/66/80
f 20/87/97 19/88/99 57/89/100 58/90/98
f 19/88/99 18/52/66 60/51/65 57/89/100
f 24/55/69 23/91/101 43/92/102 42/56/70
f 23/91/101 22/93/103 44/94/104 43/92/102
f 22/93/103 21/65/79 36/64/78 44/94/104
f 30/61/75 29/95/105 46/96/106 47/62/76
f 29/95/105 28/97/107 45/98/108 46/96/106
f 28/99/107 27/68/82 48/67/81 45/100/108
f 27/68/82 35/101/109 40/102/110 39/69/83
f 35/101/109 34/103/111 41/104/112 40/102/110
f 34/103/111 33/57/71 42/56/70 41/104/112
f 39/69/83 38/105/113 50/106/114 51/70/84
f 38/107/113 37/108/115 49/109/116 50/110/114
f 37/108/115 36/64/78 52/63/77 49/109/116
s 5
f 47/39/45 46/111/117 66/112/118 65/40/46
f 46/111/117 45/113/119 67/114/120 66/112/118
f 45/113/119 48/30/34 68/29/33 67/114/120
f 51/31/35 50/115/121 63/116/122 64/32/36
f 50/115/121 49/117/123 62/118/124 63/116/122
f 49/117/123 52/49/60 61/14/59 62/118/124
f 55/47/57 54/119/125 80/120/126 79/48/58
f 54/119/125 53/121/127 81/122/128 80/120/126
f 53/121/127 56/38/44 82/37/43 81/122/128
f 59/50/61 58/123/129 89/124/130 88/15/62
f 58/123/129 57/125/131 90/126/132 89/124/130
f 57/125/131 60/46/56 91/45/55 90/126/132
s 1
f 64/3/3 63/127/133 72/128/134 71/4/4
f 63/127/133 62/129/135 73/130/136 72/128/134
f 62/131/135 61/14/14 69/13/13 73/132/136
f 65/7/7 66/133/137 75/134/138 74/8/8
f 66/135/137 67/136/139 76/137/140 75/138/138
f 67/136/139 68/2/2 77/1/1 76/137/140
f 79/9/9 80/139/141 84/140/142 83/10/10
f 80/141/141 81/142/143 85/143/144 84/144/142
f 81/142/143 82/6/6 86/5/5 85/143/144
f 88/15/15 89/145/145 93/146/146 92/16/16
f 89/147/145 90/148/147 94/149/148 93/150/146
f 90/148/147 91/12/12 95/11/11 94/149/148
s 6
f 70/36/42 71/4/41 72/151/149
f 70/36/42 72/151/149 73/152/150
f 70/36/42 73/152/150 69/13/63
f 78/35/39 74/8/50 75/153/151
f 78/35/39 75/153/151 76/154/152
f 78/35/39 76/154/152 77/1/40
f 87/42/48 83/10/54 84/155/153
f 87/42/48 84/155/153 85/156/154
f 87/42/48 85/156/154 86/5/49
f 96/44/52 92/16/64 93/157/155
f 96/44/52 93/157/155 94/158/156
f 96/44/52 94/158/156 95/11/53
s 10
f 17/81/93 9/60/74 10/75/87 97/159/157
f 97/160/157 10/73/87 11/71/85 98/161/158
f 11/71/85 12/53/67 13/79/91 98/161/158
f 98/161/158 13/79/91 14/77/89 99/162/159
f 14/77/89 15/58/72 16/83/95 99/163/159
f 99/163/159 16/83/95 17/81/93 97/164/157
f 97/160/157 98/161/158 99/162/159
f 26/80/92 18/52/66 19/88/99 100/165/160
f 100/165/160 19/88/99 20/87/97 101/166/161
f 20/85/97 21/65/79 22/93/103 101/167/161
f 101/168/161 22/93/103 23/91/101 102/169/162
f 23/91/101 24/55/69 25/78/90 102/169/162
f 102/170/162 25/78/90 26/80/92 100/165/160
f 100/165/160 101/166/161 102/170/162
f 35/101/109 27/68/82 28/99/107 103/171/163
f 103/172/163 28/97/107 29/95/105 104/173/164
f 29/95/105 30/61/75 31/82/94 104/173/164
f 104/174/164 31/82/94 32/84/96 105/175/165
f 32/84/96 33/57/71 34/103/111 105/175/165
f 105/175/165 34/103/111 35/101/109 103/176/163
f 103/176/163 104/174/164 105/175/165
f 44/94/104 36/64/78 37/108/115 106/177/166
f 106/177/166 37/108/115 38/107/113 107/178/167
f 38/105/113 39/69/83 40/102/110 107/179/167
f 107/180/167 40/102/110 41/104/112 108/181/168
f 41/104/112 42/56/70 43/92/102 108/181/168
f 108/181/168 43/92/102 44/94/104 106/182/166
f 106/182/166 107/180/167 108/181/168
