# This file uses centimeters as units for non-parametric coordinates.

mtllib FuseMeter_B_LOD_0.mtl
g default
v -0.170080 -0.608143 -0.239849
v 0.629921 -0.608143 -0.239849
v -0.170080 -1.408143 -0.239849
v 0.629921 -1.408143 -0.239849
v -0.170080 -1.408143 0.114215
v -0.151357 -1.389420 0.156483
v -0.116938 -1.355001 0.167356
v 0.629921 -1.408143 0.114215
v 0.611198 -1.389420 0.156483
v 0.576779 -1.355001 0.167356
v -0.170080 -0.608143 0.114215
v -0.151357 -0.626865 0.156483
v -0.116938 -0.661284 0.167356
v 0.629921 -0.608143 0.114215
v 0.611198 -0.626865 0.156483
v 0.576779 -0.661284 0.167356
v 0.065022 -0.608143 -0.089495
v 0.035943 -0.608143 -0.110622
v -0.000000 -0.608143 -0.110622
v -0.029079 -0.608143 -0.089495
v -0.040186 -0.608143 -0.055311
v -0.029079 -0.608143 -0.021127
v -0.000000 -0.608143 0.000000
v 0.035943 -0.608143 0.000000
v 0.065022 -0.608143 -0.021127
v 0.076129 -0.608143 -0.055311
v 0.065022 -0.000000 -0.089495
v 0.035943 -0.000000 -0.110622
v -0.000000 -0.000000 -0.110622
v -0.029079 -0.000000 -0.089495
v -0.040186 -0.000000 -0.055311
v -0.029079 -0.000000 -0.021127
v -0.000000 -0.000000 0.000000
v 0.035943 -0.000000 0.000000
v 0.065022 -0.000000 -0.021127
v 0.076129 -0.000000 -0.055311
v 0.343970 -0.608143 -0.089495
v 0.314891 -0.608143 -0.110622
v 0.278948 -0.608143 -0.110622
v 0.249869 -0.608143 -0.089495
v 0.238762 -0.608143 -0.055311
v 0.249869 -0.608143 -0.021127
v 0.278948 -0.608143 0.000000
v 0.314891 -0.608143 0.000000
v 0.343970 -0.608143 -0.021127
v 0.355077 -0.608143 -0.055311
v 0.343970 -0.000000 -0.089495
v 0.314891 -0.000000 -0.110622
v 0.278948 -0.000000 -0.110622
v 0.249869 -0.000000 -0.089495
v 0.238762 -0.000000 -0.055311
v 0.249869 -0.000000 -0.021127
v 0.278948 -0.000000 0.000000
v 0.314891 -0.000000 0.000000
v 0.343970 -0.000000 -0.021127
v 0.355077 -0.000000 -0.055311
vt 0.955583 0.418189
vt 0.955583 0.328034
vt 0.995483 0.328034
vt 0.995483 0.418189
vt 0.950819 0.416080
vt 0.950819 0.330144
vt 0.820220 0.418189
vt 0.820220 0.328034
vt 0.860120 0.328034
vt 0.860120 0.418189
vt 0.864884 0.416080
vt 0.864884 0.330144
vt 0.952929 0.325381
vt 0.862774 0.325381
vt 0.862774 0.285480
vt 0.952929 0.285480
vt 0.946940 0.334023
vt 0.868763 0.334023
vt 0.862774 0.460744
vt 0.862774 0.420843
vt 0.952929 0.420843
vt 0.952929 0.460744
vt 0.868763 0.412201
vt 0.946940 0.412201
vt 0.667229 0.343979
vt 0.673450 0.343979
vt 0.673450 0.437522
vt 0.667229 0.437522
vt 0.679671 0.343979
vt 0.679671 0.437522
vt 0.685891 0.343979
vt 0.685891 0.437522
vt 0.692112 0.343979
vt 0.692112 0.437522
vt 0.698333 0.343979
vt 0.698333 0.437522
vt 0.704553 0.343979
vt 0.704553 0.437522
vt 0.710774 0.343979
vt 0.710774 0.437522
vt 0.716995 0.343979
vt 0.716995 0.437522
vt 0.723215 0.343979
vt 0.723215 0.437522
vt 0.729436 0.343979
vt 0.729436 0.437522
vt 0.743061 0.343979
vt 0.749281 0.343979
vt 0.749281 0.437522
vt 0.743061 0.437522
vt 0.755502 0.343979
vt 0.755502 0.437522
vt 0.761723 0.343979
vt 0.761723 0.437522
vt 0.767943 0.343979
vt 0.767943 0.437522
vt 0.774164 0.343979
vt 0.774164 0.437522
vt 0.780385 0.343979
vt 0.780385 0.437522
vt 0.786605 0.343979
vt 0.786605 0.437522
vt 0.792826 0.343979
vt 0.792826 0.437522
vt 0.799047 0.343979
vt 0.799047 0.437522
vt 0.805267 0.343979
vt 0.805267 0.437522
vn 0.000000 0.978346 0.206977
vn 0.000000 0.978346 0.206977
vn 0.000000 1.000000 0.000000
vn 0.000000 1.000000 0.000000
vn 0.000000 -1.000000 0.000000
vn 0.000000 -1.000000 0.000000
vn 0.000000 -0.978346 0.206977
vn 0.000000 -0.978346 0.206977
vn 0.978346 0.000000 0.206977
vn 0.978346 0.000000 0.206977
vn 1.000000 0.000000 0.000000
vn 1.000000 0.000000 0.000000
vn -1.000000 0.000000 0.000000
vn -0.978346 0.000000 0.206976
vn -0.978346 0.000000 0.206976
vn -1.000000 0.000000 0.000000
vn 0.102527 -0.102527 0.989432
vn 0.102527 0.102527 0.989432
vn -0.102527 0.102527 0.989432
vn -0.102527 -0.102527 0.989432
vn -0.378064 -0.378064 0.845065
vn 0.378064 -0.378064 0.845065
vn -0.378064 0.378064 0.845065
vn 0.378064 0.378064 0.845065
vn 0.809017 0.000000 -0.587785
vn 0.309017 0.000000 -0.951057
vn 0.309017 0.000000 -0.951057
vn 0.809017 0.000000 -0.587785
vn -0.309017 0.000000 -0.951056
vn -0.309017 0.000000 -0.951056
vn -0.809017 0.000000 -0.587785
vn -0.809017 0.000000 -0.587785
vn -1.000000 0.000000 0.000000
vn -1.000000 0.000000 0.000000
vn -0.809017 0.000000 0.587786
vn -0.809017 0.000000 0.587786
vn -0.309017 0.000000 0.951056
vn -0.309017 0.000000 0.951056
vn 0.309017 0.000000 0.951057
vn 0.309017 0.000000 0.951057
vn 0.809017 0.000000 0.587785
vn 0.809017 0.000000 0.587785
vn 1.000000 0.000000 0.000000
vn 1.000000 0.000000 0.000000
vn 0.809017 0.000000 -0.587785
vn 0.309017 0.000000 -0.951057
vn 0.309017 0.000000 -0.951057
vn 0.809017 0.000000 -0.587785
vn -0.309017 0.000000 -0.951056
vn -0.309017 0.000000 -0.951056
vn -0.809017 0.000000 -0.587785
vn -0.809017 0.000000 -0.587785
vn -1.000000 0.000000 0.000000
vn -1.000000 0.000000 0.000000
vn -0.809017 0.000000 0.587785
vn -0.809017 0.000000 0.587785
vn -0.309017 0.000000 0.951056
vn -0.309017 0.000000 0.951056
vn 0.309017 0.000000 0.951057
vn 0.309017 0.000000 0.951057
vn 0.809017 0.000000 0.587785
vn 0.809017 0.000000 0.587785
vn 1.000000 0.000000 0.000000
vn 1.000000 0.000000 0.000000
s 1
g PowerBox_B_S_LOD_0 group2
usemtl lambert3SG
f 11/1/1 14/2/2 2/3/3 1/4/4
f 3/7/5 4/8/6 8/9/7 5/10/8
f 14/13/9 8/14/10 4/15/11 2/16/12
f 3/19/13 5/20/14 11/21/15 1/22/16
f 10/18/17 16/17/18 13/24/19 7/23/20
f 7/23/20 6/11/21 9/12/22 10/18/17
f 6/11/21 5/10/8 8/9/7 9/12/22
f 5/20/14 6/11/21 12/5/23 11/21/15
f 6/11/21 7/23/20 13/24/19 12/5/23
f 10/18/17 9/12/22 15/6/24 16/17/18
f 9/12/22 8/14/10 14/13/9 15/6/24
f 11/1/1 12/5/23 15/6/24 14/2/2
f 12/5/23 13/24/19 16/17/18 15/6/24
s 6
f 17/25/25 18/26/26 28/27/27 27/28/28
f 18/26/26 19/29/29 29/30/30 28/27/27
f 19/29/29 20/31/31 30/32/32 29/30/30
f 20/31/31 21/33/33 31/34/34 30/32/32
f 21/33/33 22/35/35 32/36/36 31/34/34
f 22/35/35 23/37/37 33/38/38 32/36/36
f 23/37/37 24/39/39 34/40/40 33/38/38
f 24/39/39 25/41/41 35/42/42 34/40/40
f 25/41/41 26/43/43 36/44/44 35/42/42
f 26/43/43 17/45/25 27/46/28 36/44/44
s 7
f 37/47/45 38/48/46 48/49/47 47/50/48
f 38/48/46 39/51/49 49/52/50 48/49/47
f 39/51/49 40/53/51 50/54/52 49/52/50
f 40/53/51 41/55/53 51/56/54 50/54/52
f 41/55/53 42/57/55 52/58/56 51/56/54
f 42/57/55 43/59/57 53/60/58 52/58/56
f 43/59/57 44/61/59 54/62/60 53/60/58
f 44/61/59 45/63/61 55/64/62 54/62/60
f 45/63/61 46/65/63 56/66/64 55/64/62
f 46/65/63 37/67/45 47/68/48 56/66/64
