# This file uses centimeters as units for non-parametric coordinates.

mtllib Pipe_Bend_A_LOD_1.mtl
g default
v 0.023998 5.462098 0.023052
v 0.489101 5.404714 -1.108315
v 1.611959 5.266177 -1.576946
v 2.734816 5.127640 -1.108315
v 3.199917 5.070256 0.023052
v 2.734816 5.127640 1.154427
v 1.611958 5.266177 1.623055
v 0.489101 5.404714 1.154427
v 0.000000 0.000000 0.000000
v 0.476767 0.000000 -1.127968
v 1.611485 0.000000 -1.588432
v 2.739450 0.000000 -1.111664
v 3.199917 0.000000 0.023052
v 2.723148 0.000000 1.151020
v 1.588430 0.000000 1.611485
v 0.460464 0.000000 1.134716
v 0.223186 0.000000 0.001606
v 0.633450 0.000000 -0.969013
v 1.609877 0.000000 -1.365246
v 2.580496 0.000000 -0.954983
v 2.976727 0.000000 0.021446
v 2.566467 0.000000 0.992065
v 1.590038 0.000000 1.388298
v 0.619421 0.000000 0.978035
v 0.223186 0.816207 0.001606
v 1.599957 0.816207 0.011528
v 0.633450 0.816207 -0.969013
v 1.609877 0.816207 -1.365246
v 2.580496 0.816207 -0.954983
v 2.976727 0.816207 0.021446
v 2.566467 0.816207 0.992065
v 1.590038 0.816207 1.388294
v 0.619421 0.816207 0.978035
v 2.857267 5.729069 -1.108315
v 1.769632 6.040595 -1.576946
v 0.681997 6.352121 -1.108315
v 0.231482 6.481159 0.023052
v 0.681995 6.352121 1.154427
v 1.769632 6.040596 1.623055
v 2.857267 5.729070 1.154427
v 3.307781 5.600031 0.023052
v 3.071791 6.304129 -1.108315
v 2.045858 6.781058 -1.576946
v 1.019924 7.257987 -1.108315
v 0.594969 7.455538 0.023052
v 1.019924 7.257988 1.154427
v 2.045856 6.781058 1.623055
v 3.071791 6.304130 1.154427
v 3.496746 6.106579 0.023052
v 3.373159 6.838816 -1.108315
v 2.433908 7.469536 -1.576946
v 1.494658 8.100256 -1.108315
v 1.105608 8.361509 0.023052
v 1.494658 8.100256 1.154427
v 2.433908 7.469536 1.623055
v 3.373159 6.838817 1.154427
v 3.762209 6.577563 0.023052
v 3.754038 7.320112 -1.108315
v 2.924337 8.089266 -1.576946
v 2.094637 8.858420 -1.108315
v 1.750965 9.177015 0.023052
v 2.094637 8.858420 1.154427
v 2.924337 8.089266 1.623055
v 3.754038 7.320112 1.154427
v 4.097710 7.001518 0.023052
v 4.205150 7.736298 -1.108315
v 3.505203 8.625158 -1.576946
v 2.805256 9.514019 -1.108315
v 2.515327 9.882198 0.023052
v 2.805256 9.514020 1.154427
v 3.505201 8.625159 1.623055
v 4.205150 7.736298 1.154427
v 4.495077 7.368120 0.023052
v 4.715513 8.077240 -1.108315
v 4.162361 9.064166 -1.576946
v 3.609209 10.051092 -1.108315
v 3.380085 10.459890 0.023052
v 3.609209 10.051093 1.154427
v 4.162361 9.064167 1.623055
v 4.715513 8.077241 1.154427
v 4.944636 7.668443 0.023052
v 5.272702 8.334640 -1.108315
v 4.879813 9.395600 -1.576946
v 4.486924 10.456561 -1.108315
v 4.324184 10.896027 0.023052
v 4.486924 10.456562 1.154427
v 4.879813 9.395601 1.623055
v 5.272702 8.334640 1.154427
v 5.435442 7.895175 0.023052
v 5.722706 8.483040 -1.108315
v 5.640089 9.611390 -1.576946
v 5.557472 10.739740 -1.108315
v 5.523251 11.207120 0.023052
v 5.557472 10.739741 1.154427
v 5.640089 9.611391 1.623055
v 5.722706 8.483040 1.154427
v 5.756927 8.015662 0.023052
v 9.674134 8.007202 0.000000
v 9.674134 8.483969 -1.127968
v 9.674134 9.618687 -1.588432
v 9.674134 10.746653 -1.111664
v 9.674134 11.207119 0.023052
v 9.674134 10.730350 1.151020
v 9.674134 9.595633 1.611485
v 9.674134 8.467667 1.134716
v 9.674134 8.230389 0.001606
v 9.674134 8.640652 -0.969013
v 9.674134 9.617079 -1.365246
v 9.674134 10.587698 -0.954983
v 9.674134 10.983929 0.021446
v 9.674134 10.573669 0.992065
v 9.674134 9.597240 1.388298
v 9.674134 8.626623 0.978035
v 8.857928 8.230389 0.001606
v 8.857928 9.607159 0.011528
v 8.857928 8.640652 -0.969013
v 8.857928 9.617079 -1.365246
v 8.857928 10.587698 -0.954983
v 8.857928 10.983929 0.021446
v 8.857928 10.573669 0.992065
v 8.857928 9.597240 1.388294
v 8.857928 8.626623 0.978035
vt 0.314425 0.735049
vt 0.377560 0.735018
vt 0.252297 0.735076
vt 0.439340 0.734989
vt 0.311557 0.991050
vt 0.376806 0.990989
vt 0.253602 0.991102
vt 0.438834 0.990931
vt 0.784265 0.495173
vt 0.726516 0.495178
vt 0.501911 0.734959
vt 0.784240 0.425797
vt 0.063731 0.734989
vt 0.726475 0.425771
vt 0.784241 0.376402
vt 0.004520 0.990877
vt 0.064582 0.990932
vt 0.726476 0.307005
vt 0.126764 0.735019
vt 0.784241 0.257633
vt 0.187199 0.735046
vt 0.726476 0.257636
vt 0.784241 0.188251
vt 0.726476 0.188235
vt 0.129861 0.990992
vt 0.189924 0.991047
vt 0.504126 0.990870
vt 0.784241 0.138858
vt 0.726474 0.138863
vt 0.784240 0.069379
vt 0.726473 0.069370
vt 0.004520 0.734962
vt 0.856828 0.286280
vt 0.903123 0.345973
vt 0.912419 0.271005
vt 0.827318 0.336356
vt 0.963372 0.298972
vt 0.842416 0.392676
vt 0.979171 0.355100
vt 0.893475 0.421722
vt 0.950121 0.406157
vt 0.685140 0.604799
vt 0.673703 0.600062
vt 0.636898 0.653042
vt 0.632160 0.641605
vt 0.685140 0.536574
vt 0.673703 0.541311
vt 0.568672 0.653042
vt 0.573409 0.641605
vt 0.636897 0.488331
vt 0.632160 0.499768
vt 0.520429 0.604799
vt 0.531866 0.600062
vt 0.568672 0.488331
vt 0.573409 0.499768
vt 0.520429 0.536574
vt 0.531866 0.541311
vt 0.726476 0.376401
vt 0.784241 0.307022
vt 0.784265 0.020155
vt 0.726516 0.020147
vt 0.723402 0.747404
vt 0.440249 0.676596
vt 0.781188 0.677886
vt 0.378830 0.676596
vt 0.723402 0.677886
vt 0.317410 0.676596
vt 0.781190 0.628631
vt 0.252021 0.676596
vt 0.723402 0.628630
vt 0.185938 0.676596
vt 0.781190 0.559084
vt 0.124355 0.676596
vt 0.723402 0.559085
vt 0.781200 0.509881
vt 0.062936 0.676596
vt 0.004520 0.676596
vt 0.723421 0.509881
vt 0.500000 0.676596
vt 0.440249 0.618173
vt 0.378830 0.618173
vt 0.317410 0.618173
vt 0.252021 0.618173
vt 0.185938 0.618173
vt 0.124355 0.618173
vt 0.062935 0.618173
vt 0.004520 0.618173
vt 0.500000 0.618173
vt 0.440249 0.559750
vt 0.378830 0.559750
vt 0.317410 0.559750
vt 0.252021 0.559750
vt 0.185938 0.559750
vt 0.124355 0.559750
vt 0.062935 0.559750
vt 0.004520 0.559750
vt 0.500000 0.559750
vt 0.440249 0.501327
vt 0.378830 0.501327
vt 0.317410 0.501327
vt 0.252021 0.501327
vt 0.185938 0.501327
vt 0.124355 0.501327
vt 0.062935 0.501327
vt 0.004520 0.501327
vt 0.500000 0.501327
vt 0.440249 0.442904
vt 0.378830 0.442904
vt 0.317410 0.442904
vt 0.252021 0.442904
vt 0.185938 0.442904
vt 0.124355 0.442904
vt 0.062935 0.442904
vt 0.004520 0.442904
vt 0.500000 0.442904
vt 0.440249 0.384481
vt 0.378830 0.384481
vt 0.317410 0.384481
vt 0.252021 0.384481
vt 0.185938 0.384481
vt 0.124355 0.384481
vt 0.062935 0.384481
vt 0.004520 0.384481
vt 0.500000 0.384481
vt 0.440249 0.326058
vt 0.378830 0.326058
vt 0.317410 0.326058
vt 0.252021 0.326058
vt 0.185938 0.326058
vt 0.124355 0.326058
vt 0.062935 0.326058
vt 0.004520 0.326058
vt 0.500000 0.326058
vt 0.441021 0.267635
vt 0.377699 0.267635
vt 0.315776 0.267635
vt 0.250338 0.267635
vt 0.187394 0.267635
vt 0.124111 0.267635
vt 0.063760 0.267635
vt 0.004520 0.267635
vt 0.500107 0.267635
vt 0.781200 0.984949
vt 0.499210 0.007442
vt 0.723421 0.984948
vt 0.441259 0.007440
vt 0.781190 0.915427
vt 0.375975 0.007440
vt 0.723402 0.915430
vt 0.313962 0.007440
vt 0.781188 0.866174
vt 0.248655 0.007440
vt 0.723402 0.866172
vt 0.188614 0.007440
vt 0.781188 0.796658
vt 0.123313 0.007440
vt 0.723402 0.796658
vt 0.063272 0.007440
vt 0.781188 0.747403
vt 0.004520 0.007442
vt 0.856315 0.285508
vt 0.903013 0.345572
vt 0.912464 0.270079
vt 0.963614 0.298482
vt 0.979180 0.355108
vt 0.950128 0.406173
vt 0.893477 0.421739
vt 0.842413 0.392687
vt 0.826859 0.336058
vt 0.689442 0.413181
vt 0.677970 0.408429
vt 0.641174 0.461449
vt 0.636422 0.449977
vt 0.572912 0.461449
vt 0.577664 0.449977
vt 0.524644 0.413181
vt 0.536116 0.408429
vt 0.524644 0.344919
vt 0.536116 0.349671
vt 0.572912 0.296651
vt 0.577664 0.308123
vt 0.641174 0.296651
vt 0.636422 0.308123
vt 0.689442 0.344919
vt 0.677970 0.349671
vn -0.999981 0.004110 -0.004601
vn -0.999388 0.034914 -0.002135
vn -0.724302 0.025678 -0.689005
vn -0.708275 0.004204 -0.705924
vn -0.035839 0.003944 -0.999350
vn -0.001743 0.002517 -0.999995
vn 0.690013 -0.013728 -0.723667
vn 0.708265 0.001095 -0.705946
vn 0.999786 -0.020445 0.003264
vn 0.999993 -0.000346 0.003623
vn 0.685397 -0.016608 0.727980
vn 0.702805 -0.002067 0.711379
vn -0.041460 0.000160 0.999140
vn -0.010317 -0.001842 0.999945
vn -0.727578 0.023186 0.685633
vn -0.714667 0.001212 0.699464
vn 0.000000 -1.000000 -0.000000
vn 0.845092 -0.534587 0.006089
vn 0.593264 -0.534588 0.601874
vn -0.006090 -0.534589 0.845091
vn -0.601876 -0.534588 0.593263
vn -0.845091 -0.534587 -0.006089
vn -0.593265 -0.534587 -0.601875
vn 0.006090 -0.534587 -0.845091
vn 0.601876 -0.534586 -0.593264
vn 0.000000 -1.000000 0.000000
vn 0.000000 -1.000000 0.000000
vn 0.000000 -1.000000 0.000000
vn 0.000000 -1.000000 0.000000
vn 0.000000 -1.000000 0.000001
vn 0.000000 -1.000000 0.000001
vn 0.000000 -1.000000 0.000001
vn 0.000000 -1.000000 0.000001
vn 0.000000 -1.000000 -0.000000
vn 0.000000 -1.000000 -0.000000
vn 0.000000 -1.000000 0.000000
vn 0.000000 -1.000000 0.000000
vn 0.000000 -1.000000 0.000000
vn 0.000000 -1.000000 0.000000
vn 0.000000 -1.000000 -0.000000
vn 0.000000 -1.000000 -0.000000
vn 0.999974 0.000000 0.007205
vn 0.701994 0.000000 0.712182
vn -0.007206 0.000000 0.999974
vn -0.712184 0.000000 0.701993
vn -0.999974 0.000000 -0.007205
vn -0.701995 -0.000001 -0.712182
vn 0.007206 -0.000002 -0.999974
vn 0.712183 -0.000001 -0.701993
vn 0.642469 -0.184020 -0.743889
vn -0.062312 0.017848 -0.997897
vn -0.707059 0.202520 -0.677535
vn -0.961343 0.275353 -0.000000
vn -0.707061 0.202520 0.677532
vn -0.062312 0.017847 0.997897
vn 0.642470 -0.184020 0.743888
vn 0.961343 -0.275354 0.000000
vn 0.606021 -0.281723 -0.743889
vn -0.058778 0.027324 -0.997897
vn -0.666947 0.310046 -0.677534
vn -0.906805 0.421550 -0.000000
vn -0.666950 0.310047 0.677532
vn -0.058777 0.027324 0.997897
vn 0.606022 -0.281723 0.743888
vn 0.906806 -0.421549 -0.000000
vn 0.554818 -0.372568 -0.743889
vn -0.053809 0.036135 -0.997897
vn -0.610596 0.410024 -0.677535
vn -0.830189 0.557482 -0.000000
vn -0.610599 0.410024 0.677532
vn -0.053811 0.036134 0.997897
vn 0.554819 -0.372568 0.743888
vn 0.830188 -0.557483 0.000000
vn 0.490108 -0.454341 -0.743887
vn -0.047531 0.044066 -0.997897
vn -0.539378 0.500019 -0.677534
vn -0.733358 0.679842 0.000000
vn -0.539379 0.500019 0.677533
vn -0.047532 0.044065 0.997897
vn 0.490108 -0.454342 0.743887
vn 0.733358 -0.679843 0.000000
vn 0.413462 -0.525052 -0.743889
vn -0.040101 0.050924 -0.997897
vn -0.455029 0.577839 -0.677533
vn -0.618672 0.785650 0.000000
vn -0.455028 0.577840 0.677533
vn -0.040099 0.050924 0.997897
vn 0.413463 -0.525052 0.743888
vn 0.618674 -0.785648 0.000000
vn 0.326747 -0.582980 -0.743889
vn -0.031690 0.056542 -0.997897
vn -0.359599 0.641589 -0.677534
vn -0.488922 0.872328 -0.000000
vn -0.359598 0.641591 0.677533
vn -0.031690 0.056541 0.997897
vn 0.326749 -0.582980 0.743888
vn 0.488921 -0.872328 -0.000000
vn 0.245392 -0.609307 -0.754008
vn -0.025037 0.079191 -0.996545
vn -0.247687 0.701068 -0.668696
vn -0.331381 0.943497 -0.000000
vn -0.247687 0.701069 0.668695
vn -0.025036 0.079190 0.996545
vn 0.245392 -0.609307 0.754007
vn 0.382838 -0.923815 0.000000
vn 0.020396 -0.683614 -0.729558
vn -0.007588 0.042010 -0.999088
vn -0.041091 0.726530 -0.685905
vn -0.055015 0.998482 0.002827
vn -0.037998 0.722954 0.689851
vn -0.002835 0.037376 0.999297
vn 0.024082 -0.686573 0.726662
vn 0.030683 -0.999527 -0.002004
vn -0.002017 -0.999985 -0.005047
vn -0.003352 -0.702272 -0.711901
vn -0.003009 0.008187 -0.999962
vn -0.001769 0.712258 -0.701916
vn 0.000152 0.999994 0.003588
vn 0.002201 0.706984 0.707226
vn 0.002698 -0.000213 0.999996
vn 0.000742 -0.709040 0.705168
vn 1.000000 0.000000 0.000000
vn 0.534587 0.845091 0.006089
vn 0.534589 0.593264 0.601874
vn 0.534588 -0.006089 0.845091
vn 0.534589 -0.601875 0.593263
vn 0.534588 -0.845091 -0.006089
vn 0.534587 -0.593265 -0.601875
vn 0.534588 0.006090 -0.845091
vn 0.534586 0.601876 -0.593265
vn 1.000000 0.000000 0.000000
vn 1.000000 0.000000 0.000000
vn 1.000000 0.000000 0.000000
vn 1.000000 0.000000 0.000000
vn 1.000000 0.000000 0.000000
vn 1.000000 0.000000 0.000000
vn 1.000000 0.000000 0.000000
vn 1.000000 0.000000 0.000000
vn 1.000000 0.000000 0.000000
vn 1.000000 0.000000 0.000000
vn 1.000000 0.000000 0.000000
vn 1.000000 0.000000 0.000000
vn 1.000000 0.000000 0.000000
vn 1.000000 0.000000 0.000000
vn 1.000000 0.000000 0.000000
vn 1.000000 0.000000 0.000000
vn 0.000000 0.999974 0.007205
vn 0.000000 0.701995 0.712182
vn 0.000000 -0.007206 0.999974
vn 0.000000 -0.712184 0.701993
vn 0.000000 -0.999974 -0.007205
vn 0.000002 -0.701995 -0.712182
vn 0.000002 0.007206 -0.999974
vn 0.000000 0.712183 -0.701994
s 1
g Pipe_Bend_A_LOD_1
usemtl lambert6SG
f 9/7/1 1/3/2 2/1/3 10/5/4
f 10/5/4 2/1/3 3/2/5 11/6/6
f 11/6/6 3/2/5 4/4/7 12/8/8
f 12/8/8 4/4/7 5/11/9 13/27/10
f 13/16/10 5/32/9 6/13/11 14/17/12
f 14/17/12 6/13/11 7/19/13 15/25/14
f 15/25/14 7/19/13 8/21/15 16/26/16
f 16/26/16 8/21/15 1/3/2 9/7/1
s 2
f 26/34/17 25/33/18 27/35/19
f 26/34/17 27/35/19 28/37/20
f 26/34/17 28/37/20 29/39/21
f 26/34/17 29/39/21 30/41/22
f 26/34/17 30/41/22 31/40/23
f 26/34/17 31/40/23 32/38/24
f 26/34/17 32/38/24 33/36/25
f 26/34/17 33/36/25 25/33/18
s 3
f 17/43/26 9/42/27 10/44/28 18/45/29
f 18/45/29 10/44/28 11/48/30 19/49/31
f 19/49/31 11/48/30 12/52/32 20/53/33
f 20/53/33 12/52/32 13/56/34 21/57/35
f 21/57/35 13/56/34 14/54/36 22/55/37
f 22/55/37 14/54/36 15/50/38 23/51/39
f 23/51/39 15/50/38 16/46/40 24/47/41
f 24/47/41 16/46/40 9/42/27 17/43/26
s 2
f 25/60/18 17/61/42 18/31/43 27/30/19
f 27/30/19 18/31/43 19/29/44 28/28/20
f 28/28/20 19/29/44 20/24/45 29/23/21
f 29/23/21 20/24/45 21/22/46 30/20/22
f 30/20/22 21/22/46 22/18/47 31/59/23
f 31/59/23 22/18/47 23/58/48 32/15/24
f 32/15/24 23/58/48 24/14/49 33/12/25
f 33/12/25 24/14/49 17/10/42 25/9/18
s 1
f 34/63/50 4/4/7 3/2/5 35/65/51
f 35/65/51 3/2/5 2/1/3 36/67/52
f 36/67/52 2/1/3 1/3/2 37/69/53
f 37/69/53 1/3/2 8/21/15 38/71/54
f 38/71/54 8/21/15 7/19/13 39/73/55
f 39/73/55 7/19/13 6/13/11 40/76/56
f 40/76/56 6/13/11 5/32/9 41/77/57
f 41/79/57 5/11/9 4/4/7 34/63/50
f 42/80/58 34/63/50 35/65/51 43/81/59
f 43/81/59 35/65/51 36/67/52 44/82/60
f 44/82/60 36/67/52 37/69/53 45/83/61
f 45/83/61 37/69/53 38/71/54 46/84/62
f 46/84/62 38/71/54 39/73/55 47/85/63
f 47/85/63 39/73/55 40/76/56 48/86/64
f 48/86/64 40/76/56 41/77/57 49/87/65
f 49/88/65 41/79/57 34/63/50 42/80/58
f 50/89/66 42/80/58 43/81/59 51/90/67
f 51/90/67 43/81/59 44/82/60 52/91/68
f 52/91/68 44/82/60 45/83/61 53/92/69
f 53/92/69 45/83/61 46/84/62 54/93/70
f 54/93/70 46/84/62 47/85/63 55/94/71
f 55/94/71 47/85/63 48/86/64 56/95/72
f 56/95/72 48/86/64 49/87/65 57/96/73
f 57/97/73 49/88/65 42/80/58 50/89/66
f 58/98/74 50/89/66 51/90/67 59/99/75
f 59/99/75 51/90/67 52/91/68 60/100/76
f 60/100/76 52/91/68 53/92/69 61/101/77
f 61/101/77 53/92/69 54/93/70 62/102/78
f 62/102/78 54/93/70 55/94/71 63/103/79
f 63/103/79 55/94/71 56/95/72 64/104/80
f 64/104/80 56/95/72 57/96/73 65/105/81
f 65/106/81 57/97/73 50/89/66 58/98/74
f 66/107/82 58/98/74 59/99/75 67/108/83
f 67/108/83 59/99/75 60/100/76 68/109/84
f 68/109/84 60/100/76 61/101/77 69/110/85
f 69/110/85 61/101/77 62/102/78 70/111/86
f 70/111/86 62/102/78 63/103/79 71/112/87
f 71/112/87 63/103/79 64/104/80 72/113/88
f 72/113/88 64/104/80 65/105/81 73/114/89
f 73/115/89 65/106/81 58/98/74 66/107/82
f 74/116/90 66/107/82 67/108/83 75/117/91
f 75/117/91 67/108/83 68/109/84 76/118/92
f 76/118/92 68/109/84 69/110/85 77/119/93
f 77/119/93 69/110/85 70/111/86 78/120/94
f 78/120/94 70/111/86 71/112/87 79/121/95
f 79/121/95 71/112/87 72/113/88 80/122/96
f 80/122/96 72/113/88 73/114/89 81/123/97
f 81/124/97 73/115/89 66/107/82 74/116/90
f 82/125/98 74/116/90 75/117/91 83/126/99
f 83/126/99 75/117/91 76/118/92 84/127/100
f 84/127/100 76/118/92 77/119/93 85/128/101
f 85/128/101 77/119/93 78/120/94 86/129/102
f 86/129/102 78/120/94 79/121/95 87/130/103
f 87/130/103 79/121/95 80/122/96 88/131/104
f 88/131/104 80/122/96 81/123/97 89/132/105
f 89/133/105 81/124/97 74/116/90 82/125/98
f 90/134/106 82/125/98 83/126/99 91/135/107
f 91/135/107 83/126/99 84/127/100 92/136/108
f 92/136/108 84/127/100 85/128/101 93/137/109
f 93/137/109 85/128/101 86/129/102 94/138/110
f 94/138/110 86/129/102 87/130/103 95/139/111
f 95/139/111 87/130/103 88/131/104 96/140/112
f 96/140/112 88/131/104 89/132/105 97/141/113
f 97/142/113 89/133/105 82/125/98 90/134/106
f 98/144/114 97/142/113 90/134/106 99/146/115
f 99/146/115 90/134/106 91/135/107 100/148/116
f 100/148/116 91/135/107 92/136/108 101/150/117
f 101/150/117 92/136/108 93/137/109 102/152/118
f 102/152/118 93/137/109 94/138/110 103/154/119
f 103/154/119 94/138/110 95/139/111 104/156/120
f 104/156/120 95/139/111 96/140/112 105/158/121
f 105/158/121 96/140/112 97/141/113 98/160/114
s 4
f 115/162/122 114/161/123 116/163/124
f 115/162/122 116/163/124 117/164/125
f 115/162/122 117/164/125 118/165/126
f 115/162/122 118/165/126 119/166/127
f 115/162/122 119/166/127 120/167/128
f 115/162/122 120/167/128 121/168/129
f 115/162/122 121/168/129 122/169/130
f 115/162/122 122/169/130 114/161/123
s 5
f 106/171/131 98/170/132 99/172/133 107/173/134
f 107/173/134 99/172/133 100/174/135 108/175/136
f 108/175/136 100/174/135 101/176/137 109/177/138
f 109/177/138 101/176/137 102/178/139 110/179/140
f 110/179/140 102/178/139 103/180/141 111/181/142
f 111/181/142 103/180/141 104/182/143 112/183/144
f 112/183/144 104/182/143 105/184/145 113/185/146
f 113/185/146 105/184/145 98/170/132 106/171/131
s 4
f 114/75/123 106/78/147 107/74/148 116/72/124
f 116/72/124 107/74/148 108/70/149 117/68/125
f 117/68/125 108/70/149 109/66/150 118/64/126
f 118/64/126 109/66/150 110/62/151 119/159/127
f 119/159/127 110/62/151 111/157/152 120/155/128
f 120/155/128 111/157/152 112/153/153 121/151/129
f 121/151/129 112/153/153 113/149/154 122/147/130
f 122/147/130 113/149/154 106/145/147 114/143/123
