# This file uses centimeters as units for non-parametric coordinates.

mtllib Pipe_Cap_LOD_0.mtl
g default
v -0.685198 0.017664 -0.004936
v -0.631151 0.017664 -0.266773
v -0.481011 0.017664 -0.487998
v -0.257653 0.017664 -0.634925
v 0.004939 0.017664 -0.685194
v 0.266774 0.017664 -0.631150
v 0.487996 0.017664 -0.481013
v 0.634932 0.017664 -0.257649
v 0.685194 0.017664 0.004937
v 0.631153 0.017664 0.266772
v 0.481013 0.017664 0.487997
v 0.257649 0.017664 0.634926
v -0.004937 0.017664 0.685195
v -0.266771 0.017664 0.631148
v -0.487999 0.017664 0.481017
v -0.634923 0.017664 0.257653
v -0.770879 -0.221569 -0.005552
v -0.710076 -0.221569 -0.300135
v -0.541167 -0.221569 -0.549021
v -0.289873 -0.221569 -0.714326
v 0.005555 -0.221569 -0.770881
v 0.300135 -0.221569 -0.710072
v 0.549018 -0.221569 -0.541166
v 0.714326 -0.221569 -0.289872
v 0.770875 -0.221569 0.005556
v 0.710072 -0.221569 0.300136
v 0.541169 -0.221569 0.549019
v 0.289869 -0.221569 0.714324
v -0.005553 -0.221569 0.770879
v -0.300133 -0.221569 0.710076
v -0.549022 -0.221569 0.541164
v -0.714330 -0.221569 0.289873
v 0.000001 0.045974 -0.000001
v 0.000001 -0.221569 -0.000001
v 0.770875 -0.101725 0.005556
v 0.714326 -0.101725 -0.289872
v 0.549018 -0.101725 -0.541166
v 0.300135 -0.101725 -0.710072
v 0.005555 -0.101725 -0.770881
v -0.289873 -0.101725 -0.714326
v -0.541167 -0.101725 -0.549021
v -0.710076 -0.101725 -0.300135
v -0.770879 -0.101725 -0.005552
v -0.714330 -0.101725 0.289873
v -0.549022 -0.101725 0.541164
v -0.300133 -0.101725 0.710076
v -0.005553 -0.101725 0.770879
v 0.289869 -0.101725 0.714324
v 0.541169 -0.101725 0.549019
v 0.710072 -0.101725 0.300136
v 0.736293 -0.000899 0.005306
v 0.682277 -0.000899 -0.276866
v 0.524391 -0.000899 -0.516889
v 0.286671 -0.000899 -0.678214
v 0.005305 -0.000899 -0.736295
v -0.276867 -0.000899 -0.682276
v -0.516887 -0.000899 -0.524391
v -0.678215 -0.000899 -0.286671
v -0.736290 -0.000899 -0.005305
v -0.682280 -0.000899 0.276864
v -0.524389 -0.000899 0.516887
v -0.286669 -0.000899 0.678219
v -0.005309 -0.000899 0.736294
v 0.276863 -0.000899 0.682278
v 0.516883 -0.000899 0.524389
v 0.678218 -0.000899 0.286669
v -0.075151 0.017778 -0.405824
v -0.088286 0.017015 -0.419444
v -0.088103 0.108727 -0.394422
v -0.088311 0.087873 -0.412361
v -0.075151 0.081106 -0.399336
v -0.075151 0.095999 -0.384355
v -0.088018 0.145436 0.121013
v -0.088018 0.145436 -0.121012
v -0.075151 0.131747 -0.120454
v -0.075151 0.131747 0.120455
v -0.088311 0.087873 0.412359
v -0.088103 0.108727 0.394424
v -0.075151 0.095999 0.384356
v -0.075151 0.081106 0.399337
v -0.088286 0.017015 0.419448
v -0.075151 0.017778 0.405822
v 0.107496 0.017015 -0.419444
v 0.094368 0.017778 -0.405824
v 0.107521 0.087873 -0.412361
v 0.107319 0.108727 -0.394422
v 0.094368 0.095999 -0.384355
v 0.094368 0.081106 -0.399336
v 0.107228 0.145436 -0.121012
v 0.107228 0.145436 0.121013
v 0.094368 0.131747 0.120455
v 0.094368 0.131747 -0.120454
v 0.107319 0.108727 0.394424
v 0.107521 0.087873 0.412359
v 0.094368 0.081106 0.399337
v 0.094368 0.095999 0.384356
v 0.094368 0.017778 0.405822
v 0.107496 0.017015 0.419448
v 0.089222 0.010224 -0.540730
v 0.103395 0.010987 -0.527107
v 0.089222 0.168900 -0.531062
v 0.089222 0.183557 -0.516618
v 0.103596 0.171925 -0.489604
v 0.103389 0.158055 -0.518055
v 0.089222 0.221569 -0.120670
v 0.089222 0.221569 0.120672
v 0.103663 0.207897 0.121013
v 0.103663 0.207897 -0.121012
v 0.089222 0.183557 0.516619
v 0.089222 0.168900 0.531063
v 0.103389 0.158055 0.518056
v 0.103596 0.171925 0.489602
v 0.103395 0.010987 0.527108
v 0.089222 0.010224 0.540728
v -0.084185 0.010987 -0.527107
v -0.070012 0.010224 -0.540730
v -0.084179 0.158055 -0.518055
v -0.084386 0.171925 -0.489604
v -0.070012 0.183557 -0.516618
v -0.070012 0.168900 -0.531062
v -0.084453 0.207897 -0.121012
v -0.084453 0.207897 0.121013
v -0.070012 0.221569 0.120672
v -0.070012 0.221569 -0.120670
v -0.084386 0.171925 0.489602
v -0.084179 0.158055 0.518056
v -0.070012 0.168900 0.531063
v -0.070012 0.183557 0.516619
v -0.070012 0.010224 0.540728
v -0.084185 0.010987 0.527108
v 0.493586 0.038773 -0.486524
v 0.269831 0.038773 -0.638380
v 0.004994 0.038773 -0.693043
v -0.260607 0.038773 -0.642201
v -0.486522 0.038773 -0.493586
v -0.638378 0.038773 -0.269831
v -0.693041 0.038773 -0.004994
v -0.642205 0.038773 0.260604
v -0.493590 0.038773 0.486526
v -0.269829 0.038773 0.638381
v -0.004992 0.038773 0.693047
v 0.260603 0.038773 0.642202
v 0.486525 0.038773 0.493587
v 0.638380 0.038773 0.269829
v 0.693043 0.038773 0.004995
v 0.642201 0.038773 -0.260603
vt 0.061298 0.846581
vt 0.091086 0.846581
vt 0.120696 0.846581
vt 0.029180 0.846581
vt 0.155378 0.846581
vt 0.000000 0.846581
vt 0.184308 0.846581
vt 0.090908 0.891532
vt 0.058601 0.891537
vt 0.123211 0.891532
vt 0.030253 0.891568
vt 0.151733 0.891532
vt 0.000000 0.891470
vt 0.185505 0.891532
vt 0.218556 0.846581
vt 0.247800 0.846581
vt 0.281477 0.846581
vt 0.310868 0.846581
vt 0.218270 0.891532
vt 0.250601 0.891532
vt 0.278925 0.891532
vt 0.310979 0.891532
vt 0.343863 0.846581
vt 0.373215 0.846581
vt 0.406758 0.846581
vt 0.436274 0.846581
vt 0.343597 0.891532
vt 0.375926 0.891532
vt 0.404278 0.891532
vt 0.436328 0.891537
vt 0.468018 0.846581
vt 0.500000 0.846581
vt 0.468903 0.891568
vt 0.500000 0.891470
vt 0.145360 0.660371
vt 0.110845 0.742028
vt 0.111483 0.653379
vt 0.173981 0.679795
vt 0.077510 0.659882
vt 0.192991 0.708694
vt 0.048611 0.678892
vt 0.199495 0.742667
vt 0.029187 0.707514
vt 0.192502 0.776543
vt 0.022195 0.741390
vt 0.173078 0.805165
vt 0.028698 0.775363
vt 0.144179 0.824175
vt 0.047708 0.804262
vt 0.110206 0.830679
vt 0.076330 0.823686
vt 0.263885 0.673604
vt 0.293993 0.667389
vt 0.294561 0.746180
vt 0.324189 0.673169
vt 0.238446 0.690868
vt 0.349873 0.690065
vt 0.221550 0.716553
vt 0.367137 0.715504
vt 0.215770 0.746748
vt 0.373352 0.745612
vt 0.221985 0.776857
vt 0.367572 0.775808
vt 0.239249 0.802295
vt 0.350676 0.801492
vt 0.264934 0.819191
vt 0.325238 0.818756
vt 0.295129 0.824971
vt 0.250365 0.877906
vt 0.218366 0.877906
vt 0.185354 0.877906
vt 0.152064 0.877906
vt 0.122926 0.877906
vt 0.090903 0.877906
vt 0.058829 0.877906
vt 0.030026 0.877974
vt 0.500000 0.877791
vt 0.000000 0.877791
vt 0.468845 0.877974
vt 0.436295 0.877906
vt 0.404512 0.877906
vt 0.375684 0.877906
vt 0.343661 0.877906
vt 0.310927 0.877906
vt 0.279152 0.877906
vt 0.248660 0.862649
vt 0.218492 0.862649
vt 0.184658 0.862649
vt 0.154267 0.862649
vt 0.121443 0.862649
vt 0.091025 0.862649
vt 0.060470 0.862649
vt 0.029463 0.862649
vt 0.500000 0.862649
vt 0.000000 0.862649
vt 0.468295 0.862649
vt 0.436281 0.862649
vt 0.406005 0.862649
vt 0.374043 0.862649
vt 0.343795 0.862649
vt 0.310888 0.862649
vt 0.280698 0.862649
vt 0.158484 0.550352
vt 0.170760 0.549105
vt 0.184520 0.567386
vt 0.158047 0.568933
vt 0.281993 0.394851
vt 0.281328 0.405800
vt 0.255683 0.405800
vt 0.255130 0.394852
vt 0.280665 0.408399
vt 0.280679 0.453965
vt 0.255765 0.453998
vt 0.255621 0.408394
vt 0.175059 0.498476
vt 0.185812 0.498476
vt 0.185741 0.564346
vt 0.171932 0.546645
vt 0.280563 0.493961
vt 0.280879 0.539176
vt 0.255407 0.539261
vt 0.255639 0.494048
vt 0.164371 0.410987
vt 0.175542 0.394056
vt 0.183447 0.456165
vt 0.172781 0.456165
vt 0.254650 0.552873
vt 0.255314 0.541766
vt 0.280787 0.541653
vt 0.281513 0.552725
vt 0.146984 0.392502
vt 0.173514 0.391233
vt 0.161517 0.410891
vt 0.148990 0.410990
vt 0.215368 0.562639
vt 0.211879 0.498476
vt 0.221549 0.498476
vt 0.227470 0.544835
vt 0.243238 0.566159
vt 0.215573 0.566223
vt 0.228773 0.547140
vt 0.241102 0.547640
vt 0.210379 0.456165
vt 0.205781 0.391037
vt 0.219672 0.406645
vt 0.219370 0.456165
vt 0.235032 0.404650
vt 0.222548 0.406227
vt 0.207631 0.389369
vt 0.234999 0.386008
vt 0.187381 0.568611
vt 0.188401 0.498476
vt 0.208735 0.498476
vt 0.211675 0.568470
vt 0.187500 0.597239
vt 0.186597 0.571306
vt 0.210487 0.571306
vt 0.209727 0.597240
vt 0.186790 0.456165
vt 0.178345 0.392113
vt 0.203292 0.390350
vt 0.207474 0.456165
vt 0.198427 0.360210
vt 0.202948 0.387646
vt 0.176360 0.389438
vt 0.176306 0.362384
vt 0.253044 0.394886
vt 0.253763 0.406729
vt 0.253717 0.407637
vt 0.253790 0.454730
vt 0.253592 0.493488
vt 0.253447 0.540782
vt 0.253314 0.541310
vt 0.252566 0.552884
vt 0.284077 0.394851
vt 0.283356 0.406729
vt 0.283090 0.407623
vt 0.282892 0.454707
vt 0.282535 0.493341
vt 0.282799 0.540684
vt 0.282827 0.541096
vt 0.283599 0.552679
vt 0.243443 0.568503
vt 0.213578 0.568596
vt 0.234931 0.383657
vt 0.158395 0.570821
vt 0.184588 0.569219
vt 0.147069 0.390591
vt 0.184362 0.851779
vt 0.155207 0.851779
vt 0.120811 0.851779
vt 0.091077 0.851779
vt 0.061171 0.851779
vt 0.029223 0.851779
vt 0.500000 0.851779
vt 0.000000 0.851779
vt 0.468060 0.851779
vt 0.436275 0.851779
vt 0.406642 0.851779
vt 0.373342 0.851779
vt 0.343853 0.851779
vt 0.310871 0.851779
vt 0.281357 0.851779
vt 0.247932 0.851779
vt 0.218546 0.851779
vn 0.029173 0.999498 0.012330
vn -0.369396 0.916063 -0.156127
vn -0.400999 0.916074 -0.002895
vn 0.031671 0.999498 0.000228
vn 0.022233 0.999498 0.022558
vn -0.281501 0.916075 -0.285593
vn 0.011911 0.999498 0.029353
vn -0.150796 0.916063 -0.371603
vn -0.000228 0.999498 0.031674
vn 0.002897 0.916065 -0.401019
vn -0.012332 0.999498 0.029177
vn 0.156119 0.916071 -0.369379
vn -0.022557 0.999498 0.022234
vn 0.285600 0.916072 -0.281505
vn -0.029350 0.999498 0.011908
vn 0.371603 0.916065 -0.150788
vn -0.031673 0.999498 -0.000227
vn 0.401043 0.916055 0.002886
vn -0.029175 0.999498 -0.012330
vn 0.369410 0.916055 0.156137
vn -0.022235 0.999498 -0.022558
vn 0.281519 0.916068 0.285600
vn -0.011912 0.999498 -0.029353
vn 0.150795 0.916065 0.371600
vn 0.000229 0.999498 -0.031676
vn -0.002885 0.916065 0.401019
vn 0.012333 0.999498 -0.029177
vn -0.156128 0.916066 0.369387
vn 0.022558 0.999498 -0.022237
vn -0.285620 0.916059 0.281526
vn 0.029349 0.999498 -0.011911
vn -0.371593 0.916067 0.150799
vn 0.000000 -1.000000 -0.000000
vn 0.000000 -1.000000 0.000000
vn 0.000000 -1.000000 0.000000
vn 0.000000 -1.000000 -0.000000
vn 0.000000 -1.000000 0.000000
vn 0.000000 -1.000000 0.000000
vn 0.000000 -1.000000 -0.000000
vn 0.000000 -1.000000 0.000000
vn 0.000000 -1.000000 -0.000000
vn 0.000000 -1.000000 -0.000000
vn 0.000000 -1.000000 0.000000
vn 0.000000 -1.000000 0.000000
vn 0.000000 -1.000000 0.000000
vn 0.000000 -1.000000 0.000000
vn 0.000000 -1.000000 0.000000
vn 0.000000 -1.000000 -0.000000
vn 0.000000 -1.000000 0.000000
vn 0.000000 1.000000 -0.000000
vn 0.926613 0.000000 -0.376015
vn 0.916184 0.149621 -0.371781
vn 0.988718 0.149622 0.007128
vn 0.999974 0.000000 0.007210
vn 0.712182 0.000000 -0.701995
vn 0.704166 0.149609 -0.694095
vn 0.389338 0.000000 -0.921095
vn 0.384953 0.149607 -0.910730
vn 0.007207 0.000000 -0.999974
vn 0.007128 0.149618 -0.988718
vn -0.376021 0.000000 -0.926611
vn -0.371789 0.149615 -0.916181
vn -0.701994 0.000000 -0.712183
vn -0.694093 0.149606 -0.704168
vn -0.921099 0.000000 -0.389328
vn -0.910733 0.149615 -0.384944
vn -0.999974 0.000000 -0.007210
vn -0.988720 0.149609 -0.007129
vn -0.926612 0.000000 0.376018
vn -0.916183 0.149611 0.371786
vn -0.712179 0.000000 0.701998
vn -0.704165 0.149620 0.694093
vn -0.389331 0.000000 0.921098
vn -0.384949 0.149609 0.910731
vn -0.007199 0.000000 0.999974
vn -0.007118 0.149609 0.988720
vn 0.376017 0.000000 0.926613
vn 0.371788 0.149610 0.916183
vn 0.701992 0.000000 0.712185
vn 0.694092 0.149620 0.704166
vn 0.921102 0.000000 0.389322
vn 0.910731 0.149623 0.384944
vn 0.884782 0.465962 0.006374
vn 0.819872 0.465965 -0.332695
vn 0.630149 0.465945 -0.621134
vn 0.344487 0.465946 -0.814999
vn 0.006377 0.465955 -0.884785
vn -0.332704 0.465956 -0.819874
vn -0.621130 0.465950 -0.630149
vn -0.814998 0.465950 -0.344482
vn -0.884789 0.465948 -0.006383
vn -0.819878 0.465955 0.332696
vn -0.630146 0.465948 0.621135
vn -0.344488 0.465938 0.815003
vn -0.006382 0.465939 0.884794
vn 0.332706 0.465941 0.819882
vn 0.621125 0.465956 0.630150
vn 0.814998 0.465951 0.344482
vn -0.999719 -0.003461 0.023439
vn -0.999891 -0.006116 0.013457
vn -0.968355 0.044730 -0.245537
vn -0.979691 0.012538 -0.200120
vn 0.083173 -0.101473 0.991355
vn 0.098557 -0.262870 0.959784
vn -0.098549 -0.262866 0.959786
vn -0.083169 -0.101476 0.991355
vn 0.096352 -0.979322 0.177889
vn 0.078292 -0.994434 0.070511
vn -0.078286 -0.994434 0.070509
vn -0.096344 -0.979324 0.177882
vn -0.995702 -0.092380 0.006651
vn -0.969644 0.244065 -0.014922
vn -0.921328 0.386147 -0.045223
vn -0.999733 -0.021898 0.007340
vn 0.078292 -0.994434 -0.070510
vn 0.096350 -0.979323 -0.177884
vn -0.096348 -0.979324 -0.177882
vn -0.078289 -0.994434 -0.070509
vn -0.999733 -0.021897 -0.007340
vn -0.921287 0.386246 0.045217
vn -0.969635 0.244100 0.014920
vn -0.995702 -0.092379 -0.006651
vn -0.083195 -0.101431 -0.991358
vn -0.098573 -0.262831 -0.959793
vn 0.098580 -0.262843 -0.959789
vn 0.083200 -0.101432 -0.991357
vn -0.979687 0.012583 0.200136
vn -0.968349 0.044763 0.245553
vn -0.999891 -0.006077 -0.013460
vn -0.999720 -0.003412 -0.023434
vn 0.921364 0.386059 -0.045235
vn 0.969639 0.244086 -0.014919
vn 0.995721 -0.092173 0.006652
vn 0.999739 -0.021641 0.007334
vn 0.979691 0.012552 -0.200120
vn 0.968352 0.044716 -0.245548
vn 0.999891 -0.006113 0.013421
vn 0.999720 -0.003456 0.023411
vn 0.969629 0.244125 0.014918
vn 0.921303 0.386206 0.045231
vn 0.999738 -0.021670 -0.007333
vn 0.995718 -0.092208 -0.006651
vn 0.999720 -0.003458 -0.023406
vn 0.999891 -0.006086 -0.013425
vn 0.968347 0.044733 0.245568
vn 0.979688 0.012545 0.200137
vn -0.042099 0.990750 -0.129005
vn -0.075765 0.995366 -0.059222
vn 0.075756 0.995366 -0.059223
vn 0.042096 0.990750 -0.129008
vn -0.071976 0.060678 -0.995559
vn -0.066109 0.142320 -0.987611
vn 0.066112 0.142313 -0.987611
vn 0.071976 0.060685 -0.995559
vn -0.075754 0.995366 0.059220
vn -0.042089 0.990750 0.129003
vn 0.042092 0.990750 0.129007
vn 0.075753 0.995366 0.059222
vn 0.071968 0.060663 0.995560
vn 0.066106 0.142293 0.987615
vn -0.066102 0.142304 0.987613
vn -0.071968 0.060662 0.995561
s 1
g Cap_A_LOD_0 group2
usemtl lambert3SG
f 2/4/1 136/194/2 137/196/3 1/6/4
f 3/1/5 135/193/6 136/194/2 2/4/1
f 4/2/7 134/192/8 135/193/6 3/1/5
f 5/3/9 133/191/10 134/192/8 4/2/7
f 6/5/11 132/190/12 133/191/10 5/3/9
f 7/7/13 131/189/14 132/190/12 6/5/11
f 8/15/15 146/205/16 131/189/14 7/7/13
f 9/16/17 145/204/18 146/205/16 8/15/15
f 10/17/19 144/203/20 145/204/18 9/16/17
f 11/18/21 143/202/22 144/203/20 10/17/19
f 12/23/23 142/201/24 143/202/22 11/18/21
f 13/24/25 141/200/26 142/201/24 12/23/23
f 14/25/27 140/199/28 141/200/26 13/24/25
f 15/26/29 139/198/30 140/199/28 14/25/27
f 16/31/31 138/197/32 139/198/30 15/26/29
f 1/32/4 137/195/3 138/197/32 16/31/31
s 2
f 18/35/33 34/36/34 17/37/35
f 19/38/36 34/36/34 18/35/33
f 20/40/37 34/36/34 19/38/36
f 21/42/38 34/36/34 20/40/37
f 22/44/39 34/36/34 21/42/38
f 23/46/40 34/36/34 22/44/39
f 24/48/41 34/36/34 23/46/40
f 25/50/42 34/36/34 24/48/41
f 26/51/43 34/36/34 25/50/42
f 27/49/44 34/36/34 26/51/43
f 28/47/45 34/36/34 27/49/44
f 29/45/46 34/36/34 28/47/45
f 30/43/47 34/36/34 29/45/46
f 31/41/48 34/36/34 30/43/47
f 32/39/49 34/36/34 31/41/48
f 17/37/35 34/36/34 32/39/49
s 1
f 2/52/1 1/53/4 33/54/50
f 3/56/5 2/52/1 33/54/50
f 4/58/7 3/56/5 33/54/50
f 5/60/9 4/58/7 33/54/50
f 6/62/11 5/60/9 33/54/50
f 7/64/13 6/62/11 33/54/50
f 8/66/15 7/64/13 33/54/50
f 9/68/17 8/66/15 33/54/50
f 10/67/19 9/68/17 33/54/50
f 11/65/21 10/67/19 33/54/50
f 12/63/23 11/65/21 33/54/50
f 13/61/25 12/63/23 33/54/50
f 14/59/27 13/61/25 33/54/50
f 15/57/29 14/59/27 33/54/50
f 16/55/31 15/57/29 33/54/50
f 1/53/4 16/55/31 33/54/50
f 24/19/51 36/70/52 35/69/53 25/20/54
f 23/14/55 37/71/56 36/70/52 24/19/51
f 22/12/57 38/72/58 37/71/56 23/14/55
f 21/10/59 39/73/60 38/72/58 22/12/57
f 20/8/61 40/74/62 39/73/60 21/10/59
f 19/9/63 41/75/64 40/74/62 20/8/61
f 18/11/65 42/76/66 41/75/64 19/9/63
f 17/13/67 43/78/68 42/76/66 18/11/65
f 32/33/69 44/79/70 43/77/68 17/34/67
f 31/30/71 45/80/72 44/79/70 32/33/69
f 30/29/73 46/81/74 45/80/72 31/30/71
f 29/28/75 47/82/76 46/81/74 30/29/73
f 28/27/77 48/83/78 47/82/76 29/28/75
f 27/22/79 49/84/80 48/83/78 28/27/77
f 26/21/81 50/85/82 49/84/80 27/22/79
f 25/20/54 35/69/53 50/85/82 26/21/81
f 51/86/83 35/69/53 36/70/52 52/87/84
f 53/88/85 52/87/84 36/70/52 37/71/56
f 54/89/86 53/88/85 37/71/56 38/72/58
f 55/90/87 54/89/86 38/72/58 39/73/60
f 56/91/88 55/90/87 39/73/60 40/74/62
f 57/92/89 56/91/88 40/74/62 41/75/64
f 58/93/90 57/92/89 41/75/64 42/76/66
f 59/95/91 58/93/90 42/76/66 43/78/68
f 60/96/92 59/94/91 43/77/68 44/79/70
f 61/97/93 60/96/92 44/79/70 45/80/72
f 62/98/94 61/97/93 45/80/72 46/81/74
f 63/99/95 62/98/94 46/81/74 47/82/76
f 64/100/96 63/99/95 47/82/76 48/83/78
f 65/101/97 64/100/96 48/83/78 49/84/80
f 66/102/98 65/101/97 49/84/80 50/85/82
f 51/86/83 66/102/98 50/85/82 35/69/53
s 4
f 68/103/99 70/104/100 117/105/101 115/106/102
f 84/107/103 88/108/104 71/109/105 67/110/106
f 87/111/107 92/112/108 75/113/109 72/114/110
f 74/115/111 121/116/112 118/117/113 69/118/114
f 91/119/115 96/120/116 79/121/117 76/122/118
f 78/123/119 125/124/120 122/125/121 73/126/122
f 82/127/123 80/128/124 95/129/125 97/130/126
f 130/131/127 126/132/128 77/133/129 81/134/130
f 103/135/131 108/136/132 89/137/133 86/138/134
f 100/139/135 104/140/136 85/141/137 83/142/138
f 107/143/139 112/144/140 93/145/141 90/146/142
f 98/147/143 94/148/144 111/149/145 113/150/146
f 119/151/147 124/152/148 105/153/149 102/154/150
f 116/155/151 120/156/152 101/157/153 99/158/154
f 123/159/155 128/160/156 109/161/157 106/162/158
f 114/163/159 110/164/160 127/165/161 129/166/162
f 68/167/99 67/110/106 71/109/105 70/168/100
f 70/104/100 69/118/114 118/117/113 117/105/101
f 72/114/110 71/109/105 88/108/104 87/111/107
f 69/169/114 72/114/110 75/113/109 74/170/111
f 74/115/111 73/126/122 122/125/121 121/116/112
f 76/122/118 75/113/109 92/112/108 91/119/115
f 73/171/122 76/122/118 79/121/117 78/172/119
f 78/123/119 77/133/129 126/132/128 125/124/120
f 80/128/124 79/121/117 96/120/116 95/129/125
f 77/173/129 80/128/124 82/127/123 81/174/130
f 84/107/103 83/175/138 85/176/137 88/108/104
f 86/138/134 85/141/137 104/140/136 103/135/131
f 87/111/107 86/177/134 89/178/133 92/112/108
f 90/146/142 89/137/133 108/136/132 107/143/139
f 91/119/115 90/179/142 93/180/141 96/120/116
f 94/148/144 93/145/141 112/144/140 111/149/145
f 95/129/125 94/181/144 98/182/143 97/130/126
f 100/139/135 99/183/154 101/184/153 104/140/136
f 102/154/150 101/157/153 120/156/152 119/151/147
f 103/135/131 102/154/150 105/153/149 108/136/132
f 106/162/158 105/153/149 124/152/148 123/159/155
f 107/143/139 106/162/158 109/161/157 112/144/140
f 110/164/160 109/161/157 128/160/156 127/165/161
f 111/149/145 110/164/160 114/185/159 113/150/146
f 116/186/151 115/106/102 117/105/101 120/187/152
f 119/151/147 118/117/113 121/116/112 124/152/148
f 123/159/155 122/125/121 125/124/120 128/160/156
f 127/165/161 126/132/128 130/131/127 129/188/162
f 69/169/114 70/168/100 71/109/105 72/114/110
f 73/171/122 74/170/111 75/113/109 76/122/118
f 77/173/129 78/172/119 79/121/117 80/128/124
f 85/176/137 86/177/134 87/111/107 88/108/104
f 89/178/133 90/179/142 91/119/115 92/112/108
f 93/180/141 94/181/144 95/129/125 96/120/116
f 101/184/153 102/154/150 103/135/131 104/140/136
f 105/153/149 106/162/158 107/143/139 108/136/132
f 109/161/157 110/164/160 111/149/145 112/144/140
f 117/105/101 118/117/113 119/151/147 120/187/152
f 121/116/112 122/125/121 123/159/155 124/152/148
f 125/124/120 126/132/128 127/165/161 128/160/156
s 1
f 131/189/14 53/88/85 54/89/86 132/190/12
f 133/191/10 132/190/12 54/89/86 55/90/87
f 134/192/8 133/191/10 55/90/87 56/91/88
f 135/193/6 134/192/8 56/91/88 57/92/89
f 136/194/2 135/193/6 57/92/89 58/93/90
f 137/196/3 136/194/2 58/93/90 59/95/91
f 138/197/32 137/195/3 59/94/91 60/96/92
f 139/198/30 138/197/32 60/96/92 61/97/93
f 140/199/28 139/198/30 61/97/93 62/98/94
f 141/200/26 140/199/28 62/98/94 63/99/95
f 142/201/24 141/200/26 63/99/95 64/100/96
f 143/202/22 142/201/24 64/100/96 65/101/97
f 144/203/20 143/202/22 65/101/97 66/102/98
f 145/204/18 144/203/20 66/102/98 51/86/83
f 146/205/16 145/204/18 51/86/83 52/87/84
f 131/189/14 146/205/16 52/87/84 53/88/85
