# This file uses centimeters as units for non-parametric coordinates.

mtllib Pipe_Straight_Open_A_LOD_0.mtl
g default
v 3.199918 -0.000000 -0.023055
v 3.073717 -0.000000 -0.634454
v 2.723151 -0.000000 -1.151019
v 2.201587 -0.000000 -1.494107
v 1.588432 -0.000000 -1.611487
v 0.977032 -0.000000 -1.485284
v 0.460468 -0.000000 -1.134717
v 0.117380 -0.000000 -0.613153
v -0.000000 -0.000000 0.000000
v 0.126202 -0.000000 0.611401
v 0.476770 -0.000000 1.127966
v 0.998334 -0.000000 1.471054
v 1.611487 -0.000000 1.588431
v 2.222888 -0.000000 1.462230
v 2.739453 -0.000000 1.111662
v 3.082541 -0.000000 0.590100
v 3.199918 16.000000 -0.023055
v 3.073717 16.000000 -0.634454
v 2.723151 16.000000 -1.151019
v 2.201587 16.000000 -1.494107
v 1.588432 16.000000 -1.611487
v 0.977032 16.000000 -1.485284
v 0.460468 16.000000 -1.134717
v 0.117380 16.000000 -0.613153
v -0.000000 16.000000 0.000000
v 0.126202 16.000000 0.611401
v 0.476770 16.000000 1.127966
v 0.998334 16.000000 1.471054
v 1.611487 16.000000 1.588431
v 2.222888 16.000000 1.462230
v 2.739453 16.000000 1.111662
v 3.082541 16.000000 0.590100
v 2.976730 -0.000000 -0.021446
v 2.868134 -0.000000 -0.547559
v 2.566469 -0.000000 -0.992065
v 2.117662 -0.000000 -1.287292
v 1.590041 -0.000000 -1.388297
v 1.063928 -0.000000 -1.279700
v 0.619421 -0.000000 -0.978036
v 0.324194 -0.000000 -0.529230
v 0.223190 -0.000000 -0.001607
v 0.331787 -0.000000 0.524504
v 0.633450 -0.000000 0.969011
v 1.082257 -0.000000 1.264238
v 1.609879 -0.000000 1.365244
v 2.135992 -0.000000 1.256647
v 2.580496 -0.000000 0.954982
v 2.875726 -0.000000 0.506175
v 2.976730 16.000000 -0.021446
v 2.868134 16.000000 -0.547559
v 2.566469 16.000000 -0.992065
v 2.117662 16.000000 -1.287292
v 1.590041 16.000000 -1.388297
v 1.063928 16.000000 -1.279700
v 0.619421 16.000000 -0.978036
v 0.324194 16.000000 -0.529230
v 0.223190 16.000000 -0.001607
v 0.331787 16.000000 0.524504
v 0.633450 16.000000 0.969011
v 1.082257 16.000000 1.264240
v 1.609879 16.000000 1.365244
v 2.135992 16.000000 1.256647
v 2.580496 16.000000 0.954982
v 2.875726 16.000000 0.506175
vt 0.058288 0.000000
vt 0.090945 0.000000
vt 0.123602 0.000000
vt 0.030603 0.000000
vt 0.151288 0.000000
vt 0.000337 0.000000
vt 0.185607 0.000000
vt 0.090945 1.000000
vt 0.058288 1.000000
vt 0.123602 1.000000
vt 0.030603 1.000000
vt 0.151288 1.000000
vt 0.000337 1.000000
vt 0.185607 1.000000
vt 0.218264 0.000000
vt 0.250921 0.000000
vt 0.278607 0.000000
vt 0.310949 0.000000
vt 0.218264 1.000000
vt 0.250921 1.000000
vt 0.278607 1.000000
vt 0.310949 1.000000
vt 0.343606 0.000000
vt 0.376263 0.000000
vt 0.403948 0.000000
vt 0.436290 0.000000
vt 0.343606 1.000000
vt 0.376263 1.000000
vt 0.403948 1.000000
vt 0.436290 1.000000
vt 0.468947 0.000000
vt 0.500000 0.000000
vt 0.468947 1.000000
vt 0.500000 1.000000
vt 0.538215 0.618960
vt 0.567156 0.599622
vt 0.571918 0.611119
vt 0.547014 0.627760
vt 0.601295 0.592832
vt 0.601295 0.605276
vt 0.518877 0.647901
vt 0.530374 0.652664
vt 0.635433 0.599622
vt 0.630671 0.611119
vt 0.512086 0.682040
vt 0.524531 0.682040
vt 0.664374 0.618960
vt 0.655575 0.627760
vt 0.518877 0.716178
vt 0.530374 0.711416
vt 0.683712 0.647901
vt 0.672215 0.652664
vt 0.538215 0.745120
vt 0.547014 0.736320
vt 0.690503 0.682040
vt 0.678058 0.682040
vt 0.567156 0.764458
vt 0.571918 0.752961
vt 0.683712 0.716178
vt 0.672215 0.711416
vt 0.601295 0.771248
vt 0.601295 0.758804
vt 0.664374 0.745120
vt 0.655575 0.736320
vt 0.635433 0.764458
vt 0.630671 0.752961
vt 0.680944 0.523912
vt 0.661606 0.552853
vt 0.652806 0.544053
vt 0.669447 0.519149
vt 0.632665 0.572191
vt 0.627902 0.560694
vt 0.687734 0.489773
vt 0.675290 0.489773
vt 0.598526 0.578981
vt 0.598526 0.566537
vt 0.680944 0.455635
vt 0.669447 0.460397
vt 0.564388 0.572191
vt 0.569150 0.560694
vt 0.661606 0.426694
vt 0.652806 0.435493
vt 0.535446 0.552853
vt 0.544246 0.544054
vt 0.632665 0.407356
vt 0.627902 0.418853
vt 0.516109 0.523912
vt 0.527605 0.519149
vt 0.598526 0.400565
vt 0.598526 0.413009
vt 0.509318 0.489773
vt 0.521762 0.489773
vt 0.564387 0.407356
vt 0.569150 0.418853
vt 0.516108 0.455635
vt 0.527605 0.460397
vt 0.535446 0.426694
vt 0.544246 0.435493
vn 0.921099 0.000000 -0.389329
vn 0.921099 0.000000 -0.389329
vn 0.999974 0.000000 -0.007206
vn 0.999974 0.000000 -0.007206
vn 0.701994 0.000000 -0.712183
vn 0.701994 0.000000 -0.712183
vn 0.376017 0.000000 -0.926613
vn 0.376017 0.000000 -0.926613
vn -0.007204 0.000000 -0.999974
vn -0.007204 0.000000 -0.999974
vn -0.389331 0.000000 -0.921098
vn -0.389331 0.000000 -0.921098
vn -0.712183 0.000000 -0.701993
vn -0.712183 0.000000 -0.701993
vn -0.926612 0.000000 -0.376019
vn -0.926612 0.000000 -0.376019
vn -0.999974 0.000000 0.007205
vn -0.999974 0.000000 0.007205
vn -0.921098 0.000000 0.389331
vn -0.921098 0.000000 0.389331
vn -0.701993 0.000000 0.712184
vn -0.701993 0.000000 0.712184
vn -0.376016 0.000000 0.926613
vn -0.376016 0.000000 0.926613
vn 0.007206 0.000000 0.999974
vn 0.007206 0.000000 0.999974
vn 0.389330 0.000000 0.921098
vn 0.389330 0.000000 0.921098
vn 0.712182 0.000000 0.701994
vn 0.712182 0.000000 0.701994
vn 0.926613 0.000000 0.376017
vn 0.926613 0.000000 0.376017
vn 0.000000 -1.000000 0.000000
vn 0.000000 -1.000000 0.000000
vn 0.000000 -1.000000 0.000000
vn 0.000000 -1.000000 0.000000
vn 0.000000 -1.000000 0.000000
vn 0.000000 -1.000000 0.000000
vn 0.000000 -1.000000 0.000000
vn 0.000000 -1.000000 0.000000
vn 0.000000 -1.000000 0.000000
vn 0.000000 -1.000000 0.000000
vn 0.000000 -1.000000 0.000000
vn 0.000000 -1.000000 0.000000
vn 0.000000 -1.000000 0.000000
vn 0.000000 -1.000000 0.000000
vn 0.000000 -1.000000 0.000000
vn 0.000000 -1.000000 0.000000
vn 0.000000 -1.000000 0.000000
vn 0.000000 -1.000000 0.000000
vn 0.000000 -1.000000 0.000000
vn 0.000000 -1.000000 0.000000
vn 0.000000 -1.000000 0.000000
vn 0.000000 -1.000000 0.000000
vn 0.000000 -1.000000 0.000000
vn 0.000000 -1.000000 0.000000
vn 0.000000 -1.000000 0.000000
vn 0.000000 -1.000000 0.000000
vn 0.000000 -1.000000 0.000000
vn 0.000000 -1.000000 0.000000
vn 0.000000 -1.000000 0.000000
vn 0.000000 -1.000000 0.000000
vn 0.000000 -1.000000 0.000000
vn 0.000000 -1.000000 0.000000
vn 0.000000 1.000000 0.000000
vn 0.000000 1.000000 0.000000
vn 0.000000 1.000000 0.000000
vn 0.000000 1.000000 0.000000
vn 0.000000 1.000000 0.000000
vn 0.000000 1.000000 0.000000
vn 0.000000 1.000000 0.000000
vn 0.000000 1.000000 0.000000
vn 0.000000 1.000000 0.000000
vn 0.000000 1.000000 0.000000
vn 0.000000 1.000000 0.000000
vn 0.000000 1.000000 0.000000
vn 0.000000 1.000000 0.000000
vn 0.000000 1.000000 0.000000
vn 0.000000 1.000000 0.000000
vn 0.000000 1.000000 0.000000
vn 0.000000 1.000000 0.000000
vn 0.000000 1.000000 0.000000
vn 0.000000 1.000000 0.000000
vn 0.000000 1.000000 0.000000
vn 0.000000 1.000000 0.000000
vn 0.000000 1.000000 0.000000
vn 0.000000 1.000000 0.000000
vn 0.000000 1.000000 0.000000
vn 0.000000 1.000000 0.000000
vn 0.000000 1.000000 0.000000
vn 0.000000 1.000000 0.000000
vn 0.000000 1.000000 0.000000
vn 0.000000 1.000000 0.000000
vn 0.000000 1.000000 0.000000
vn 0.000000 1.000000 0.000000
vn 0.000000 1.000000 0.000000
s 1
g Pipe_A_HLW_LOD_0 group2
usemtl lambert6SG
f 2/4/1 18/11/2 17/13/3 1/6/4
f 3/1/5 19/9/6 18/11/2 2/4/1
f 4/2/7 20/8/8 19/9/6 3/1/5
f 5/3/9 21/10/10 20/8/8 4/2/7
f 6/5/11 22/12/12 21/10/10 5/3/9
f 7/7/13 23/14/14 22/12/12 6/5/11
f 8/15/15 24/19/16 23/14/14 7/7/13
f 9/16/17 25/20/18 24/19/16 8/15/15
f 10/17/19 26/21/20 25/20/18 9/16/17
f 11/18/21 27/22/22 26/21/20 10/17/19
f 12/23/23 28/27/24 27/22/22 11/18/21
f 13/24/25 29/28/26 28/27/24 12/23/23
f 14/25/27 30/29/28 29/28/26 13/24/25
f 15/26/29 31/30/30 30/29/28 14/25/27
f 16/31/31 32/33/32 31/30/30 15/26/29
f 1/32/4 17/34/3 32/33/32 16/31/31
s 2
f 2/35/33 1/36/34 33/37/35 34/38/36
f 3/41/37 2/35/33 34/38/36 35/42/38
f 4/45/39 3/41/37 35/42/38 36/46/40
f 5/49/41 4/45/39 36/46/40 37/50/42
f 6/53/43 5/49/41 37/50/42 38/54/44
f 7/57/45 6/53/43 38/54/44 39/58/46
f 8/61/47 7/57/45 39/58/46 40/62/48
f 9/65/49 8/61/47 40/62/48 41/66/50
f 10/63/51 9/65/49 41/66/50 42/64/52
f 11/59/53 10/63/51 42/64/52 43/60/54
f 12/55/55 11/59/53 43/60/54 44/56/56
f 13/51/57 12/55/55 44/56/56 45/52/58
f 14/47/59 13/51/57 45/52/58 46/48/60
f 15/43/61 14/47/59 46/48/60 47/44/62
f 16/39/63 15/43/61 47/44/62 48/40/64
f 1/36/34 16/39/63 48/40/64 33/37/35
s 3
f 17/67/65 18/68/66 50/69/67 49/70/68
f 18/68/66 19/71/69 51/72/70 50/69/67
f 19/71/69 20/75/71 52/76/72 51/72/70
f 20/75/71 21/79/73 53/80/74 52/76/72
f 21/79/73 22/83/75 54/84/76 53/80/74
f 22/83/75 23/87/77 55/88/78 54/84/76
f 23/87/77 24/91/79 56/92/80 55/88/78
f 24/91/79 25/95/81 57/96/82 56/92/80
f 25/95/81 26/97/83 58/98/84 57/96/82
f 26/97/83 27/93/85 59/94/86 58/98/84
f 27/93/85 28/89/87 60/90/88 59/94/86
f 28/89/87 29/85/89 61/86/90 60/90/88
f 29/85/89 30/81/91 62/82/92 61/86/90
f 30/81/91 31/77/93 63/78/94 62/82/92
f 31/77/93 32/73/95 64/74/96 63/78/94
f 32/73/95 17/67/65 49/70/68 64/74/96
