# This file uses centimeters as units for non-parametric coordinates.

mtllib Pipe_Bend_Damaged_Open_A_LOD_1.mtl
g default
v 0.546625 0.000000 -0.565686
v -0.019058 0.000000 -0.800000
v -0.584744 0.000000 -0.565686
v -0.819060 0.000000 0.000000
v -0.584744 0.000000 0.565686
v -0.019061 0.000000 0.800000
v 0.546625 0.000000 0.565686
v 0.780939 0.000000 0.000000
v 0.561426 2.524298 -0.565686
v -0.000000 2.593567 -0.800000
v -0.561430 2.662835 -0.565686
v -0.793982 2.691527 0.000000
v -0.561432 2.662835 0.565686
v -0.000003 2.593567 0.800000
v 0.561426 2.524298 0.565686
v 0.793976 2.495606 0.000000
v 0.622653 2.825013 -0.565686
v 0.078836 2.980776 -0.800000
v -0.388046 3.107837 -0.531766
v -0.613303 3.172357 0.033917
v -0.464984 3.136539 0.565686
v 0.078833 2.980776 0.800000
v 0.622653 2.825013 0.565686
v 0.847910 2.760494 0.000000
v 0.729913 3.112543 -0.565686
v 0.216949 3.351007 -0.800000
v -0.219081 3.560771 -0.531766
v -0.431558 3.659546 0.033917
v -0.296019 3.589472 0.565686
v 0.216946 3.351007 0.800000
v 0.729913 3.112543 0.565686
v 0.942392 3.013767 0.000000
v 0.880597 3.379886 -0.565686
v 0.410974 3.695246 -0.692065
v -0.058652 4.010606 -0.565686
v -0.253177 4.141232 0.000000
v -0.058652 4.010606 0.565686
v 0.410974 3.695246 0.800000
v 0.880597 3.379886 0.565686
v 1.075122 3.249260 0.000000
v 1.071039 3.620534 -0.565686
v 0.656189 4.005111 -0.692065
v 0.241339 4.389688 -0.565686
v 0.069501 4.548985 0.000000
v 0.241339 4.389688 0.565686
v 0.656189 4.005111 0.800000
v 1.071039 3.620534 0.565686
v 1.242874 3.461237 0.000000
v 1.296594 3.828627 -0.565686
v 0.946619 4.273057 -0.800000
v 0.596646 4.717488 -0.565686
v 0.488788 4.835380 -0.025830
v 0.677267 4.533299 0.413327
v 0.946619 4.273058 0.800000
v 1.296594 3.828627 0.565686
v 1.441559 3.644538 0.000000
v 1.551776 3.999098 -0.565686
v 1.275198 4.492561 -0.800000
v 0.998624 4.986024 -0.565686
v 0.921167 5.124226 -0.025830
v 1.079242 4.801836 0.413327
v 1.286047 4.469081 0.727002
v 1.551776 3.999099 0.565686
v 1.666336 3.794700 0.000000
v 1.830371 4.127798 -0.565686
v 1.633926 4.658278 -0.800000
v 1.437482 5.188759 -0.565686
v 1.393219 5.342293 -0.025830
v 1.518100 5.004571 0.413327
v 1.644772 4.634797 0.727002
v 1.830371 4.127798 0.565686
v 1.911740 3.908066 0.000000
v 2.055371 4.201998 -0.565686
v 2.014062 4.766173 -0.800000
v 1.972754 5.330348 -0.565686
v 1.955646 5.564038 0.000000
v 1.972754 5.330349 0.565686
v 2.014062 4.766173 0.800000
v 2.055371 4.201998 0.565686
v 2.072482 3.968309 0.000000
v 4.423538 4.233600 -0.565686
v 4.428476 4.799264 -0.800000
v 4.433414 5.364927 -0.565686
v 4.435458 5.599234 0.000000
v 4.433414 5.364928 0.565686
v 4.428476 4.799264 0.800000
v 4.423538 4.233600 0.565686
v 4.421494 3.999294 0.000000
v 0.467715 0.000000 -0.486774
v -0.019061 0.000000 -0.688403
v -0.505833 0.000000 -0.486774
v -0.707462 0.000000 0.000000
v -0.505835 0.000000 0.486774
v -0.019061 0.000000 0.688403
v 0.467715 0.000000 0.486774
v 0.669342 0.000000 0.000000
v 4.424228 4.312508 -0.486774
v 4.428476 4.799264 -0.688403
v 4.432724 5.286020 -0.486774
v 4.434485 5.487641 0.000000
v 4.432724 5.286020 0.486774
v 4.428476 4.799264 0.688403
v 4.424228 4.312508 0.486774
v 4.422467 4.110887 0.000000
vt 0.378830 1.000000
vt 0.378830 0.735018
vt 0.378830 0.676596
vt 0.440249 1.000000
vt 0.440249 0.735018
vt 0.317410 1.000000
vt 0.317410 0.735018
vt 0.378830 0.618173
vt 0.440249 0.676596
vt 0.316816 0.677376
vt 0.377155 0.559750
vt 0.440249 0.618173
vt 0.318311 0.616987
vt 0.377155 0.501327
vt 0.440249 0.559750
vt 0.317410 0.559750
vt 0.378830 0.442904
vt 0.440249 0.501327
vt 0.317410 0.501327
vt 0.378830 0.384481
vt 0.440249 0.442904
vt 0.317410 0.442904
vt 0.378830 0.326058
vt 0.440249 0.384481
vt 0.317410 0.384481
vt 0.378830 0.267635
vt 0.440249 0.326058
vt 0.317410 0.326058
vt 0.378830 0.000000
vt 0.440249 0.267635
vt 0.317410 0.267635
vt 0.440249 0.000000
vt 0.317410 0.000000
vt 0.252021 1.000000
vt 0.252021 0.735018
vt 0.248339 0.677324
vt 0.185938 1.000000
vt 0.185938 0.735018
vt 0.248339 0.617444
vt 0.185938 0.676596
vt 0.252021 0.559750
vt 0.185938 0.618173
vt 0.252021 0.501327
vt 0.185938 0.559750
vt 0.254029 0.444096
vt 0.185938 0.501327
vt 0.253909 0.384925
vt 0.186812 0.448941
vt 0.254160 0.328081
vt 0.190220 0.388575
vt 0.252021 0.267635
vt 0.186914 0.329373
vt 0.252021 0.000000
vt 0.185938 0.267635
vt 0.185938 0.000000
vt 0.124355 1.000000
vt 0.124355 0.735018
vt 0.124355 0.676596
vt 0.062936 1.000000
vt 0.062936 0.735018
vt 0.124355 0.618173
vt 0.062936 0.676596
vt 0.124355 0.559750
vt 0.062935 0.618173
vt 0.124355 0.501327
vt 0.062935 0.559750
vt 0.124355 0.442904
vt 0.062935 0.501327
vt 0.126093 0.384972
vt 0.062935 0.442904
vt 0.125644 0.326197
vt 0.062935 0.384481
vt 0.124355 0.267635
vt 0.062935 0.326058
vt 0.124355 0.000000
vt 0.062935 0.267635
vt 0.062935 0.000000
vt 0.000337 1.000000
vt 0.500000 0.735018
vt 0.000337 0.735018
vt 0.000337 0.676596
vt 0.500000 0.676596
vt 0.000337 0.618173
vt 0.500000 0.618173
vt 0.000337 0.559750
vt 0.500000 0.559750
vt 0.000337 0.501327
vt 0.500000 0.501327
vt 0.000337 0.442904
vt 0.500000 0.442904
vt 0.000337 0.384481
vt 0.500000 0.384481
vt 0.000337 0.326058
vt 0.500000 0.326058
vt 0.000337 0.267635
vt 0.500000 0.267635
vt 0.620999 0.234421
vt 0.500000 0.000000
vt 0.500000 1.000000
vt 0.557919 0.260550
vt 0.566719 0.269349
vt 0.620999 0.234421
vt 0.620999 0.246866
vt 0.531791 0.323630
vt 0.544235 0.323630
vt 0.684079 0.260550
vt 0.675279 0.269349
vt 0.557919 0.386709
vt 0.566718 0.377910
vt 0.710207 0.323630
vt 0.697763 0.323630
vt 0.620999 0.412838
vt 0.620999 0.400394
vt 0.684079 0.386709
vt 0.675279 0.377910
vt 0.679918 0.458735
vt 0.671119 0.467534
vt 0.616839 0.432606
vt 0.616839 0.445051
vt 0.706047 0.521815
vt 0.693603 0.521815
vt 0.553759 0.458735
vt 0.562558 0.467534
vt 0.679918 0.584894
vt 0.671119 0.576095
vt 0.527631 0.521815
vt 0.540075 0.521815
vt 0.616839 0.611023
vt 0.616839 0.598579
vt 0.553759 0.584894
vt 0.562558 0.576095
vt 0.616839 0.432606
vt 0.000337 0.000000
vt 0.616839 0.445051
vt 0.620999 0.246866
vn 0.702464 -0.072862 -0.707980
vn 0.707949 -0.004148 -0.706252
vn 0.000018 0.000300 -1.000000
vn -0.008856 0.023007 -0.999696
vn -0.707899 0.006195 -0.706287
vn -0.698926 0.143119 -0.700728
vn -0.999959 0.009037 -0.000001
vn -0.985349 0.170107 -0.012324
vn -0.707900 0.006195 0.706286
vn -0.708740 0.092996 0.699313
vn 0.000016 0.000300 1.000000
vn 0.000008 0.000150 1.000000
vn 0.707948 -0.004148 0.706252
vn 0.702463 -0.072862 0.707981
vn 0.999985 -0.005545 0.000000
vn 0.994680 -0.103017 -0.000000
vn 0.679469 -0.194617 -0.707422
vn -0.035537 0.033057 -0.998821
vn -0.688644 0.268505 -0.673553
vn -0.940558 0.337183 -0.040715
vn -0.702634 0.220531 0.676514
vn -0.000000 0.000000 1.000000
vn 0.679468 -0.194617 0.707423
vn 0.961343 -0.275353 0.000000
vn 0.646541 -0.255061 -0.718978
vn -0.012494 0.061874 -0.998006
vn -0.669898 0.269414 -0.691848
vn -0.931593 0.361215 -0.040715
vn -0.675399 0.293538 0.676515
vn -0.000000 0.000000 1.000000
vn 0.640921 -0.297946 0.707423
vn 0.906806 -0.421547 0.000000
vn 0.570253 -0.332001 -0.751389
vn 0.013102 0.050054 -0.998661
vn -0.574741 0.339251 -0.744702
vn -0.865040 0.501552 -0.012290
vn -0.603984 0.383577 0.698622
vn 0.000000 -0.000000 1.000000
vn 0.586768 -0.394025 0.707423
vn 0.830187 -0.557484 0.000000
vn 0.454171 -0.478689 -0.751389
vn -0.050065 -0.045782 -0.997696
vn -0.500543 0.446162 -0.741887
vn -0.656537 0.753092 0.042570
vn -0.403604 0.595571 0.694550
vn 0.026255 0.085206 0.996017
vn 0.518329 -0.480508 0.707423
vn 0.733356 -0.679845 0.000000
vn 0.396826 -0.570613 -0.718978
vn -0.051461 -0.047059 -0.997566
vn -0.455402 0.557287 -0.694291
vn -0.523770 0.840168 0.140648
vn -0.309293 0.675464 0.669392
vn 0.011924 0.198048 0.980120
vn 0.451569 -0.534185 0.714655
vn 0.618672 -0.785649 0.000000
vn 0.345565 -0.616553 -0.707423
vn -0.000000 0.000000 -1.000000
vn -0.363568 0.648674 -0.668610
vn -0.479241 0.854936 0.198526
vn -0.334330 0.635631 0.695843
vn -0.056277 0.197870 0.978611
vn 0.353276 -0.579863 0.734135
vn 0.488922 -0.872328 0.000000
vn 0.261340 -0.658874 -0.705398
vn 0.002682 0.000610 -0.999996
vn -0.263200 0.686756 -0.677563
vn -0.418683 0.897042 0.141493
vn -0.384792 0.612868 0.690166
vn -0.162981 0.100948 0.981451
vn 0.225787 -0.641021 0.733562
vn 0.374641 -0.927170 0.000000
vn 0.118107 -0.694879 -0.709362
vn 0.002645 0.000609 -0.999996
vn -0.112023 0.705222 -0.700080
vn -0.222509 0.973984 0.042956
vn -0.254572 0.661226 0.705672
vn -0.120291 0.013473 0.992647
vn 0.089329 -0.691262 0.717062
vn 0.173624 -0.984812 0.000000
vn 0.009438 -0.707297 -0.706853
vn -0.000073 -0.000002 -1.000000
vn -0.009939 0.707287 -0.706857
vn -0.014122 0.999900 -0.000000
vn -0.009939 0.707287 0.706856
vn -0.000073 -0.000002 1.000000
vn 0.009438 -0.707297 0.706854
vn 0.013267 -0.999912 0.000000
vn 0.000000 -1.000000 0.000000
vn 0.000000 -1.000000 0.000000
vn 0.000000 -1.000000 0.000000
vn 0.000000 -1.000000 0.000000
vn 0.000000 -1.000000 0.000000
vn 0.000000 -1.000000 0.000000
vn 0.000000 -1.000000 0.000000
vn 0.000000 -1.000000 0.000000
vn 0.000000 -1.000000 0.000000
vn 0.000000 -1.000000 0.000000
vn 0.000000 -1.000000 0.000000
vn 0.000000 -1.000000 0.000000
vn 0.000000 -1.000000 0.000000
vn 0.000000 -1.000000 0.000000
vn 0.000000 -1.000000 0.000000
vn 0.000000 -1.000000 0.000000
vn 0.999962 -0.008729 0.000000
vn 0.999962 -0.008730 -0.000002
vn 0.999962 -0.008730 -0.000002
vn 0.999962 -0.008729 0.000000
vn 0.999962 -0.008731 0.000002
vn 0.999962 -0.008731 0.000002
vn 0.999962 -0.008732 0.000000
vn 0.999962 -0.008732 0.000000
vn 0.999962 -0.008730 -0.000002
vn 0.999962 -0.008730 -0.000002
vn 0.999962 -0.008729 0.000000
vn 0.999962 -0.008729 0.000000
vn 0.999962 -0.008730 0.000002
vn 0.999962 -0.008730 0.000002
vn 0.999962 -0.008730 0.000000
vn 0.999962 -0.008730 0.000000
s 1
g Pipe_A_Bend_Damg_HLW_LOD_1 group2
usemtl lambert6SG
f 9/5/1 1/4/2 2/1/3 10/2/4
f 10/2/4 2/1/3 3/6/5 11/7/6
f 11/7/6 3/6/5 4/34/7 12/35/8
f 12/35/8 4/34/7 5/37/9 13/38/10
f 13/38/10 5/37/9 6/56/11 14/57/12
f 14/57/12 6/56/11 7/59/13 15/60/14
f 15/60/14 7/59/13 8/78/15 16/80/16
f 16/79/16 8/99/15 1/4/2 9/5/1
f 17/9/17 9/5/1 10/2/4 18/3/18
f 18/3/18 10/2/4 11/7/6 19/10/19
f 19/10/19 11/7/6 12/35/8 20/36/20
f 20/36/20 12/35/8 13/38/10 21/40/21
f 21/40/21 13/38/10 14/57/12 22/58/22
f 22/58/22 14/57/12 15/60/14 23/62/23
f 23/62/23 15/60/14 16/80/16 24/81/24
f 24/82/24 16/79/16 9/5/1 17/9/17
f 25/12/25 17/9/17 18/3/18 26/8/26
f 26/8/26 18/3/18 19/10/19 27/13/27
f 27/13/27 19/10/19 20/36/20 28/39/28
f 28/39/28 20/36/20 21/40/21 29/42/29
f 29/42/29 21/40/21 22/58/22 30/61/30
f 30/61/30 22/58/22 23/62/23 31/64/31
f 31/64/31 23/62/23 24/81/24 32/83/32
f 32/84/32 24/82/24 17/9/17 25/12/25
f 33/15/33 25/12/25 26/8/26 34/11/34
f 34/11/34 26/8/26 27/13/27 35/16/35
f 35/16/35 27/13/27 28/39/28 36/41/36
f 36/41/36 28/39/28 29/42/29 37/44/37
f 37/44/37 29/42/29 30/61/30 38/63/38
f 38/63/38 30/61/30 31/64/31 39/66/39
f 39/66/39 31/64/31 32/83/32 40/85/40
f 40/86/40 32/84/32 25/12/25 33/15/33
f 41/18/41 33/15/33 34/11/34 42/14/42
f 42/14/42 34/11/34 35/16/35 43/19/43
f 43/19/43 35/16/35 36/41/36 44/43/44
f 44/43/44 36/41/36 37/44/37 45/46/45
f 45/46/45 37/44/37 38/63/38 46/65/46
f 46/65/46 38/63/38 39/66/39 47/68/47
f 47/68/47 39/66/39 40/85/40 48/87/48
f 48/88/48 40/86/40 33/15/33 41/18/41
f 49/21/49 41/18/41 42/14/42 50/17/50
f 50/17/50 42/14/42 43/19/43 51/22/51
f 51/22/51 43/19/43 44/43/44 52/45/52
f 52/45/52 44/43/44 45/46/45 53/48/53
f 53/48/53 45/46/45 46/65/46 54/67/54
f 54/67/54 46/65/46 47/68/47 55/70/55
f 55/70/55 47/68/47 48/87/48 56/89/56
f 56/90/56 48/88/48 41/18/41 49/21/49
f 57/24/57 49/21/49 50/17/50 58/20/58
f 58/20/58 50/17/50 51/22/51 59/25/59
f 59/25/59 51/22/51 52/45/52 60/47/60
f 60/47/60 52/45/52 53/48/53 61/50/61
f 61/50/61 53/48/53 54/67/54 62/69/62
f 62/69/62 54/67/54 55/70/55 63/72/63
f 63/72/63 55/70/55 56/89/56 64/91/64
f 64/92/64 56/90/56 49/21/49 57/24/57
f 65/27/65 57/24/57 58/20/58 66/23/66
f 66/23/66 58/20/58 59/25/59 67/28/67
f 67/28/67 59/25/59 60/47/60 68/49/68
f 68/49/68 60/47/60 61/50/61 69/52/69
f 69/52/69 61/50/61 62/69/62 70/71/70
f 70/71/70 62/69/62 63/72/63 71/74/71
f 71/74/71 63/72/63 64/91/64 72/93/72
f 72/94/72 64/92/64 57/24/57 65/27/65
f 73/30/73 65/27/65 66/23/66 74/26/74
f 74/26/74 66/23/66 67/28/67 75/31/75
f 75/31/75 67/28/67 68/49/68 76/51/76
f 76/51/76 68/49/68 69/52/69 77/54/77
f 77/54/77 69/52/69 70/71/70 78/73/78
f 78/73/78 70/71/70 71/74/71 79/76/79
f 79/76/79 71/74/71 72/93/72 80/95/80
f 80/96/80 72/94/72 65/27/65 73/30/73
f 81/32/81 73/30/73 74/26/74 82/29/82
f 82/29/82 74/26/74 75/31/75 83/33/83
f 83/33/83 75/31/75 76/51/76 84/53/84
f 84/53/84 76/51/76 77/54/77 85/55/85
f 85/55/85 77/54/77 78/73/78 86/75/86
f 86/75/86 78/73/78 79/76/79 87/77/87
f 87/77/87 79/76/79 80/95/80 88/133/88
f 88/98/88 80/96/80 73/30/73 81/32/81
s 2
f 96/135/89 89/101/90 1/100/91 8/97/92
f 89/101/90 90/105/93 2/104/94 1/100/91
f 90/105/93 91/109/95 3/108/96 2/104/94
f 91/109/95 92/113/97 4/112/98 3/108/96
f 92/113/97 93/115/99 5/114/100 4/112/98
f 93/115/99 94/111/101 6/110/102 5/114/100
f 94/111/101 95/107/103 7/106/104 6/110/102
f 95/107/103 96/103/89 8/102/92 7/106/104
s 3
f 98/121/105 97/117/106 81/116/107 82/120/108
f 99/125/109 98/121/105 82/120/108 83/124/110
f 100/129/111 99/125/109 83/124/110 84/128/112
f 101/131/113 100/129/111 84/128/112 85/130/114
f 102/127/115 101/131/113 85/130/114 86/126/116
f 103/123/117 102/127/115 86/126/116 87/122/118
f 104/134/119 103/123/117 87/122/118 88/132/120
f 97/117/106 104/119/119 88/118/120 81/116/107
