# This file uses centimeters as units for non-parametric coordinates.

mtllib Pipe_Mid_B_LOD_1.mtl
g default
v 0.879977 -0.000000 -0.006341
v 0.617755 -0.000000 -0.626721
v -0.006340 -0.000000 -0.879978
v -0.626722 -0.000000 -0.617755
v -0.879978 -0.000000 0.006340
v -0.617755 -0.000000 0.626721
v 0.006340 -0.000000 0.879977
v 0.626721 -0.000000 0.617753
v 0.879977 1.645148 -0.006341
v 0.617755 1.645148 -0.626721
v -0.006340 1.645148 -0.879978
v -0.626722 1.645148 -0.617755
v -0.879978 1.645148 0.006340
v -0.617755 1.645148 0.626721
v 0.006340 1.645148 0.879977
v 0.626721 1.645148 0.617753
v -0.000000 -0.000000 -0.000000
v -0.000000 1.645148 -0.000000
v 0.006340 1.363385 0.879977
v -0.617755 1.363385 0.626721
v -0.879978 1.363385 0.006340
v -0.626722 1.363385 -0.617755
v -0.006340 1.363385 -0.879978
v 0.617755 1.363385 -0.626721
v 0.879977 1.363385 -0.006341
v 0.626721 1.363385 0.617753
v 0.005985 1.278994 0.830681
v -0.583148 1.278994 0.591611
v -0.830682 1.278994 0.005984
v -0.591613 1.278994 -0.583150
v -0.005986 1.278994 -0.830682
v 0.583148 1.278994 -0.591614
v 0.830681 1.278994 -0.005987
v 0.591613 1.278994 0.583148
v 0.005985 0.343459 0.830681
v -0.583149 0.343459 0.591611
v -0.830683 0.343459 0.005984
v -0.591613 0.343459 -0.583150
v -0.005986 0.343459 -0.830682
v 0.583147 0.343459 -0.591614
v 0.830681 0.343459 -0.005987
v 0.591613 0.343459 0.583148
v 0.006340 0.263112 0.879977
v -0.617755 0.263112 0.626721
v -0.879979 0.263112 0.006340
v -0.626722 0.263112 -0.617755
v -0.006340 0.263112 -0.879978
v 0.617754 0.263112 -0.626721
v 0.879977 0.263112 -0.006341
v 0.626721 0.263112 0.617753
vt 0.058307 0.818939
vt 0.123585 0.818939
vt 0.000017 0.818941
vt 0.185604 0.818939
vt 0.058299 0.965907
vt 0.123591 0.965907
vt 0.000011 0.965894
vt 0.185603 0.965907
vt 0.250903 0.818939
vt 0.310952 0.818939
vt 0.250910 0.965907
vt 0.310949 0.965907
vt 0.376245 0.818939
vt 0.436293 0.818939
vt 0.376252 0.965907
vt 0.436291 0.965907
vt 0.499979 0.818941
vt 0.499990 0.965894
vt 0.620874 0.401158
vt 0.709524 0.401797
vt 0.683107 0.464294
vt 0.684010 0.338925
vt 0.620235 0.489808
vt 0.621512 0.312508
vt 0.557737 0.463391
vt 0.558640 0.338021
vt 0.532224 0.400519
vt 0.709721 0.586511
vt 0.621068 0.587150
vt 0.683303 0.524011
vt 0.684207 0.649385
vt 0.620429 0.498497
vt 0.621707 0.675802
vt 0.557930 0.524915
vt 0.558833 0.650288
vt 0.532416 0.587789
vt 0.376001 0.940746
vt 0.310876 0.940746
vt 0.250660 0.940746
vt 0.185428 0.940746
vt 0.123305 0.940746
vt 0.058518 0.940746
vt 0.500160 0.940746
vt 0.000035 0.940746
vt 0.436246 0.940746
vt 0.374831 0.933206
vt 0.311183 0.933206
vt 0.249489 0.933206
vt 0.185276 0.933206
vt 0.122228 0.933206
vt 0.059771 0.933206
vt 0.498924 0.933205
vt 0.000843 0.933205
vt 0.436478 0.933206
vt 0.374825 0.849625
vt 0.311184 0.849625
vt 0.249483 0.849625
vt 0.185275 0.849625
vt 0.122223 0.849625
vt 0.059778 0.849625
vt 0.498913 0.849628
vt 0.000851 0.849628
vt 0.436478 0.849625
vt 0.376098 0.842442
vt 0.310910 0.842442
vt 0.250757 0.842442
vt 0.185502 0.842442
vt 0.123418 0.842442
vt 0.058436 0.842442
vt 0.500144 0.842436
vt 0.000043 0.842436
vt 0.436268 0.842442
vn 0.675032 0.274481 -0.684830
vn 0.961568 0.274478 -0.006928
vn 0.999974 0.000000 -0.007205
vn 0.701994 0.000000 -0.712182
vn -0.006929 0.274478 -0.961568
vn -0.007204 0.000000 -0.999974
vn -0.684830 0.274478 -0.675033
vn -0.712183 0.000000 -0.701994
vn -0.961567 0.274482 0.006928
vn -0.999974 0.000000 0.007205
vn -0.675031 0.274485 0.684830
vn -0.701993 0.000000 0.712184
vn 0.006929 0.274482 0.961567
vn 0.007205 0.000000 0.999974
vn 0.712184 0.000000 0.701993
vn 0.684831 0.274477 0.675032
vn 0.000000 1.000000 -0.000000
vn 0.000000 1.000000 -0.000000
vn 0.000000 1.000000 -0.000000
vn 0.000000 1.000000 0.000000
vn 0.000000 1.000000 0.000000
vn 0.000000 1.000000 0.000000
vn 0.000000 1.000000 0.000000
vn 0.000000 1.000000 -0.000001
vn 0.000000 1.000000 -0.000000
vn 0.000000 -1.000000 -0.000000
vn 0.000000 -1.000000 -0.000000
vn 0.000000 -1.000000 -0.000000
vn 0.000000 -1.000000 0.000000
vn 0.000000 -1.000000 0.000000
vn 0.000000 -1.000000 0.000000
vn 0.000000 -1.000000 0.000000
vn 0.000000 -1.000000 -0.000000
vn 0.000000 -1.000000 0.000000
vn 0.712184 0.000000 0.701993
vn 0.007206 0.000000 0.999974
vn 0.006950 -0.263755 0.964565
vn 0.686966 -0.263750 0.677136
vn -0.701993 0.000000 0.712183
vn -0.677135 -0.263757 0.686964
vn -0.999974 0.000000 0.007205
vn -0.964565 -0.263754 0.006949
vn -0.712183 0.000000 -0.701994
vn -0.686965 -0.263751 -0.677137
vn -0.007205 0.000000 -0.999974
vn -0.006950 -0.263751 -0.964566
vn 0.701994 0.000000 -0.712182
vn 0.677137 -0.263752 -0.686965
vn 0.999974 0.000000 -0.007205
vn 0.964566 -0.263750 -0.006949
vn 0.006222 -0.504400 0.863448
vn 0.614953 -0.504391 0.606154
vn -0.606149 -0.504404 0.614947
vn -0.863448 -0.504399 0.006220
vn -0.614951 -0.504393 -0.606154
vn -0.006222 -0.504393 -0.863452
vn 0.606153 -0.504396 -0.614950
vn 0.863452 -0.504392 -0.006219
vn 0.712183 0.000000 0.701993
vn 0.007204 0.000000 0.999974
vn 0.007204 0.000000 0.999974
vn 0.712183 0.000000 0.701993
vn -0.701994 0.000000 0.712183
vn -0.701994 0.000000 0.712183
vn -0.999974 0.000000 0.007205
vn -0.999974 0.000000 0.007205
vn -0.712182 0.000000 -0.701995
vn -0.712182 0.000000 -0.701995
vn -0.007205 -0.000000 -0.999974
vn -0.007205 -0.000000 -0.999974
vn 0.701993 -0.000000 -0.712184
vn 0.701993 -0.000000 -0.712184
vn 0.999974 0.000000 -0.007206
vn 0.999974 0.000000 -0.007206
vn 0.607035 0.522962 0.598348
vn 0.006143 0.522971 0.852329
vn -0.598343 0.522975 0.607028
vn -0.852329 0.522970 0.006140
vn -0.607032 0.522963 -0.598350
vn -0.006142 0.522964 -0.852333
vn 0.598345 0.522968 -0.607032
vn 0.852333 0.522964 -0.006141
s 1
g Pipe_A_Mid_Ring_LOD_1 group2
usemtl lambert7SG
f 48/69/1 49/71/2 1/3/3 2/1/4
f 47/68/5 48/69/1 2/1/4 3/2/6
f 46/67/7 47/68/5 3/2/6 4/4/8
f 45/66/9 46/67/7 4/4/8 5/9/10
f 44/65/11 45/66/9 5/9/10 6/10/12
f 43/64/13 44/65/11 6/10/12 7/13/14
f 43/64/13 7/13/14 8/14/15 50/72/16
f 49/70/2 50/72/16 8/14/15 1/17/3
s 2
f 18/19/17 9/20/18 10/21/19
f 18/19/17 10/21/19 11/23/20
f 18/19/17 11/23/20 12/25/21
f 18/19/17 12/25/21 13/27/22
f 18/19/17 13/27/22 14/26/23
f 18/19/17 14/26/23 15/24/24
f 18/19/17 15/24/24 16/22/25
f 18/19/17 16/22/25 9/20/18
s 3
f 2/30/26 1/28/27 17/29/28
f 3/32/29 2/30/26 17/29/28
f 4/34/30 3/32/29 17/29/28
f 5/36/31 4/34/30 17/29/28
f 6/35/32 5/36/31 17/29/28
f 7/33/33 6/35/32 17/29/28
f 8/31/34 7/33/33 17/29/28
f 1/28/27 8/31/34 17/29/28
s 4
f 16/16/35 15/15/36 19/37/37 26/45/38
f 15/15/36 14/12/39 20/38/40 19/37/37
f 14/12/39 13/11/41 21/39/42 20/38/40
f 13/11/41 12/8/43 22/40/44 21/39/42
f 12/8/43 11/6/45 23/41/46 22/40/44
f 11/6/45 10/5/47 24/42/48 23/41/46
f 10/5/47 9/7/49 25/44/50 24/42/48
f 9/18/49 16/16/35 26/45/38 25/43/50
f 26/45/38 19/37/37 27/46/51 34/54/52
f 19/37/37 20/38/40 28/47/53 27/46/51
f 20/38/40 21/39/42 29/48/54 28/47/53
f 21/39/42 22/40/44 30/49/55 29/48/54
f 22/40/44 23/41/46 31/50/56 30/49/55
f 23/41/46 24/42/48 32/51/57 31/50/56
f 24/42/48 25/44/50 33/53/58 32/51/57
f 25/43/50 26/45/38 34/54/52 33/52/58
s 5
f 34/54/59 27/46/60 35/55/61 42/63/62
f 27/46/60 28/47/63 36/56/64 35/55/61
f 28/47/63 29/48/65 37/57/66 36/56/64
f 29/48/65 30/49/67 38/58/68 37/57/66
f 30/49/67 31/50/69 39/59/70 38/58/68
f 31/50/69 32/51/71 40/60/72 39/59/70
f 32/51/71 33/53/73 41/62/74 40/60/72
f 33/52/73 34/54/59 42/63/62 41/61/74
s 1
f 42/63/75 35/55/76 43/64/13 50/72/16
f 35/55/76 36/56/77 44/65/11 43/64/13
f 36/56/77 37/57/78 45/66/9 44/65/11
f 37/57/78 38/58/79 46/67/7 45/66/9
f 38/58/79 39/59/80 47/68/5 46/67/7
f 39/59/80 40/60/81 48/69/1 47/68/5
f 40/60/81 41/62/82 49/71/2 48/69/1
f 41/61/82 42/63/75 50/72/16 49/70/2
