# This file uses centimeters as units for non-parametric coordinates.

mtllib Pipe_Bend_Open_C_LOD_1.mtl
g default
v 0.023998 0.876289 0.023052
v 0.489101 0.818905 -1.108315
v 1.611959 0.680367 -1.576946
v 2.734816 0.541830 -1.108315
v 3.199917 0.484446 0.023052
v 2.734816 0.541830 1.154427
v 1.611958 0.680367 1.623055
v 0.489101 0.818905 1.154427
v 0.000000 0.000000 0.000000
v 0.476767 0.000000 -1.127968
v 1.611485 0.000000 -1.588432
v 2.739450 0.000000 -1.111664
v 3.199917 0.000000 0.023052
v 2.723148 0.000000 1.151020
v 1.588430 0.000000 1.611485
v 0.460464 0.000000 1.134716
v 0.223186 0.000000 0.001606
v 0.633450 0.000000 -0.969013
v 1.609877 0.000000 -1.365246
v 2.580496 0.000000 -0.954983
v 2.976727 0.000000 0.021446
v 2.566467 0.000000 0.992065
v 1.590038 0.000000 1.388298
v 0.619421 0.000000 0.978035
v 0.223186 0.816207 0.001606
v 1.599957 0.816207 0.011528
v 0.633450 0.816207 -0.969013
v 1.609877 0.816207 -1.365246
v 2.580496 0.816207 -0.954983
v 2.976727 0.816207 0.021446
v 2.566467 0.816207 0.992065
v 1.590038 0.816207 1.388294
v 0.619421 0.816207 0.978035
v 2.857267 1.143260 -1.108315
v 1.769632 1.454785 -1.576946
v 0.681997 1.766311 -1.108315
v 0.231482 1.895349 0.023052
v 0.681995 1.766311 1.154427
v 1.769632 1.454786 1.623055
v 2.857267 1.143260 1.154427
v 3.307781 1.014222 0.023052
v 3.071791 1.718319 -1.108315
v 2.045858 2.195248 -1.576946
v 1.019924 2.672177 -1.108315
v 0.594969 2.869728 0.023052
v 1.019924 2.672178 1.154427
v 2.045856 2.195249 1.623055
v 3.071791 1.718320 1.154427
v 3.496746 1.520769 0.023052
v 3.373159 2.253006 -1.108315
v 2.433908 2.883726 -1.576946
v 1.494658 3.514446 -1.108315
v 1.105608 3.775699 0.023052
v 1.494658 3.514446 1.154427
v 2.433908 2.883727 1.623055
v 3.373159 2.253007 1.154427
v 3.762209 1.991754 0.023052
v 3.754038 2.734302 -1.108315
v 2.924337 3.503456 -1.576946
v 2.094637 4.272611 -1.108315
v 1.750965 4.591205 0.023052
v 2.094637 4.272611 1.154427
v 2.924337 3.503456 1.623055
v 3.754038 2.734303 1.154427
v 4.097710 2.415709 0.023052
v 4.205150 3.150488 -1.108315
v 3.505203 4.039349 -1.576946
v 2.805256 4.928210 -1.108315
v 2.515327 5.296389 0.023052
v 2.805256 4.928211 1.154427
v 3.505201 4.039350 1.623055
v 4.205150 3.150488 1.154427
v 4.495077 2.782310 0.023052
v 4.715513 3.491431 -1.108315
v 4.162361 4.478356 -1.576946
v 3.609209 5.465282 -1.108315
v 3.380085 5.874081 0.023052
v 3.609209 5.465283 1.154427
v 4.162361 4.478357 1.623055
v 4.715513 3.491432 1.154427
v 4.944636 3.082633 0.023052
v 5.272702 3.748830 -1.108315
v 4.879813 4.809790 -1.576946
v 4.486924 5.870751 -1.108315
v 4.324184 6.310217 0.023052
v 4.486924 5.870752 1.154427
v 4.879813 4.809791 1.623055
v 5.272702 3.748830 1.154427
v 5.435442 3.309365 0.023052
v 5.722706 3.897230 -1.108315
v 5.640089 5.025580 -1.576946
v 5.557472 6.153931 -1.108315
v 5.523251 6.621310 0.023052
v 5.557472 6.153932 1.154427
v 5.640089 5.025581 1.623055
v 5.722706 3.897231 1.154427
v 5.756927 3.429852 0.023052
v 6.599957 3.421392 0.000000
v 6.599957 3.898159 -1.127968
v 6.599957 5.032877 -1.588432
v 6.599957 6.160843 -1.111664
v 6.599957 6.621309 0.023052
v 6.599957 6.144541 1.151020
v 6.599957 5.009823 1.611485
v 6.599957 3.881857 1.134716
v 6.599957 3.644579 0.001606
v 6.599957 4.054842 -0.969013
v 6.599957 5.031269 -1.365246
v 6.599957 6.001888 -0.954983
v 6.599957 6.398119 0.021446
v 6.599957 5.987860 0.992065
v 6.599957 5.011431 1.388298
v 6.599957 4.040813 0.978035
vt 0.314425 0.745695
vt 0.377560 0.745665
vt 0.252297 0.745723
vt 0.439340 0.745636
vt 0.313587 0.784162
vt 0.377600 0.778742
vt 0.253874 0.786400
vt 0.439021 0.773080
vt 0.782939 0.495235
vt 0.725191 0.495225
vt 0.501911 0.745605
vt 0.782957 0.425857
vt 0.063731 0.745636
vt 0.725200 0.425845
vt 0.782980 0.376465
vt 0.004406 0.770488
vt 0.063992 0.773162
vt 0.725218 0.307054
vt 0.126764 0.745666
vt 0.782978 0.257672
vt 0.187199 0.745693
vt 0.725218 0.257666
vt 0.782981 0.188279
vt 0.725220 0.188273
vt 0.128460 0.778856
vt 0.189236 0.784240
vt 0.502624 0.770596
vt 0.782986 0.138881
vt 0.725224 0.138877
vt 0.782961 0.069409
vt 0.725204 0.069403
vt 0.004520 0.745609
vt 0.856597 0.286244
vt 0.903134 0.346013
vt 0.912598 0.270857
vt 0.827365 0.336492
vt 0.963401 0.299113
vt 0.842507 0.392694
vt 0.979102 0.355162
vt 0.893461 0.421667
vt 0.950106 0.406103
vt 0.685151 0.604804
vt 0.673670 0.600048
vt 0.636902 0.653053
vt 0.632146 0.641572
vt 0.685151 0.536569
vt 0.673670 0.541325
vt 0.568667 0.653053
vt 0.573423 0.641572
vt 0.636902 0.488320
vt 0.632146 0.499801
vt 0.520419 0.604804
vt 0.531899 0.600048
vt 0.568667 0.488320
vt 0.573423 0.499801
vt 0.520419 0.536569
vt 0.531899 0.541325
vt 0.725220 0.376455
vt 0.782978 0.307061
vt 0.782942 0.020206
vt 0.725193 0.020197
vt 0.440249 0.687242
vt 0.378830 0.687242
vt 0.317410 0.687242
vt 0.252021 0.687242
vt 0.185938 0.687242
vt 0.124355 0.687242
vt 0.062936 0.687242
vt 0.004520 0.687242
vt 0.500000 0.687242
vt 0.440249 0.628819
vt 0.378830 0.628819
vt 0.317410 0.628819
vt 0.252021 0.628819
vt 0.185938 0.628819
vt 0.124355 0.628819
vt 0.062935 0.628819
vt 0.004520 0.628819
vt 0.500000 0.628819
vt 0.440249 0.570396
vt 0.378830 0.570396
vt 0.317410 0.570396
vt 0.252021 0.570396
vt 0.185938 0.570396
vt 0.124355 0.570396
vt 0.062935 0.570396
vt 0.004520 0.570396
vt 0.500000 0.570396
vt 0.440249 0.511973
vt 0.378830 0.511973
vt 0.317410 0.511973
vt 0.252021 0.511973
vt 0.185938 0.511973
vt 0.124355 0.511973
vt 0.062935 0.511973
vt 0.004520 0.511973
vt 0.500000 0.511973
vt 0.440249 0.453550
vt 0.378830 0.453550
vt 0.317410 0.453550
vt 0.252021 0.453550
vt 0.185938 0.453550
vt 0.124355 0.453550
vt 0.062935 0.453550
vt 0.004520 0.453550
vt 0.500000 0.453550
vt 0.440249 0.395128
vt 0.378830 0.395128
vt 0.317410 0.395128
vt 0.252021 0.395128
vt 0.185938 0.395128
vt 0.124355 0.395128
vt 0.062935 0.395128
vt 0.004520 0.395128
vt 0.500000 0.395128
vt 0.440249 0.336705
vt 0.378830 0.336705
vt 0.317410 0.336705
vt 0.252021 0.336705
vt 0.185938 0.336705
vt 0.124355 0.336705
vt 0.062935 0.336705
vt 0.004520 0.336705
vt 0.500000 0.336705
vt 0.441021 0.278282
vt 0.377699 0.278282
vt 0.315776 0.278282
vt 0.250338 0.278282
vt 0.187394 0.278282
vt 0.124111 0.278282
vt 0.063760 0.278282
vt 0.004520 0.278282
vt 0.500107 0.278282
vt 0.499020 0.221633
vt 0.440524 0.220319
vt 0.376928 0.216366
vt 0.315140 0.212468
vt 0.249828 0.210906
vt 0.187495 0.212538
vt 0.123291 0.216468
vt 0.062649 0.220465
vt 0.003604 0.222122
vt 0.689442 0.413181
vt 0.677951 0.408421
vt 0.641174 0.461449
vt 0.636414 0.449957
vt 0.572912 0.461449
vt 0.577672 0.449957
vt 0.524644 0.413181
vt 0.536136 0.408421
vt 0.524644 0.344919
vt 0.536136 0.349679
vt 0.572912 0.296651
vt 0.577672 0.308143
vt 0.641174 0.296651
vt 0.636414 0.308143
vt 0.689442 0.344919
vt 0.677950 0.349679
vn -0.999603 0.026409 -0.009863
vn -0.992677 0.120790 0.001406
vn -0.730588 0.092732 -0.676492
vn -0.721609 0.028320 -0.691722
vn -0.065076 0.016143 -0.997750
vn -0.037829 0.019461 -0.999095
vn 0.664397 -0.066079 -0.744453
vn 0.685716 0.010016 -0.727800
vn 0.994232 -0.107241 0.001809
vn 0.999987 -0.003441 0.003804
vn 0.661597 -0.080055 0.745574
vn 0.677041 -0.018934 0.735702
vn -0.065713 0.000621 0.997838
vn -0.055151 -0.014052 0.998379
vn -0.729955 0.083754 0.678345
vn -0.735195 0.008433 0.677803
vn 0.000000 -1.000000 0.000000
vn 0.845092 -0.534587 0.006089
vn 0.593264 -0.534588 0.601874
vn -0.006090 -0.534589 0.845091
vn -0.601876 -0.534588 0.593263
vn -0.845091 -0.534587 -0.006089
vn -0.593265 -0.534587 -0.601875
vn 0.006090 -0.534587 -0.845091
vn 0.601876 -0.534586 -0.593264
vn 0.000000 -1.000000 0.000000
vn 0.000000 -1.000000 0.000000
vn 0.000000 -1.000000 -0.000000
vn 0.000000 -1.000000 -0.000000
vn 0.000000 -1.000000 -0.000001
vn 0.000000 -1.000000 -0.000001
vn 0.000000 -1.000000 -0.000000
vn 0.000000 -1.000000 -0.000000
vn 0.000000 -1.000000 -0.000000
vn 0.000000 -1.000000 -0.000000
vn 0.000000 -1.000000 0.000000
vn 0.000000 -1.000000 0.000000
vn 0.000000 -1.000000 0.000000
vn 0.000000 -1.000000 0.000000
vn 0.000000 -1.000000 0.000000
vn 0.000000 -1.000000 0.000000
vn 0.999974 0.000000 0.007205
vn 0.701994 0.000000 0.712182
vn -0.007206 0.000000 0.999974
vn -0.712184 0.000000 0.701993
vn -0.999974 0.000000 -0.007205
vn -0.701995 -0.000001 -0.712182
vn 0.007206 -0.000002 -0.999974
vn 0.712183 -0.000001 -0.701993
vn 0.642469 -0.184020 -0.743889
vn -0.062312 0.017848 -0.997897
vn -0.707059 0.202520 -0.677535
vn -0.961343 0.275353 -0.000000
vn -0.707061 0.202520 0.677532
vn -0.062312 0.017847 0.997897
vn 0.642470 -0.184020 0.743888
vn 0.961343 -0.275354 0.000000
vn 0.606021 -0.281723 -0.743889
vn -0.058778 0.027324 -0.997897
vn -0.666947 0.310046 -0.677534
vn -0.906805 0.421550 -0.000000
vn -0.666950 0.310047 0.677532
vn -0.058777 0.027324 0.997897
vn 0.606022 -0.281723 0.743888
vn 0.906806 -0.421549 -0.000000
vn 0.554818 -0.372568 -0.743889
vn -0.053809 0.036135 -0.997897
vn -0.610596 0.410024 -0.677535
vn -0.830189 0.557482 -0.000000
vn -0.610599 0.410024 0.677532
vn -0.053811 0.036134 0.997897
vn 0.554819 -0.372568 0.743888
vn 0.830188 -0.557483 0.000000
vn 0.490108 -0.454341 -0.743887
vn -0.047531 0.044066 -0.997897
vn -0.539378 0.500019 -0.677534
vn -0.733358 0.679842 0.000000
vn -0.539379 0.500019 0.677533
vn -0.047532 0.044065 0.997897
vn 0.490108 -0.454342 0.743887
vn 0.733358 -0.679843 0.000000
vn 0.413462 -0.525052 -0.743889
vn -0.040101 0.050924 -0.997897
vn -0.455029 0.577839 -0.677533
vn -0.618672 0.785650 0.000000
vn -0.455028 0.577840 0.677533
vn -0.040099 0.050924 0.997897
vn 0.413463 -0.525052 0.743888
vn 0.618674 -0.785648 0.000000
vn 0.326747 -0.582980 -0.743889
vn -0.031690 0.056542 -0.997897
vn -0.359599 0.641589 -0.677534
vn -0.488922 0.872328 -0.000000
vn -0.359598 0.641591 0.677533
vn -0.031690 0.056541 0.997897
vn 0.326749 -0.582980 0.743888
vn 0.488921 -0.872328 -0.000000
vn 0.245392 -0.609307 -0.754008
vn -0.025037 0.079191 -0.996545
vn -0.247687 0.701068 -0.668696
vn -0.331381 0.943497 -0.000000
vn -0.247687 0.701069 0.668695
vn -0.025036 0.079190 0.996545
vn 0.245392 -0.609307 0.754007
vn 0.382838 -0.923815 0.000000
vn 0.064151 -0.655022 -0.752882
vn -0.020773 0.077713 -0.996759
vn -0.101950 0.735210 -0.670129
vn -0.132190 0.991223 0.001720
vn -0.094444 0.734072 0.672472
vn -0.007776 0.077638 0.996951
vn 0.075884 -0.652511 0.753970
vn 0.104620 -0.994510 0.001926
vn -0.009293 -0.999904 -0.010321
vn -0.014931 -0.692576 -0.721191
vn -0.012634 0.022844 -0.999659
vn -0.007043 0.718577 -0.695412
vn 0.000591 0.999994 0.003545
vn 0.008774 0.712776 0.701336
vn 0.011333 0.010680 0.999879
vn 0.003223 -0.705327 0.708875
vn 1.000000 -0.000002 0.000000
vn 1.000000 -0.000002 0.000000
vn 1.000000 -0.000001 0.000000
vn 1.000000 -0.000001 0.000000
vn 1.000000 0.000000 0.000000
vn 1.000000 0.000000 0.000000
vn 1.000000 0.000003 0.000000
vn 1.000000 0.000003 0.000000
vn 1.000000 0.000002 0.000000
vn 1.000000 0.000002 0.000000
vn 1.000000 0.000001 0.000000
vn 1.000000 0.000001 0.000000
vn 1.000000 -0.000000 0.000000
vn 1.000000 -0.000000 0.000000
vn 1.000000 -0.000003 0.000000
vn 1.000000 -0.000003 0.000000
s 1
g Pipe_Bend_Open_C_LOD_1
usemtl lambert6SG
f 9/7/1 1/3/2 2/1/3 10/5/4
f 10/5/4 2/1/3 3/2/5 11/6/6
f 11/6/6 3/2/5 4/4/7 12/8/8
f 12/8/8 4/4/7 5/11/9 13/27/10
f 13/16/10 5/32/9 6/13/11 14/17/12
f 14/17/12 6/13/11 7/19/13 15/25/14
f 15/25/14 7/19/13 8/21/15 16/26/16
f 16/26/16 8/21/15 1/3/2 9/7/1
s 2
f 26/34/17 25/33/18 27/35/19
f 26/34/17 27/35/19 28/37/20
f 26/34/17 28/37/20 29/39/21
f 26/34/17 29/39/21 30/41/22
f 26/34/17 30/41/22 31/40/23
f 26/34/17 31/40/23 32/38/24
f 26/34/17 32/38/24 33/36/25
f 26/34/17 33/36/25 25/33/18
s 3
f 17/43/26 9/42/27 10/44/28 18/45/29
f 18/45/29 10/44/28 11/48/30 19/49/31
f 19/49/31 11/48/30 12/52/32 20/53/33
f 20/53/33 12/52/32 13/56/34 21/57/35
f 21/57/35 13/56/34 14/54/36 22/55/37
f 22/55/37 14/54/36 15/50/38 23/51/39
f 23/51/39 15/50/38 16/46/40 24/47/41
f 24/47/41 16/46/40 9/42/27 17/43/26
s 2
f 25/60/18 17/61/42 18/31/43 27/30/19
f 27/30/19 18/31/43 19/29/44 28/28/20
f 28/28/20 19/29/44 20/24/45 29/23/21
f 29/23/21 20/24/45 21/22/46 30/20/22
f 30/20/22 21/22/46 22/18/47 31/59/23
f 31/59/23 22/18/47 23/58/48 32/15/24
f 32/15/24 23/58/48 24/14/49 33/12/25
f 33/12/25 24/14/49 17/10/42 25/9/18
s 1
f 34/62/50 4/4/7 3/2/5 35/63/51
f 35/63/51 3/2/5 2/1/3 36/64/52
f 36/64/52 2/1/3 1/3/2 37/65/53
f 37/65/53 1/3/2 8/21/15 38/66/54
f 38/66/54 8/21/15 7/19/13 39/67/55
f 39/67/55 7/19/13 6/13/11 40/68/56
f 40/68/56 6/13/11 5/32/9 41/69/57
f 41/70/57 5/11/9 4/4/7 34/62/50
f 42/71/58 34/62/50 35/63/51 43/72/59
f 43/72/59 35/63/51 36/64/52 44/73/60
f 44/73/60 36/64/52 37/65/53 45/74/61
f 45/74/61 37/65/53 38/66/54 46/75/62
f 46/75/62 38/66/54 39/67/55 47/76/63
f 47/76/63 39/67/55 40/68/56 48/77/64
f 48/77/64 40/68/56 41/69/57 49/78/65
f 49/79/65 41/70/57 34/62/50 42/71/58
f 50/80/66 42/71/58 43/72/59 51/81/67
f 51/81/67 43/72/59 44/73/60 52/82/68
f 52/82/68 44/73/60 45/74/61 53/83/69
f 53/83/69 45/74/61 46/75/62 54/84/70
f 54/84/70 46/75/62 47/76/63 55/85/71
f 55/85/71 47/76/63 48/77/64 56/86/72
f 56/86/72 48/77/64 49/78/65 57/87/73
f 57/88/73 49/79/65 42/71/58 50/80/66
f 58/89/74 50/80/66 51/81/67 59/90/75
f 59/90/75 51/81/67 52/82/68 60/91/76
f 60/91/76 52/82/68 53/83/69 61/92/77
f 61/92/77 53/83/69 54/84/70 62/93/78
f 62/93/78 54/84/70 55/85/71 63/94/79
f 63/94/79 55/85/71 56/86/72 64/95/80
f 64/95/80 56/86/72 57/87/73 65/96/81
f 65/97/81 57/88/73 50/80/66 58/89/74
f 66/98/82 58/89/74 59/90/75 67/99/83
f 67/99/83 59/90/75 60/91/76 68/100/84
f 68/100/84 60/91/76 61/92/77 69/101/85
f 69/101/85 61/92/77 62/93/78 70/102/86
f 70/102/86 62/93/78 63/94/79 71/103/87
f 71/103/87 63/94/79 64/95/80 72/104/88
f 72/104/88 64/95/80 65/96/81 73/105/89
f 73/106/89 65/97/81 58/89/74 66/98/82
f 74/107/90 66/98/82 67/99/83 75/108/91
f 75/108/91 67/99/83 68/100/84 76/109/92
f 76/109/92 68/100/84 69/101/85 77/110/93
f 77/110/93 69/101/85 70/102/86 78/111/94
f 78/111/94 70/102/86 71/103/87 79/112/95
f 79/112/95 71/103/87 72/104/88 80/113/96
f 80/113/96 72/104/88 73/105/89 81/114/97
f 81/115/97 73/106/89 66/98/82 74/107/90
f 82/116/98 74/107/90 75/108/91 83/117/99
f 83/117/99 75/108/91 76/109/92 84/118/100
f 84/118/100 76/109/92 77/110/93 85/119/101
f 85/119/101 77/110/93 78/111/94 86/120/102
f 86/120/102 78/111/94 79/112/95 87/121/103
f 87/121/103 79/112/95 80/113/96 88/122/104
f 88/122/104 80/113/96 81/114/97 89/123/105
f 89/124/105 81/115/97 74/107/90 82/116/98
f 90/125/106 82/116/98 83/117/99 91/126/107
f 91/126/107 83/117/99 84/118/100 92/127/108
f 92/127/108 84/118/100 85/119/101 93/128/109
f 93/128/109 85/119/101 86/120/102 94/129/110
f 94/129/110 86/120/102 87/121/103 95/130/111
f 95/130/111 87/121/103 88/122/104 96/131/112
f 96/131/112 88/122/104 89/123/105 97/132/113
f 97/133/113 89/124/105 82/116/98 90/125/106
f 98/134/114 97/133/113 90/125/106 99/135/115
f 99/135/115 90/125/106 91/126/107 100/136/116
f 100/136/116 91/126/107 92/127/108 101/137/117
f 101/137/117 92/127/108 93/128/109 102/138/118
f 102/138/118 93/128/109 94/129/110 103/139/119
f 103/139/119 94/129/110 95/130/111 104/140/120
f 104/140/120 95/130/111 96/131/112 105/141/121
f 105/141/121 96/131/112 97/132/113 98/142/114
s 4
f 106/144/122 98/143/123 99/145/124 107/146/125
f 107/146/125 99/145/124 100/147/126 108/148/127
f 108/148/127 100/147/126 101/149/128 109/150/129
f 109/150/129 101/149/128 102/151/130 110/152/131
f 110/152/131 102/151/130 103/153/132 111/154/133
f 111/154/133 103/153/132 104/155/134 112/156/135
f 112/156/135 104/155/134 105/157/136 113/158/137
f 113/158/137 105/157/136 98/143/123 106/144/122
