# This file uses centimeters as units for non-parametric coordinates.

mtllib Pipe_Straight_A_LOD_0.mtl
g default
v 0.000000 16.000000 0.000000
v 0.126201 16.000000 -0.611401
v 0.476767 16.000000 -1.127966
v 0.998331 16.000000 -1.471053
v 1.611485 16.000000 -1.588432
v 2.222885 16.000000 -1.462229
v 2.739450 16.000000 -1.111663
v 3.082538 16.000000 -0.590099
v 3.199918 16.000000 0.023055
v 3.073715 16.000000 0.634455
v 2.723148 16.000000 1.151020
v 2.201584 16.000000 1.494108
v 1.588431 16.000000 1.611486
v 0.977029 16.000000 1.485285
v 0.460464 16.000000 1.134717
v 0.117377 16.000000 0.613154
v 0.000000 0.000000 0.000000
v 0.126201 0.000000 -0.611401
v 0.476767 0.000000 -1.127966
v 0.998331 0.000000 -1.471053
v 1.611485 0.000000 -1.588432
v 2.222885 0.000000 -1.462229
v 2.739450 0.000000 -1.111663
v 3.082538 0.000000 -0.590099
v 3.199918 0.000000 0.023055
v 3.073715 0.000000 0.634455
v 2.723148 0.000000 1.151020
v 2.201584 0.000000 1.494108
v 1.588431 0.000000 1.611486
v 0.977029 0.000000 1.485285
v 0.460464 0.000000 1.134717
v 0.117377 0.000000 0.613154
v 0.223187 16.000000 0.001608
v 0.331784 16.000000 -0.524503
v 0.633449 16.000000 -0.969010
v 1.082256 16.000000 -1.264237
v 1.609877 16.000000 -1.365243
v 2.135989 16.000000 -1.256646
v 2.580496 16.000000 -0.954981
v 2.875723 16.000000 -0.506174
v 2.976727 16.000000 0.021447
v 2.868130 16.000000 0.547559
v 2.566467 16.000000 0.992065
v 2.117661 16.000000 1.287293
v 1.590039 16.000000 1.388298
v 1.063925 16.000000 1.279700
v 0.619421 16.000000 0.978036
v 0.324191 16.000000 0.529230
v 0.223187 0.000000 0.001608
v 0.331784 0.000000 -0.524503
v 0.633449 0.000000 -0.969010
v 1.082256 0.000000 -1.264237
v 1.609877 0.000000 -1.365243
v 2.135989 0.000000 -1.256646
v 2.580496 0.000000 -0.954981
v 2.875723 0.000000 -0.506174
v 2.976727 0.000000 0.021447
v 2.868130 0.000000 0.547559
v 2.566467 0.000000 0.992065
v 2.117661 0.000000 1.287293
v 1.590039 0.000000 1.388298
v 1.063925 0.000000 1.279700
v 0.619421 0.000000 0.978036
v 0.324191 0.000000 0.529230
v 0.223187 15.183794 0.001609
v 0.331784 15.183794 -0.524503
v 1.599957 15.183794 0.011528
v 0.633449 15.183794 -0.969010
v 1.082256 15.183794 -1.264237
v 1.609877 15.183794 -1.365243
v 2.135989 15.183794 -1.256646
v 2.580496 15.183794 -0.954981
v 2.875723 15.183794 -0.506176
v 2.976727 15.183794 0.021447
v 2.868130 15.183794 0.547559
v 2.566467 15.183794 0.992065
v 2.117661 15.183794 1.287292
v 1.590039 15.183794 1.388297
v 1.063925 15.183794 1.279700
v 0.619421 15.183794 0.978036
v 0.324193 15.183794 0.529230
v 0.223187 0.816206 0.001609
v 0.331786 0.816206 -0.524503
v 1.599957 0.816206 0.011528
v 0.633449 0.816206 -0.969010
v 1.082256 0.816206 -1.264237
v 1.609877 0.816206 -1.365243
v 2.135989 0.816206 -1.256646
v 2.580496 0.816206 -0.954981
v 2.875723 0.816206 -0.506174
v 2.976727 0.816206 0.021447
v 2.868130 0.816206 0.547559
v 2.566467 0.816206 0.992065
v 2.117661 0.816206 1.287293
v 1.590039 0.816206 1.388297
v 1.063925 0.816206 1.279701
v 0.619421 0.816206 0.978036
v 0.324191 0.816206 0.529229
vt 0.058288 0.000000
vt 0.090945 0.000000
vt 0.123602 0.000000
vt 0.030603 0.000000
vt 0.151288 0.000000
vt 0.000337 0.000000
vt 0.185607 0.000000
vt 0.090945 1.000000
vt 0.058288 1.000000
vt 0.123602 1.000000
vt 0.030603 1.000000
vt 0.151288 1.000000
vt 0.000337 1.000000
vt 0.185607 1.000000
vt 0.798362 0.984963
vt 0.218264 0.000000
vt 0.740566 0.984963
vt 0.250921 0.000000
vt 0.798362 0.915388
vt 0.278607 0.000000
vt 0.798362 0.950176
vt 0.310949 0.000000
vt 0.740566 0.950175
vt 0.740566 0.915387
vt 0.798362 0.658137
vt 0.740566 0.658137
vt 0.798362 0.895683
vt 0.740566 0.895681
vt 0.218264 1.000000
vt 0.798362 0.866191
vt 0.250921 1.000000
vt 0.278607 1.000000
vt 0.310949 1.000000
vt 0.740566 0.796615
vt 0.343606 0.000000
vt 0.798362 0.776909
vt 0.376263 0.000000
vt 0.740566 0.776910
vt 0.403948 0.000000
vt 0.798362 0.747417
vt 0.436290 0.000000
vt 0.740566 0.747418
vt 0.740566 0.831402
vt 0.798362 0.712630
vt 0.740566 0.712630
vt 0.798362 0.831404
vt 0.798362 0.677842
vt 0.343606 1.000000
vt 0.740566 0.677843
vt 0.376263 1.000000
vt 0.403948 1.000000
vt 0.436290 1.000000
vt 0.798362 0.529578
vt 0.468947 0.000000
vt 0.740566 0.529578
vt 0.500000 0.000000
vt 0.798362 0.628645
vt 0.740566 0.628645
vt 0.798362 0.559070
vt 0.798362 0.593857
vt 0.740566 0.593857
vt 0.740566 0.559070
vt 0.798362 0.485525
vt 0.740566 0.485529
vt 0.468947 1.000000
vt 0.798362 0.450737
vt 0.500000 1.000000
vt 0.846595 0.061812
vt 0.871499 0.045172
vt 0.900876 0.116093
vt 0.900876 0.039329
vt 0.829955 0.086716
vt 0.930252 0.045172
vt 0.824112 0.116093
vt 0.955156 0.061812
vt 0.829955 0.145469
vt 0.971796 0.086716
vt 0.846595 0.170373
vt 0.977640 0.116093
vt 0.871499 0.187013
vt 0.971796 0.145469
vt 0.900876 0.192857
vt 0.955156 0.170373
vt 0.930252 0.187013
vt 0.855896 0.284969
vt 0.882675 0.271552
vt 0.903013 0.345572
vt 0.912549 0.269403
vt 0.836291 0.307613
vt 0.940972 0.278850
vt 0.826844 0.336036
vt 0.963616 0.298456
vt 0.828993 0.365911
vt 0.977034 0.325234
vt 0.842410 0.392689
vt 0.979183 0.355109
vt 0.865054 0.412294
vt 0.969735 0.383531
vt 0.893477 0.421742
vt 0.950130 0.406175
vt 0.923352 0.419593
vt 0.538215 0.618960
vt 0.567156 0.599622
vt 0.571918 0.611119
vt 0.547014 0.627760
vt 0.601295 0.592832
vt 0.601295 0.605276
vt 0.518877 0.647901
vt 0.530374 0.652664
vt 0.635433 0.599622
vt 0.630671 0.611119
vt 0.512086 0.682040
vt 0.524531 0.682040
vt 0.664374 0.618960
vt 0.655575 0.627760
vt 0.518877 0.716178
vt 0.530374 0.711416
vt 0.683712 0.647901
vt 0.672215 0.652664
vt 0.538215 0.745120
vt 0.547014 0.736320
vt 0.690503 0.682040
vt 0.678058 0.682040
vt 0.567156 0.764458
vt 0.571918 0.752961
vt 0.683712 0.716178
vt 0.672215 0.711416
vt 0.601295 0.771248
vt 0.601295 0.758804
vt 0.664374 0.745120
vt 0.655575 0.736320
vt 0.635433 0.764458
vt 0.630671 0.752961
vt 0.680944 0.523912
vt 0.661606 0.552853
vt 0.652806 0.544053
vt 0.669447 0.519149
vt 0.632665 0.572191
vt 0.627902 0.560694
vt 0.687734 0.489773
vt 0.675290 0.489773
vt 0.598526 0.578981
vt 0.598526 0.566537
vt 0.680944 0.455635
vt 0.669447 0.460397
vt 0.564388 0.572191
vt 0.569150 0.560694
vt 0.661606 0.426694
vt 0.652806 0.435493
vt 0.535446 0.552853
vt 0.544246 0.544054
vt 0.632665 0.407356
vt 0.627902 0.418853
vt 0.516109 0.523912
vt 0.527605 0.519149
vt 0.598526 0.400565
vt 0.598526 0.413009
vt 0.509318 0.489773
vt 0.521762 0.489773
vt 0.564387 0.407356
vt 0.569150 0.418853
vt 0.516108 0.455635
vt 0.527605 0.460397
vt 0.535446 0.426694
vt 0.544246 0.435493
vt 0.740566 0.094421
vt 0.740566 0.059633
vt 0.798362 0.059633
vt 0.798362 0.094421
vt 0.740566 0.030142
vt 0.798362 0.030142
vt 0.740566 0.129209
vt 0.798362 0.129209
vt 0.740566 0.010436
vt 0.798362 0.010436
vt 0.740566 0.158700
vt 0.798362 0.158700
vt 0.740566 0.178406
vt 0.798362 0.178406
vt 0.740566 0.213193
vt 0.740566 0.866190
vt 0.798362 0.796615
vt 0.798362 0.213194
vt 0.740566 0.247981
vt 0.798362 0.247982
vt 0.740566 0.277473
vt 0.798362 0.277473
vt 0.740566 0.297179
vt 0.798362 0.297178
vt 0.740566 0.331968
vt 0.798362 0.509872
vt 0.740566 0.509872
vt 0.798362 0.331965
vt 0.740566 0.366756
vt 0.798362 0.366752
vt 0.740566 0.396248
vt 0.798362 0.396244
vt 0.740566 0.415953
vt 0.798362 0.415949
vt 0.740566 0.450741
vn -0.921099 -0.000000 -0.389329
vn -0.921099 -0.000000 -0.389329
vn -0.999974 -0.000000 -0.007206
vn -0.999974 -0.000000 -0.007206
vn -0.701994 -0.000000 -0.712183
vn -0.701994 -0.000000 -0.712183
vn -0.376017 -0.000000 -0.926613
vn -0.376017 -0.000000 -0.926613
vn 0.007206 0.000000 -0.999974
vn 0.007206 0.000000 -0.999974
vn 0.389330 0.000000 -0.921098
vn 0.389330 0.000000 -0.921098
vn 0.712183 0.000000 -0.701994
vn 0.712183 0.000000 -0.701994
vn 0.926612 0.000000 -0.376018
vn 0.926612 0.000000 -0.376018
vn 0.999974 0.000000 0.007205
vn 0.999974 0.000000 0.007205
vn 0.921098 0.000000 0.389331
vn 0.921098 0.000000 0.389331
vn 0.701993 0.000000 0.712183
vn 0.701993 0.000000 0.712183
vn 0.376017 0.000000 0.926613
vn 0.376017 0.000000 0.926613
vn -0.007205 -0.000000 0.999974
vn -0.007205 -0.000000 0.999974
vn -0.389330 -0.000000 0.921098
vn -0.389330 -0.000000 0.921098
vn -0.712183 -0.000000 0.701994
vn -0.712183 -0.000000 0.701994
vn -0.926613 -0.000000 0.376016
vn -0.926613 -0.000000 0.376016
vn 0.741129 0.593798 0.313261
vn 0.804594 0.593797 0.005797
vn -0.000000 1.000000 0.000000
vn 0.564834 0.593798 0.573033
vn 0.302549 0.593799 0.745565
vn -0.005797 0.593798 0.804594
vn -0.313260 0.593797 0.741129
vn -0.573033 0.593796 0.564835
vn -0.745566 0.593797 0.302548
vn -0.804593 0.593798 -0.005798
vn -0.741129 0.593797 -0.313260
vn -0.564835 0.593796 -0.573033
vn -0.302549 0.593797 -0.745566
vn 0.005797 0.593799 -0.804593
vn 0.313260 0.593799 -0.741128
vn 0.573033 0.593797 -0.564834
vn 0.745566 0.593797 -0.302551
vn 0.804594 -0.593797 0.005799
vn 0.741129 -0.593798 0.313261
vn 0.000000 -1.000000 -0.000000
vn 0.564835 -0.593797 0.573033
vn 0.302549 -0.593799 0.745565
vn -0.005797 -0.593797 0.804594
vn -0.313260 -0.593797 0.741129
vn -0.573033 -0.593797 0.564835
vn -0.745566 -0.593798 0.302548
vn -0.804593 -0.593798 -0.005798
vn -0.741129 -0.593798 -0.313260
vn -0.564835 -0.593798 -0.573032
vn -0.302548 -0.593798 -0.745565
vn 0.005797 -0.593798 -0.804594
vn 0.313261 -0.593798 -0.741129
vn 0.573032 -0.593799 -0.564833
vn 0.745565 -0.593798 -0.302550
vn -0.000000 1.000000 0.000000
vn -0.000000 1.000000 0.000000
vn -0.000000 1.000000 0.000000
vn -0.000000 1.000000 0.000000
vn -0.000000 1.000000 0.000000
vn -0.000000 1.000000 0.000000
vn -0.000000 1.000000 0.000000
vn -0.000000 1.000000 0.000000
vn -0.000000 1.000000 0.000000
vn -0.000000 1.000000 0.000000
vn -0.000000 1.000000 0.000000
vn -0.000000 1.000000 0.000000
vn -0.000000 1.000000 0.000000
vn -0.000000 1.000000 0.000000
vn -0.000000 1.000000 0.000000
vn -0.000000 1.000000 0.000000
vn -0.000000 1.000000 0.000000
vn -0.000000 1.000000 0.000000
vn -0.000000 1.000000 0.000000
vn -0.000000 1.000000 0.000000
vn -0.000000 1.000000 0.000000
vn -0.000000 1.000000 0.000000
vn -0.000000 1.000000 0.000000
vn -0.000000 1.000000 0.000000
vn -0.000000 1.000000 0.000000
vn -0.000000 1.000000 0.000000
vn -0.000000 1.000000 0.000000
vn -0.000000 1.000000 0.000000
vn -0.000000 1.000000 0.000000
vn -0.000000 1.000000 0.000000
vn -0.000000 1.000000 0.000000
vn -0.000000 1.000000 0.000000
vn 0.000000 -1.000000 0.000000
vn 0.000000 -1.000000 0.000000
vn 0.000000 -1.000000 0.000000
vn 0.000000 -1.000000 0.000000
vn 0.000000 -1.000000 0.000000
vn 0.000000 -1.000000 0.000000
vn 0.000000 -1.000000 0.000000
vn 0.000000 -1.000000 0.000000
vn 0.000000 -1.000000 0.000000
vn 0.000000 -1.000000 0.000000
vn 0.000000 -1.000000 0.000000
vn 0.000000 -1.000000 0.000000
vn 0.000000 -1.000000 0.000000
vn 0.000000 -1.000000 0.000000
vn 0.000000 -1.000000 0.000000
vn 0.000000 -1.000000 0.000000
vn 0.000000 -1.000000 0.000000
vn 0.000000 -1.000000 0.000000
vn 0.000000 -1.000000 0.000000
vn 0.000000 -1.000000 0.000000
vn 0.000000 -1.000000 0.000000
vn 0.000000 -1.000000 0.000000
vn 0.000000 -1.000000 0.000000
vn 0.000000 -1.000000 0.000000
vn 0.000000 -1.000000 0.000000
vn 0.000000 -1.000000 0.000000
vn 0.000000 -1.000000 0.000000
vn 0.000000 -1.000000 0.000000
vn 0.000000 -1.000000 0.000000
vn 0.000000 -1.000000 0.000000
vn 0.000000 -1.000000 0.000000
vn 0.000000 -1.000000 0.000000
vn 0.921098 0.000000 0.389330
vn 0.999974 -0.000001 0.007205
vn 0.701994 0.000000 0.712183
vn 0.376018 0.000000 0.926613
vn -0.007204 -0.000000 0.999974
vn -0.389330 -0.000000 0.921099
vn -0.712183 -0.000001 0.701994
vn -0.926613 0.000000 0.376016
vn -0.999974 0.000001 -0.007206
vn -0.921099 -0.000000 -0.389329
vn -0.701994 0.000000 -0.712183
vn -0.376017 0.000000 -0.926613
vn 0.007205 0.000000 -0.999974
vn 0.389330 0.000000 -0.921098
vn 0.712183 0.000001 -0.701994
vn 0.926612 0.000001 -0.376019
vn 0.999974 -0.000000 0.007206
vn 0.921098 -0.000001 0.389330
vn 0.701994 0.000000 0.712183
vn 0.376018 0.000000 0.926613
vn -0.007204 -0.000000 0.999974
vn -0.389330 -0.000000 0.921099
vn -0.712183 -0.000000 0.701994
vn -0.926613 -0.000000 0.376016
vn -0.999974 -0.000000 -0.007205
vn -0.921099 -0.000000 -0.389329
vn -0.701995 -0.000000 -0.712182
vn -0.376017 -0.000000 -0.926613
vn 0.007205 -0.000000 -0.999974
vn 0.389330 0.000000 -0.921098
vn 0.712183 -0.000000 -0.701993
vn 0.926612 -0.000000 -0.376019
s 1
g Pipe_A_LOD_0 group2
usemtl lambert6SG
f 2/4/1 18/11/2 17/13/3 1/6/4
f 3/1/5 19/9/6 18/11/2 2/4/1
f 4/2/7 20/8/8 19/9/6 3/1/5
f 5/3/9 21/10/10 20/8/8 4/2/7
f 6/5/11 22/12/12 21/10/10 5/3/9
f 7/7/13 23/14/14 22/12/12 6/5/11
f 8/16/15 24/29/16 23/14/14 7/7/13
f 9/18/17 25/31/18 24/29/16 8/16/15
f 10/20/19 26/32/20 25/31/18 9/18/17
f 11/22/21 27/33/22 26/32/20 10/20/19
f 12/35/23 28/48/24 27/33/22 11/22/21
f 13/37/25 29/50/26 28/48/24 12/35/23
f 14/39/27 30/51/28 29/50/26 13/37/25
f 15/41/29 31/52/30 30/51/28 14/39/27
f 16/54/31 32/65/32 31/52/30 15/41/29
f 1/56/4 17/67/3 32/65/32 16/54/31
s 2
f 66/68/33 65/69/34 67/70/35
f 68/72/36 66/68/33 67/70/35
f 69/74/37 68/72/36 67/70/35
f 70/76/38 69/74/37 67/70/35
f 71/78/39 70/76/38 67/70/35
f 72/80/40 71/78/39 67/70/35
f 73/82/41 72/80/40 67/70/35
f 74/84/42 73/82/41 67/70/35
f 75/83/43 74/84/42 67/70/35
f 76/81/44 75/83/43 67/70/35
f 77/79/45 76/81/44 67/70/35
f 78/77/46 77/79/45 67/70/35
f 79/75/47 78/77/46 67/70/35
f 80/73/48 79/75/47 67/70/35
f 81/71/49 80/73/48 67/70/35
f 65/69/34 81/71/49 67/70/35
s 3
f 82/85/50 83/86/51 84/87/52
f 83/86/51 85/88/53 84/87/52
f 85/88/53 86/90/54 84/87/52
f 86/90/54 87/92/55 84/87/52
f 87/92/55 88/94/56 84/87/52
f 88/94/56 89/96/57 84/87/52
f 89/96/57 90/98/58 84/87/52
f 90/98/58 91/100/59 84/87/52
f 91/100/59 92/101/60 84/87/52
f 92/101/60 93/99/61 84/87/52
f 93/99/61 94/97/62 84/87/52
f 94/97/62 95/95/63 84/87/52
f 95/95/63 96/93/64 84/87/52
f 96/93/64 97/91/65 84/87/52
f 97/91/65 98/89/66 84/87/52
f 98/89/66 82/85/50 84/87/52
s 4
f 2/102/67 1/103/68 33/104/69 34/105/70
f 3/108/71 2/102/67 34/105/70 35/109/72
f 4/112/73 3/108/71 35/109/72 36/113/74
f 5/116/75 4/112/73 36/113/74 37/117/76
f 6/120/77 5/116/75 37/117/76 38/121/78
f 7/124/79 6/120/77 38/121/78 39/125/80
f 8/128/81 7/124/79 39/125/80 40/129/82
f 9/132/83 8/128/81 40/129/82 41/133/84
f 10/130/85 9/132/83 41/133/84 42/131/86
f 11/126/87 10/130/85 42/131/86 43/127/88
f 12/122/89 11/126/87 43/127/88 44/123/90
f 13/118/91 12/122/89 44/123/90 45/119/92
f 14/114/93 13/118/91 45/119/92 46/115/94
f 15/110/95 14/114/93 46/115/94 47/111/96
f 16/106/97 15/110/95 47/111/96 48/107/98
f 1/103/68 16/106/97 48/107/98 33/104/69
s 5
f 17/134/99 18/135/100 50/136/101 49/137/102
f 18/135/100 19/138/103 51/139/104 50/136/101
f 19/138/103 20/142/105 52/143/106 51/139/104
f 20/142/105 21/146/107 53/147/108 52/143/106
f 21/146/107 22/150/109 54/151/110 53/147/108
f 22/150/109 23/154/111 55/155/112 54/151/110
f 23/154/111 24/158/113 56/159/114 55/155/112
f 24/158/113 25/162/115 57/163/116 56/159/114
f 25/162/115 26/164/117 58/165/118 57/163/116
f 26/164/117 27/160/119 59/161/120 58/165/118
f 27/160/119 28/156/121 60/157/122 59/161/120
f 28/156/121 29/152/123 61/153/124 60/157/122
f 29/152/123 30/148/125 62/149/126 61/153/124
f 30/148/125 31/144/127 63/145/128 62/149/126
f 31/144/127 32/140/129 64/141/130 63/145/128
f 32/140/129 17/134/99 49/137/102 64/141/130
s 2
f 34/170/131 33/174/132 65/175/34 66/171/33
f 35/167/133 34/170/131 66/171/33 68/168/36
f 36/166/134 35/167/133 68/168/36 69/169/37
f 37/172/135 36/166/134 69/169/37 70/173/38
f 38/176/136 37/172/135 70/173/38 71/177/39
f 39/178/137 38/176/136 71/177/39 72/179/40
f 40/180/138 39/178/137 72/179/40 73/183/41
f 41/184/139 40/180/138 73/183/41 74/185/42
f 42/186/140 41/184/139 74/185/42 75/187/43
f 43/188/141 42/186/140 75/187/43 76/189/44
f 44/190/142 43/188/141 76/189/44 77/193/45
f 45/194/143 44/190/142 77/193/45 78/195/46
f 46/196/144 45/194/143 78/195/46 79/197/47
f 47/198/145 46/196/144 79/197/47 80/199/48
f 48/200/146 47/198/145 80/199/48 81/66/49
f 33/64/132 48/200/146 81/66/49 65/63/34
s 3
f 49/192/147 50/55/148 83/53/51 82/191/50
f 50/55/148 51/62/149 85/59/53 83/53/51
f 51/62/149 52/61/150 86/60/54 85/59/53
f 52/61/150 53/58/151 87/57/55 86/60/54
f 53/58/151 54/26/152 88/25/56 87/57/55
f 54/26/152 55/49/153 89/47/57 88/25/56
f 55/49/153 56/45/154 90/44/58 89/47/57
f 56/45/154 57/42/155 91/40/59 90/44/58
f 57/42/155 58/38/156 92/36/60 91/40/59
f 58/38/156 59/34/157 93/182/61 92/36/60
f 59/34/157 60/43/158 94/46/62 93/182/61
f 60/43/158 61/181/159 95/30/63 94/46/62
f 61/181/159 62/28/160 96/27/64 95/30/63
f 62/28/160 63/24/161 97/19/65 96/27/64
f 63/24/161 64/23/162 98/21/66 97/19/65
f 64/23/162 49/17/147 82/15/50 98/21/66
