# This file uses centimeters as units for non-parametric coordinates.

mtllib Pipe_WallMound_C.mtl
g default
v -0.858972 0.158099 0.069022
v -0.883270 0.158099 0.056917
v 0.883264 0.158099 0.069960
v 0.870514 0.158099 0.081395
v 0.794611 0.158099 1.858920
v 0.606488 0.158099 2.136134
v 0.326593 0.158099 2.320250
v -0.002460 0.158099 2.383241
v -0.330566 0.158099 2.315515
v -0.607776 0.158099 2.127386
v -0.791895 0.158099 1.847490
v -0.858972 -0.158099 0.069022
v -0.883270 -0.158099 0.056917
v 0.883264 -0.158099 0.069960
v 0.870514 -0.158099 0.081395
v 0.794611 -0.158099 1.858920
v 0.606488 -0.158099 2.136134
v 0.326593 -0.158099 2.320250
v -0.002460 -0.158099 2.383241
v -0.330566 -0.158099 2.315515
v -0.607776 -0.158099 2.127386
v -0.791895 -0.158099 1.847490
v -0.800769 0.158099 0.069388
v -0.883270 0.158099 0.000000
v 0.883264 0.158099 0.000000
v 0.812311 0.158099 0.081027
v 0.740997 0.158099 1.839104
v 0.565625 0.158099 2.099883
v 0.304706 0.158099 2.273083
v -0.002039 0.158099 2.332339
v -0.307904 0.158099 2.268629
v -0.566327 0.158099 2.091652
v -0.737958 0.158099 1.828349
v -0.800769 -0.158099 0.069388
v -0.883270 -0.158099 0.000000
v 0.883264 -0.158099 0.000000
v 0.812311 -0.158099 0.081027
v 0.740997 -0.158099 1.839104
v 0.565625 -0.158099 2.099883
v 0.304706 -0.158099 2.273083
v -0.002039 -0.158099 2.332339
v -0.307904 -0.158099 2.268629
v -0.566327 -0.158099 2.091652
v -0.737958 -0.158099 1.828349
v -0.799652 -0.158099 1.517966
v -0.799652 0.158099 1.517966
v -0.854694 0.158099 1.532071
v -0.854694 -0.158099 1.532071
v 0.807959 -0.158099 1.522084
v 0.807959 0.158099 1.522084
v 0.862781 0.158099 1.536774
v 0.862781 -0.158099 1.536774
v 1.162457 -0.134883 0.069960
v 1.139246 -0.158099 0.069960
v 1.162457 -0.134883 0.000000
v 1.139246 -0.158099 0.000000
v 1.139246 0.158099 0.069960
v 1.162457 0.134884 0.069960
v 1.162457 0.134884 0.000000
v 1.139246 0.158099 0.000000
v -1.162463 -0.134883 0.000000
v -1.139252 -0.158099 0.000000
v -1.162463 -0.134883 0.056917
v -1.139252 -0.158099 0.056917
v -1.139252 0.158099 0.000000
v -1.162463 0.134884 0.000000
v -1.162463 0.134884 0.056917
v -1.139252 0.158099 0.056917
v -1.029333 -0.063038 0.045807
v -0.962335 -0.045084 0.045807
v -0.944379 0.021917 0.045807
v -0.993433 0.070965 0.045807
v -1.060431 0.053014 0.045807
v -1.078387 -0.013988 0.045807
v -1.029333 -0.063038 0.096709
v -0.962335 -0.045084 0.096709
v -0.944379 0.021917 0.096709
v -0.993433 0.070965 0.096709
v -1.060431 0.053014 0.096709
v -1.078387 -0.013988 0.096709
v -1.026501 -0.052471 0.096703
v -0.970068 -0.037348 0.096703
v -0.954950 0.019085 0.096703
v -0.996265 0.060398 0.096703
v -1.052698 0.045277 0.096703
v -1.067816 -0.011158 0.096703
v -1.025769 -0.049722 0.129997
v -0.972089 -0.035336 0.129997
v -0.957697 0.018348 0.129997
v -0.997003 0.057650 0.129997
v -1.050684 0.043266 0.129997
v -1.065076 -0.010421 0.129997
v -1.019171 -0.025091 0.154932
v -0.990112 -0.017304 0.154932
v -0.982330 0.011750 0.154932
v -1.003601 0.033019 0.154932
v -1.032660 0.025234 0.154932
v -1.040442 -0.003822 0.154932
v -1.011383 0.003963 0.162228
v 1.062451 0.064037 0.045807
v 0.993085 0.064035 0.045807
v 0.958398 0.003963 0.045807
v 0.993085 -0.056107 0.045807
v 1.062451 -0.056108 0.045807
v 1.097131 0.003964 0.045807
v 1.062451 0.064037 0.096709
v 0.993085 0.064035 0.096709
v 0.958398 0.003963 0.096709
v 0.993085 -0.056107 0.096709
v 1.062451 -0.056108 0.096709
v 1.097131 0.003964 0.096709
v 1.056982 0.054564 0.096703
v 0.998553 0.054561 0.096703
v 0.969342 0.003966 0.096703
v 0.998553 -0.046634 0.096703
v 1.056982 -0.046634 0.096703
v 1.086188 0.003964 0.096703
v 1.055554 0.052097 0.129997
v 0.999976 0.052097 0.129997
v 0.972186 0.003966 0.129997
v 0.999976 -0.044170 0.129997
v 1.055554 -0.044171 0.129997
v 1.083350 0.003964 0.129997
v 1.042810 0.030014 0.154932
v 1.012726 0.030013 0.154932
v 0.997687 0.003964 0.154932
v 1.012726 -0.022086 0.154932
v 1.042810 -0.022086 0.154932
v 1.057849 0.003964 0.154932
v 1.027771 0.003964 0.162228
vt 0.016604 0.056485
vt 0.066147 0.056487
vt 0.066147 0.062303
vt 0.016604 0.062301
vt 0.016604 0.019153
vt 0.066147 0.019156
vt 0.020241 0.015768
vt 0.062509 0.015770
vt 0.016601 0.709858
vt 0.066144 0.709860
vt 0.066143 0.938086
vt 0.016600 0.938084
vt 0.016601 0.662876
vt 0.066144 0.662878
vt 0.066143 0.941794
vt 0.016600 0.941793
vt 0.016602 0.611704
vt 0.066145 0.611706
vt 0.016602 0.544562
vt 0.066145 0.544564
vt 0.016602 0.496574
vt 0.066145 0.496576
vt 0.016600 0.979124
vt 0.066143 0.979126
vt 0.016602 0.437980
vt 0.066145 0.437981
vt 0.016602 0.389494
vt 0.066145 0.389495
vt 0.016603 0.337107
vt 0.066145 0.337109
vt 0.016603 0.291107
vt 0.066146 0.291109
vt 0.091142 0.081966
vt 0.140685 0.081966
vt 0.066147 0.015770
vt 0.066147 0.007469
vt 0.173690 0.559024
vt 0.176157 0.563976
vt 0.176232 0.575840
vt 0.162089 0.559024
vt 0.445923 0.564849
vt 0.443048 0.576066
vt 0.162089 0.506851
vt 0.173690 0.506851
vt 0.510211 0.577648
vt 0.506310 0.588641
vt 0.567259 0.615175
vt 0.559976 0.623624
vt 0.605604 0.671676
vt 0.596048 0.676295
vt 0.619408 0.738550
vt 0.609033 0.738636
vt 0.606569 0.805616
vt 0.596955 0.801156
vt 0.569043 0.862664
vt 0.561654 0.854336
vt 0.512541 0.901009
vt 0.508502 0.890081
vt 0.446882 0.914903
vt 0.443888 0.903728
vt 0.178679 0.916479
vt 0.178604 0.904615
vt 0.176348 0.919078
vt 0.162089 0.919078
vt 0.176348 0.971252
vt 0.162089 0.971252
vt 0.593772 0.117483
vt 0.596239 0.112530
vt 0.607840 0.112530
vt 0.593697 0.129346
vt 0.596239 0.060357
vt 0.607840 0.060357
vt 0.331596 0.129572
vt 0.328720 0.118355
vt 0.264432 0.131155
vt 0.268333 0.142148
vt 0.207384 0.168682
vt 0.214668 0.177131
vt 0.169040 0.225182
vt 0.178596 0.229801
vt 0.155236 0.292057
vt 0.165611 0.292142
vt 0.168075 0.359123
vt 0.177688 0.354662
vt 0.205601 0.416171
vt 0.212990 0.407843
vt 0.262102 0.454515
vt 0.266142 0.443588
vt 0.330756 0.457235
vt 0.327762 0.468410
vt 0.591250 0.469986
vt 0.591325 0.458122
vt 0.593581 0.472585
vt 0.607840 0.472585
vt 0.607840 0.524758
vt 0.593581 0.524758
vt 0.091142 0.358986
vt 0.091142 0.131115
vt 0.140685 0.131115
vt 0.140685 0.358986
vt 0.091142 0.119298
vt 0.140685 0.119298
vt 0.091142 0.405219
vt 0.140685 0.405219
vt 0.091142 0.443251
vt 0.140685 0.443251
vt 0.091142 0.468510
vt 0.140685 0.468510
vt 0.091142 0.513246
vt 0.094780 0.945949
vt 0.137048 0.945948
vt 0.140685 0.513245
vt 0.091142 0.557852
vt 0.140685 0.557852
vt 0.091142 0.595540
vt 0.140685 0.595540
vt 0.091142 0.620571
vt 0.140685 0.620571
vt 0.091142 0.665838
vt 0.091142 0.942564
vt 0.140686 0.942563
vt 0.140685 0.665837
vt 0.091142 0.895113
vt 0.140685 0.895112
vt 0.091142 0.905232
vt 0.140685 0.905231
vt 0.020237 0.992713
vt 0.020237 0.982510
vt 0.062505 0.982511
vt 0.062505 0.992714
vt 0.016600 0.982510
vt 0.016600 0.992713
vt 0.066143 0.982511
vt 0.066143 0.992714
vt 0.016604 0.015768
vt 0.020241 0.007468
vt 0.062509 0.007469
vt 0.016604 0.007468
vt 0.137047 0.078581
vt 0.094779 0.078580
vt 0.259703 0.254359
vt 0.282167 0.254359
vt 0.282167 0.278908
vt 0.259703 0.278908
vt 0.301620 0.254359
vt 0.301620 0.278908
vt 0.321074 0.254359
vt 0.321074 0.278908
vt 0.343538 0.254359
vt 0.343538 0.278908
vt 0.220795 0.254359
vt 0.240249 0.254359
vt 0.240249 0.278908
vt 0.220795 0.278908
vt 0.332133 0.294514
vt 0.332133 0.316977
vt 0.329064 0.315205
vt 0.329064 0.296285
vt 0.312679 0.328209
vt 0.312679 0.324666
vt 0.293225 0.316977
vt 0.296293 0.315205
vt 0.293225 0.294513
vt 0.296293 0.296285
vt 0.312679 0.283282
vt 0.312679 0.286825
vt 0.273166 0.341118
vt 0.243070 0.341118
vt 0.249391 0.328476
vt 0.266845 0.328476
vt 0.228022 0.311022
vt 0.240664 0.311022
vt 0.243070 0.280926
vt 0.249391 0.293568
vt 0.273166 0.280926
vt 0.266845 0.293568
vt 0.288214 0.311022
vt 0.275572 0.311022
vt 0.253395 0.320468
vt 0.262841 0.320468
vt 0.248672 0.311022
vt 0.253395 0.301576
vt 0.262841 0.301576
vt 0.267564 0.311022
vt 0.258118 0.311022
vt 0.389190 0.705450
vt 0.411653 0.705450
vt 0.411653 0.729999
vt 0.389190 0.729999
vt 0.431107 0.705450
vt 0.431107 0.729999
vt 0.450561 0.705450
vt 0.450561 0.729999
vt 0.473024 0.705450
vt 0.473024 0.729999
vt 0.350282 0.705450
vt 0.369736 0.705450
vt 0.369736 0.729999
vt 0.350282 0.729999
vt 0.461619 0.745605
vt 0.461619 0.768068
vt 0.458551 0.766297
vt 0.458551 0.747376
vt 0.442166 0.779300
vt 0.442166 0.775757
vt 0.422712 0.768068
vt 0.425780 0.766297
vt 0.422712 0.745605
vt 0.425780 0.747376
vt 0.442166 0.734373
vt 0.442166 0.737916
vt 0.402653 0.792210
vt 0.372556 0.792210
vt 0.378877 0.779568
vt 0.396331 0.779568
vt 0.357508 0.762114
vt 0.370150 0.762114
vt 0.372556 0.732017
vt 0.378877 0.744659
vt 0.402653 0.732017
vt 0.396331 0.744659
vt 0.417701 0.762114
vt 0.405058 0.762114
vt 0.382881 0.771559
vt 0.392327 0.771559
vt 0.378158 0.762114
vt 0.382881 0.752667
vt 0.392327 0.752667
vt 0.397050 0.762114
vt 0.387604 0.762114
vn -0.043148 0.000000 0.999069
vn -0.043148 0.000000 0.999069
vn -0.999812 0.000000 0.019368
vn -0.999812 0.000000 0.019368
vn 0.999903 0.000000 0.013963
vn 0.999903 0.000000 0.013963
vn 0.042513 0.000000 0.999096
vn 0.042513 0.000000 0.999096
vn 0.999090 0.000000 0.042663
vn 0.999090 0.000000 0.042663
vn 0.702000 0.000000 0.712177
vn 0.702000 0.000000 0.712177
vn 0.919465 0.000000 0.393173
vn 0.919465 0.000000 0.393173
vn 0.376015 0.000000 0.926614
vn 0.376015 0.000000 0.926614
vn -0.007205 0.000000 0.999974
vn -0.007205 0.000000 0.999974
vn -0.389328 0.000000 0.921099
vn -0.389328 0.000000 0.921099
vn -0.712184 0.000000 0.701993
vn -0.712184 0.000000 0.701993
vn -0.923699 0.000000 0.383120
vn -0.923699 0.000000 0.383120
vn -0.999290 0.000000 0.037690
vn -0.999290 0.000000 0.037690
vn 0.000000 1.000000 0.000000
vn 0.000000 1.000000 0.000000
vn 0.000000 1.000000 0.000000
vn 0.000000 1.000000 0.000000
vn 0.000000 1.000000 0.000000
vn 0.000000 1.000000 0.000000
vn 0.000000 1.000000 0.000000
vn 0.000000 1.000000 0.000000
vn 0.000000 1.000000 0.000000
vn 0.000000 1.000000 0.000000
vn 0.000000 1.000000 -0.000000
vn 0.000000 1.000000 -0.000000
vn 0.000000 1.000000 -0.000000
vn 0.000000 1.000000 -0.000000
vn 0.000000 1.000000 0.000000
vn 0.000000 1.000000 0.000000
vn 0.000000 1.000000 0.000000
vn 0.000000 1.000000 0.000000
vn 0.000000 1.000000 -0.000000
vn 0.000000 1.000000 -0.000000
vn 0.000000 1.000000 -0.000000
vn 0.000000 1.000000 -0.000000
vn 0.000000 1.000000 0.000000
vn 0.000000 1.000000 0.000000
vn 0.000000 1.000000 -0.000000
vn 0.000000 1.000000 -0.000000
vn 0.000000 -1.000000 -0.000000
vn 0.000000 -1.000000 -0.000000
vn 0.000000 -1.000000 -0.000000
vn 0.000000 -1.000000 -0.000000
vn 0.000000 -1.000000 0.000000
vn 0.000000 -1.000000 0.000000
vn 0.000000 -1.000000 0.000000
vn 0.000000 -1.000000 0.000000
vn 0.000000 -1.000000 0.000000
vn 0.000000 -1.000000 0.000000
vn 0.000000 -1.000000 0.000000
vn 0.000000 -1.000000 0.000000
vn 0.000000 -1.000000 -0.000000
vn 0.000000 -1.000000 0.000000
vn 0.000000 -1.000000 -0.000000
vn 0.000000 -1.000000 0.000000
vn 0.000000 -1.000000 0.000000
vn 0.000000 -1.000000 0.000000
vn 0.000000 -1.000000 -0.000000
vn 0.000000 -1.000000 0.000000
vn 0.000000 -1.000000 -0.000000
vn 0.000000 -1.000000 -0.000000
vn 0.000000 -1.000000 -0.000000
vn 0.000000 -1.000000 -0.000000
vn 0.000000 -1.000000 -0.000000
vn 0.000000 -1.000000 -0.000000
vn 0.643665 0.000000 -0.765307
vn 0.998486 0.000000 -0.055002
vn 0.998486 0.000000 -0.055002
vn 0.643665 0.000000 -0.765307
vn -0.998778 0.000000 -0.049415
vn -0.752328 0.000000 -0.658789
vn -0.752328 0.000000 -0.658789
vn -0.998778 0.000000 -0.049415
vn -0.999178 0.000000 -0.040530
vn -0.999178 0.000000 -0.040530
vn -0.705225 0.000000 -0.708983
vn -0.922177 0.000000 -0.386769
vn -0.922177 0.000000 -0.386769
vn -0.705225 0.000000 -0.708983
vn -0.378955 0.000000 -0.925415
vn -0.378955 0.000000 -0.925415
vn 0.007269 0.000000 -0.999974
vn 0.007269 0.000000 -0.999974
vn 0.392335 0.000000 -0.919823
vn 0.392335 0.000000 -0.919823
vn 0.715367 0.000000 -0.698749
vn 0.715367 0.000000 -0.698749
vn 0.926317 0.000000 -0.376745
vn 0.926317 0.000000 -0.376745
vn 0.999363 0.000000 -0.035687
vn 0.999363 0.000000 -0.035687
vn 1.000000 0.000000 0.000000
vn 1.000000 0.000000 0.000000
vn 1.000000 0.000000 0.000000
vn 1.000000 0.000000 0.000000
vn -1.000000 0.000000 0.000000
vn -1.000000 0.000000 0.000000
vn -1.000000 0.000000 0.000000
vn -1.000000 0.000000 0.000000
vn 0.000000 0.000000 1.000000
vn 0.000000 0.000000 1.000000
vn 0.000000 -1.000000 0.000000
vn 0.000000 -1.000000 0.000000
vn 0.000017 0.000000 -1.000000
vn 0.000017 0.000000 -1.000000
vn 0.000017 0.000000 -1.000000
vn 0.000017 0.000000 -1.000000
vn 0.000000 1.000000 0.000000
vn 0.000000 1.000000 0.000000
vn 0.000000 0.000000 -1.000000
vn 0.000000 0.000000 -1.000000
vn 0.000000 0.000000 -1.000000
vn 0.000000 0.000000 -1.000000
vn 0.000000 -1.000000 0.000000
vn 0.000000 -1.000000 0.000000
vn 0.000011 0.000000 1.000000
vn 0.000011 0.000000 1.000000
vn 0.000011 0.000000 1.000000
vn 0.000011 0.000000 1.000000
vn 0.000000 1.000000 0.000000
vn 0.000000 1.000000 0.000000
vn 0.707107 -0.707107 0.000000
vn 0.707107 -0.707107 0.000000
vn 0.707107 -0.707107 0.000000
vn 0.707107 -0.707107 0.000000
vn 0.707098 0.707115 0.000000
vn 0.707098 0.707115 0.000000
vn 0.707098 0.707115 0.000000
vn 0.707098 0.707115 0.000000
vn -0.707178 -0.707035 0.000000
vn -0.707178 -0.707035 0.000000
vn -0.707178 -0.707035 0.000000
vn -0.707178 -0.707035 0.000000
vn -0.707168 0.707045 0.000000
vn -0.707168 0.707045 0.000000
vn -0.707168 0.707045 0.000000
vn -0.707168 0.707045 0.000000
vn 0.000011 0.000000 1.000000
vn 0.000011 0.000000 1.000000
vn 0.000011 0.000000 1.000000
vn 0.000011 0.000000 1.000000
vn 0.000000 0.000000 -1.000000
vn 0.000000 0.000000 -1.000000
vn 0.000000 0.000000 -1.000000
vn 0.000000 0.000000 -1.000000
vn 0.000006 0.000000 -1.000000
vn 0.000006 0.000000 -1.000000
vn 0.000006 0.000000 -1.000000
vn 0.000006 0.000000 -1.000000
vn 0.000000 0.000000 1.000000
vn 0.000000 0.000000 1.000000
vn 0.258833 -0.965922 0.000000
vn 0.258833 -0.965922 0.000000
vn 0.258833 -0.965922 0.000000
vn 0.258833 -0.965922 0.000000
vn 0.965914 -0.258862 0.000000
vn 0.965914 -0.258862 0.000000
vn 0.965914 -0.258862 0.000000
vn 0.965914 -0.258862 0.000000
vn 0.707064 0.707150 0.000000
vn 0.707064 0.707150 0.000000
vn 0.707064 0.707150 0.000000
vn 0.707064 0.707150 0.000000
vn -0.258792 0.965933 0.000000
vn -0.258792 0.965933 0.000000
vn -0.258792 0.965933 0.000000
vn -0.258792 0.965933 0.000000
vn -0.965914 0.258862 0.000000
vn -0.965914 0.258862 0.000000
vn -0.965914 0.258862 0.000000
vn -0.965914 0.258862 0.000000
vn -0.707074 -0.707139 0.000000
vn -0.707074 -0.707139 0.000000
vn -0.707074 -0.707139 0.000000
vn -0.707074 -0.707139 0.000000
vn 0.000201 0.000539 1.000000
vn -0.000315 0.000395 1.000000
vn -0.000315 0.000394 1.000000
vn 0.000201 0.000539 1.000000
vn -0.000504 -0.000144 1.000000
vn -0.000504 -0.000144 1.000000
vn -0.000158 -0.000539 1.000000
vn -0.000158 -0.000539 1.000000
vn 0.000362 -0.000395 1.000000
vn 0.000362 -0.000394 1.000000
vn 0.000532 0.000144 1.000000
vn 0.000532 0.000144 1.000000
vn -0.257852 -0.962426 0.085135
vn 0.704567 -0.704499 0.085245
vn 0.664659 -0.664732 0.341115
vn -0.243330 -0.907997 0.341075
vn 0.962419 0.257854 0.085210
vn 0.908006 0.243272 0.341093
vn 0.257905 0.962411 0.085143
vn 0.243296 0.908011 0.341062
vn -0.704564 0.704521 0.085088
vn -0.664713 0.664722 0.341030
vn -0.962419 -0.257910 0.085039
vn -0.908034 -0.243303 0.340995
vn 0.455345 -0.455302 0.765089
vn -0.166653 -0.621945 0.765122
vn 0.621969 0.166711 0.765090
vn 0.166678 0.621966 0.765099
vn -0.455349 0.455252 0.765116
vn -0.621947 -0.166692 0.765112
vn 0.000007 -0.000005 1.000000
vn -0.000022 1.000000 0.000000
vn -0.000022 1.000000 0.000000
vn -0.000022 1.000000 0.000000
vn -0.000022 1.000000 0.000000
vn -0.865984 0.500071 0.000000
vn -0.865984 0.500071 0.000000
vn -0.865984 0.500071 0.000000
vn -0.865984 0.500071 0.000000
vn -0.865974 -0.500090 0.000000
vn -0.865974 -0.500090 0.000000
vn -0.865974 -0.500090 0.000000
vn -0.865974 -0.500090 0.000000
vn -0.000022 -1.000000 0.000000
vn -0.000022 -1.000000 0.000000
vn -0.000022 -1.000000 0.000000
vn -0.000022 -1.000000 0.000000
vn 0.866059 -0.499941 0.000000
vn 0.866059 -0.499941 0.000000
vn 0.866059 -0.499941 0.000000
vn 0.866059 -0.499941 0.000000
vn 0.866059 0.499941 0.000000
vn 0.866059 0.499941 0.000000
vn 0.866059 0.499941 0.000000
vn 0.866059 0.499941 0.000000
vn -0.000315 -0.000483 1.000000
vn 0.000252 -0.000483 1.000000
vn 0.000252 -0.000483 1.000000
vn -0.000315 -0.000483 1.000000
vn 0.000544 0.000000 1.000000
vn 0.000544 -0.000000 1.000000
vn 0.000276 0.000483 1.000000
vn 0.000276 0.000483 1.000000
vn -0.000331 0.000483 1.000000
vn -0.000331 0.000483 1.000000
vn -0.000630 0.000000 1.000000
vn -0.000630 0.000000 1.000000
vn 0.498230 0.862850 0.085183
vn -0.498165 0.862889 0.085166
vn -0.470003 0.814103 0.341077
vn 0.469980 0.814117 0.341075
vn -0.996370 0.000003 0.085124
vn -0.940042 0.000007 0.341059
vn -0.498217 -0.862864 0.085126
vn -0.470043 -0.814087 0.341059
vn 0.498270 -0.862833 0.085124
vn 0.469983 -0.814124 0.341054
vn 0.996370 -0.000005 0.085128
vn 0.940052 -0.000004 0.341032
vn -0.321934 0.557643 0.765109
vn 0.321933 0.557693 0.765073
vn -0.643870 -0.000005 0.765135
vn -0.321940 -0.557628 0.765118
vn 0.321942 -0.557666 0.765089
vn 0.643913 0.000000 0.765099
vn 0.000014 0.000000 1.000000
s 1
g Pipe_C_Ring_LOD_0 group2
usemtl lambert3SG
f 2/1/1 13/2/2 12/3/3 1/4/4
f 4/12/5 15/11/6 14/15/7 3/16/8
f 51/9/9 52/10/10 15/11/6 4/12/5
f 6/17/11 17/18/12 16/14/13 5/13/14
f 7/19/15 18/20/16 17/18/12 6/17/11
f 8/21/17 19/22/18 18/20/16 7/19/15
f 9/25/19 20/26/20 19/22/18 8/21/17
f 10/27/21 21/28/22 20/26/20 9/25/19
f 11/29/23 22/30/24 21/28/22 10/27/21
f 47/31/25 48/32/26 22/30/24 11/29/23
s 4
f 2/37/27 1/38/28 23/39/29 24/40/30
f 4/61/31 3/63/32 25/64/33 26/62/34
f 51/59/35 4/61/31 26/62/34 50/60/36
f 6/55/37 5/57/38 27/58/39 28/56/40
f 7/53/41 6/55/37 28/56/40 29/54/42
f 8/51/43 7/53/41 29/54/42 30/52/44
f 9/49/45 8/51/43 30/52/44 31/50/46
f 10/47/47 9/49/45 31/50/46 32/48/48
f 11/45/49 10/47/47 32/48/48 33/46/50
f 47/41/51 11/45/49 33/46/50 46/42/52
s 6
f 12/67/53 13/68/54 35/69/55 34/70/56
f 14/93/57 15/91/58 37/92/59 36/94/60
f 15/91/58 52/90/61 49/89/62 37/92/59
f 16/87/63 17/85/64 39/86/65 38/88/66
f 17/85/64 18/83/67 40/84/68 39/86/65
f 18/83/67 19/81/69 41/82/70 40/84/68
f 19/81/69 20/79/71 42/80/72 41/82/70
f 20/79/71 21/77/73 43/78/74 42/80/72
f 21/77/73 22/75/75 44/76/76 43/78/74
f 22/75/75 48/74/77 45/73/78 44/76/76
s 9
f 24/125/79 23/123/80 34/124/81 35/126/82
f 26/98/83 25/101/84 36/102/85 37/99/86
f 50/97/87 26/98/83 37/99/86 49/100/88
f 28/105/89 27/103/90 38/104/91 39/106/92
f 29/107/93 28/105/89 39/106/92 40/108/94
f 30/109/95 29/107/93 40/108/94 41/112/96
f 31/113/97 30/109/95 41/112/96 42/114/98
f 32/115/99 31/113/97 42/114/98 43/116/100
f 33/117/101 32/115/99 43/116/100 44/118/102
f 46/119/103 33/117/101 44/118/102 45/122/104
s off
f 59/127/105 58/128/106 53/129/107 55/130/108
f 67/7/109 66/136/110 61/137/111 63/8/112
s 1
f 3/16/8 14/15/7 54/24/113 57/23/114
s 6
f 14/93/57 36/94/60 56/95/115 54/96/116
s off
f 56/34/117 60/33/118 59/140/119 55/139/120
s 4
f 25/64/33 3/63/32 57/65/121 60/66/122
s off
f 24/125/123 35/126/124 62/121/125 65/120/126
s 6
f 35/69/55 13/68/54 64/71/127 62/72/128
s off
f 64/6/129 68/5/130 67/7/131 63/8/132
s 4
f 2/37/27 24/40/30 65/43/133 68/44/134
s 9
f 23/123/80 46/119/103 45/122/104 34/124/81
s 4
f 1/38/28 47/41/51 46/42/52 23/39/29
s 1
f 1/4/4 12/3/3 48/32/26 47/31/25
s 6
f 45/73/78 48/74/77 12/67/53 34/70/56
s 9
f 27/103/90 50/97/87 49/100/88 38/104/91
s 4
f 5/57/38 51/59/35 50/60/36 27/58/39
s 1
f 5/13/14 16/14/13 52/10/10 51/9/9
s 6
f 49/89/62 52/90/61 16/87/63 38/88/66
s off
f 53/129/135 54/133/136 56/134/137 55/130/138
f 57/131/139 58/128/140 59/127/141 60/132/142
f 61/137/143 62/36/144 64/35/145 63/8/146
f 65/138/147 66/136/148 67/7/149 68/135/150
f 57/23/151 54/24/152 53/129/153 58/128/154
f 36/102/155 25/101/156 60/33/157 56/34/158
f 65/120/159 62/121/160 61/111/161 66/110/162
s 1
f 13/2/2 2/1/1 68/5/163 64/6/164
s off
f 69/141/165 70/142/166 76/143/167 75/144/168
f 70/142/169 71/145/170 77/146/171 76/143/172
f 71/145/173 72/147/174 78/148/175 77/146/176
f 72/147/177 73/149/178 79/150/179 78/148/180
f 73/151/181 74/152/182 80/153/183 79/154/184
f 74/152/185 69/141/186 75/144/187 80/153/188
s 11
f 75/155/189 76/156/190 82/157/191 81/158/192
f 76/156/190 77/159/193 83/160/194 82/157/191
f 77/159/193 78/161/195 84/162/196 83/160/194
f 78/161/195 79/163/197 85/164/198 84/162/196
f 79/163/197 80/165/199 86/166/200 85/164/198
f 80/165/199 75/155/189 81/158/192 86/166/200
s 12
f 81/167/201 82/168/202 88/169/203 87/170/204
f 82/168/202 83/171/205 89/172/206 88/169/203
f 83/171/205 84/173/207 90/174/208 89/172/206
f 84/173/207 85/175/209 91/176/210 90/174/208
f 85/175/209 86/177/211 92/178/212 91/176/210
f 86/177/211 81/167/201 87/170/204 92/178/212
f 87/170/204 88/169/203 94/179/213 93/180/214
f 88/169/203 89/172/206 95/181/215 94/179/213
f 89/172/206 90/174/208 96/182/216 95/181/215
f 90/174/208 91/176/210 97/183/217 96/182/216
f 91/176/210 92/178/212 98/184/218 97/183/217
f 92/178/212 87/170/204 93/180/214 98/184/218
f 93/180/214 94/179/213 99/185/219
f 94/179/213 95/181/215 99/185/219
f 95/181/215 96/182/216 99/185/219
f 96/182/216 97/183/217 99/185/219
f 97/183/217 98/184/218 99/185/219
f 98/184/218 93/180/214 99/185/219
s off
f 100/186/220 101/187/221 107/188/222 106/189/223
f 101/187/224 102/190/225 108/191/226 107/188/227
f 102/190/228 103/192/229 109/193/230 108/191/231
f 103/192/232 104/194/233 110/195/234 109/193/235
f 104/196/236 105/197/237 111/198/238 110/199/239
f 105/197/240 100/186/241 106/189/242 111/198/243
s 13
f 106/200/244 107/201/245 113/202/246 112/203/247
f 107/201/245 108/204/248 114/205/249 113/202/246
f 108/204/248 109/206/250 115/207/251 114/205/249
f 109/206/250 110/208/252 116/209/253 115/207/251
f 110/208/252 111/210/254 117/211/255 116/209/253
f 111/210/254 106/200/244 112/203/247 117/211/255
s 14
f 112/212/256 113/213/257 119/214/258 118/215/259
f 113/213/257 114/216/260 120/217/261 119/214/258
f 114/216/260 115/218/262 121/219/263 120/217/261
f 115/218/262 116/220/264 122/221/265 121/219/263
f 116/220/264 117/222/266 123/223/267 122/221/265
f 117/222/266 112/212/256 118/215/259 123/223/267
f 118/215/259 119/214/258 125/224/268 124/225/269
f 119/214/258 120/217/261 126/226/270 125/224/268
f 120/217/261 121/219/263 127/227/271 126/226/270
f 121/219/263 122/221/265 128/228/272 127/227/271
f 122/221/265 123/223/267 129/229/273 128/228/272
f 123/223/267 118/215/259 124/225/269 129/229/273
f 124/225/269 125/224/268 130/230/274
f 125/224/268 126/226/270 130/230/274
f 126/226/270 127/227/271 130/230/274
f 127/227/271 128/228/272 130/230/274
f 128/228/272 129/229/273 130/230/274
f 129/229/273 124/225/269 130/230/274
